<?xml version="1.0" encoding="utf-8"?>
<!-- Generator: Adobe Illustrator 24.0.0, SVG Export Plug-In . SVG Version: 6.00 Build 0)  -->
<svg version="1.1" id="Layer_1" xmlns="http://www.w3.org/2000/svg" xmlns:xlink="http://www.w3.org/1999/xlink" x="0px" y="0px"
	 viewBox="0 0 1191 604" style="enable-background:new 0 0 1191 604;" xml:space="preserve">
<style type="text/css">
	.st0{fill:#8FFFAC;stroke:#8FFFAC;stroke-width:0.5;stroke-miterlimit:10;}
	.st1{fill:#9988FF;stroke:#9988FF;stroke-width:0.5;stroke-miterlimit:10;}
</style>
<g id="Map_2">
	
		<image style="overflow:visible;" width="7682" height="4859" xlink:href="../map_pngs/10x/Asset 2@10x-100.jpg"  transform="matrix(0.1 0 0 0.1 220.6041 50.5568)">
	</image>
	<g id="Masters1_x5F_Urban">
		<path class="st0" d="M387.9,309.1l66.7,38.5 M454.6,347.6l-66.7,38.5 M321.2,347.6l66.7,38.5 M321.2,347.6l33.4-19.3 M354.5,328.4
			l33.4-19.3"/>
		<g id="Layer_14">
			<polygon class="st0" points="321.2,347.6 387.9,309.1 454.6,347.6 387.9,386.2 			"/>
		</g>
	</g>
	<g id="Masters1_x5F_Design">
		<path class="st0" d="M488,444l-66.7,38.5 M421.3,482.5L354.5,444 M421.3,405.4l36.7,21.2 M354.5,444l24.3-14 M378.8,430l2.4-1.4
			 M381.2,428.6l3.3-1.9 M484.7,442l3.3,1.9 M384.6,426.6l33.4-19.3 M417.9,407.4l3.3-1.9 M484.7,442l-6.7-3.9 M478,438.2l-6.7-3.9
			 M458,426.6l6.7,3.9 M464.7,430.5l6.7,3.9"/>
		<polygon class="st0" points="354.5,444 421.3,405.4 488,444 421.3,482.5 		"/>
	</g>
	<g id="Masters1_x5F_Structures">
		<path class="st0" d="M488,366.9l66.7-38.5 M554.8,328.4l66.7,38.5 M621.5,366.9l-66.7,38.5 M554.8,405.4L488,366.9"/>
		<polygon class="st0" points="488,366.9 554.8,328.4 621.5,366.9 554.8,405.4 		"/>
	</g>
	<g id="Masters1_x5F_Conservation">
		<path class="st0" d="M755,405.4L688.2,444 M688.2,444l-66.7-38.5 M621.5,405.4l30-17.3 M651.5,388.1l6.7-3.9 M688.2,366.9l3.3,1.9
			 M691.6,368.8l3.3,1.9 M694.9,370.8l2.4,1.4 M697.3,372.2l57.6,33.3 M658.2,384.2l6.7-3.9 M664.9,380.4l6.7-3.9 M671.6,376.5
			l6.7-3.9 M678.2,372.7l6.7-3.9 M684.9,368.8l3.3-1.9"/>
		<polygon class="st0" points="621.5,405.4 688.2,366.9 755,405.4 688.2,444 		"/>
	</g>
	<g id="Masters2_x5F_Urban">
		<path class="st1" d="M454.6,158.8l66.7,38.5 M521.4,197.4l-66.7,38.5 M454.6,235.9l-66.7-38.5 M387.9,197.4l66.7-38.5"/>
		<polygon class="st1" points="387.9,197.4 454.6,158.8 521.4,197.4 454.6,235.9 		"/>
	</g>
	<g id="Masters2_x5F_Design">
		<path class="st1" d="M721.6,197.4l-66.7,38.5 M654.9,235.9l-66.7-38.5 M654.9,158.8l3.3,1.9 M697.3,183.3l24.3,14 M588.1,197.4
			l3.3-1.9 M618.2,180l33.4-19.3 M651.5,160.8l3.3-1.9 M691.6,180l3.3,1.9 M694.9,181.9l2.4,1.4 M591.5,195.4l6.7-3.9 M689.8,179
			l1.8,1 M598.1,191.6l6.7-3.9 M658.5,160.9l29.7,17.2 M688.2,178.1l1.5,0.9 M604.8,187.7l6.7-3.9 M611.5,183.9l6.7-3.9
			 M658.2,160.8l0.3,0.2"/>
		<polygon class="st1" points="588.1,197.4 654.9,158.8 721.6,197.4 654.9,235.9 		"/>
	</g>
	<g id="Masters2_x5F_Structures">
		<path class="st1" d="M888.5,139.6l66.7,38.5 M955.2,178.1l-66.7,38.5 M888.5,216.6l-66.7-38.5 M821.7,178.1l66.7-38.5"/>
		<polygon class="st1" points="821.7,178.1 888.5,139.6 955.2,178.1 888.5,216.6 		"/>
	</g>
	<g id="Masters2_x5F_Conservation">
		<path class="st1" d="M888.5,255.2l-66.7,38.5 M821.7,293.7L755,255.2 M755,255.2l57.6-33.3 M821.7,216.6l3.3,1.9 M825.1,218.6
			l33.4,19.3 M858.4,237.8l6.7,3.9 M812.6,221.9l2.4-1.4 M865.1,241.7l6.7,3.9 M815.1,220.5l3.3-1.9 M818.4,218.6l3.3-1.9
			 M878.5,249.4l-6.7-3.9 M878.5,249.4l6.7,3.9 M885.1,253.2l3.3,1.9"/>
		<polygon class="st1" points="755,255.2 821.7,216.6 888.5,255.2 821.7,293.7 		"/>
	</g>
</g>
<g id="Map_1">
</g>
</svg>
