<?xml version="1.0" encoding="utf-8"?>
<!-- Generator: Adobe Illustrator 24.0.0, SVG Export Plug-In . SVG Version: 6.00 Build 0)  -->
<svg version="1.1" id="Layer_1" xmlns="http://www.w3.org/2000/svg" xmlns:xlink="http://www.w3.org/1999/xlink" x="0px" y="0px"
	 viewBox="0 0 1191 604" style="enable-background:new 0 0 1191 604;" xml:space="preserve">
<style type="text/css">
	.st0{display:none;}
	.st1{display:inline;}
	.st2{fill:#8FFFAC;stroke:#8FFFAC;stroke-width:0.5;stroke-miterlimit:10;}
	.st3{fill:#9988FF;stroke:#9988FF;stroke-width:0.5;stroke-miterlimit:10;}
	.st4{fill:#D00000;stroke:#E70000;stroke-width:0.5;stroke-miterlimit:10;}
</style>
<g id="Map_2_1_" class="st0">
	
		<image style="display:inline;overflow:visible;" width="7682" height="4859" xlink:href="../map_pngs/10x/Asset 2@10x-100.jpg"  transform="matrix(0.1 0 0 0.1 211.4 58.3256)">
	</image>
	<g id="Masters1_x5F_Urban_1_" class="st1">
		<path class="st2" d="M378.7,316.9l66.7,38.5 M445.4,355.4l-66.7,38.5 M312,355.4l66.7,38.5 M312,355.4l33.4-19.3 M345.3,336.2
			l33.4-19.3"/>
		<g id="Layer_14_2_">
			<polygon class="st2" points="312,355.4 378.7,316.9 445.4,355.4 378.7,394 			"/>
		</g>
	</g>
	<g id="Masters1_x5F_Design_1_" class="st1">
		<path class="st2" d="M478.8,451.8l-66.7,38.5 M412.1,490.3l-66.8-38.5 M412.1,413.2l36.7,21.2 M345.3,451.8l24.3-14 M369.6,437.8
			l2.4-1.4 M372,436.4l3.3-1.9 M475.5,449.8l3.3,1.9 M375.4,434.4l33.4-19.3 M408.7,415.2l3.3-1.9 M475.5,449.8l-6.7-3.9 M468.8,446
			l-6.7-3.9 M448.8,434.4l6.7,3.9 M455.5,438.3l6.7,3.9"/>
		<polygon class="st2" points="345.3,451.8 412.1,413.2 478.8,451.8 412.1,490.3 		"/>
	</g>
	<g id="Masters1_x5F_Structures_1_" class="st1">
		<path class="st2" d="M478.8,374.7l66.7-38.5 M545.6,336.2l66.7,38.5 M612.3,374.7l-66.7,38.5 M545.6,413.2l-66.8-38.5"/>
		<polygon class="st2" points="478.8,374.7 545.6,336.2 612.3,374.7 545.6,413.2 		"/>
	</g>
	<g id="Masters1_x5F_Conservation_1_" class="st1">
		<path class="st2" d="M745.8,413.2L679,451.8 M679,451.8l-66.7-38.5 M612.3,413.2l30-17.3 M642.3,395.9l6.7-3.9 M679,374.7l3.3,1.9
			 M682.4,376.6l3.3,1.9 M685.7,378.6l2.4,1.4 M688.1,380l57.6,33.3 M649,392l6.7-3.9 M655.7,388.2l6.7-3.9 M662.4,384.3l6.7-3.9
			 M669,380.5l6.7-3.9 M675.7,376.6l3.3-1.9"/>
		<polygon class="st2" points="612.3,413.2 679,374.7 745.8,413.2 679,451.8 		"/>
	</g>
	<g id="Masters2_x5F_Urban_1_" class="st1">
		<path class="st3" d="M445.4,166.6l66.7,38.5 M512.2,205.2l-66.7,38.5 M445.4,243.7l-66.7-38.5 M378.7,205.2l66.7-38.5"/>
		<polygon class="st3" points="378.7,205.2 445.4,166.6 512.2,205.2 445.4,243.7 		"/>
	</g>
	<g id="Masters2_x5F_Design_1_" class="st1">
		<path class="st3" d="M712.4,205.2l-66.7,38.5 M645.7,243.7L579,205.2 M645.7,166.6l3.3,1.9 M688.1,191.1l24.3,14 M578.9,205.2
			l3.3-1.9 M609,187.8l33.4-19.3 M642.3,168.6l3.3-1.9 M682.4,187.8l3.3,1.9 M685.7,189.7l2.4,1.4 M582.3,203.2l6.7-3.9
			 M680.6,186.8l1.8,1 M588.9,199.4l6.7-3.9 M649.3,168.7l29.7,17.2 M679,185.9l1.5,0.9 M595.6,195.5l6.7-3.9 M602.3,191.7l6.7-3.9
			 M649,168.6l0.3,0.2"/>
		<polygon class="st3" points="578.9,205.2 645.7,166.6 712.4,205.2 645.7,243.7 		"/>
	</g>
	<g id="Masters2_x5F_Structures_1_" class="st1">
		<path class="st3" d="M879.3,147.4l66.7,38.5 M946,185.9l-66.7,38.5 M879.3,224.4l-66.7-38.5 M812.5,185.9l66.7-38.5"/>
		<polygon class="st3" points="812.5,185.9 879.3,147.4 946,185.9 879.3,224.4 		"/>
	</g>
	<g id="Masters2_x5F_Conservation_1_" class="st1">
		<path class="st3" d="M879.3,263l-66.7,38.5 M812.5,301.5L745.8,263 M745.8,263l57.6-33.3 M812.5,224.4l3.3,1.9 M815.9,226.4
			l33.4,19.3 M849.2,245.6l6.7,3.9 M803.4,229.7l2.4-1.4 M855.9,249.5l6.7,3.9 M805.9,228.3l3.3-1.9 M809.2,226.4l3.3-1.9
			 M869.3,257.2l-6.7-3.9 M869.3,257.2l6.7,3.9 M875.9,261l3.3,1.9"/>
		<polygon class="st3" points="745.8,263 812.5,224.4 879.3,263 812.5,301.5 		"/>
	</g>
</g>
<g id="Map_1">
	
		<image style="overflow:visible;" width="7776" height="4131" xlink:href="../map_pngs/10x/Asset 1@10x-100.jpg"  transform="matrix(0.1 0 0 0.1 229.1 99.15)">
	</image>
	<g id="Border_x5F_Diploma">
		<path class="st4" d="M478.3,336.1L416.1,372 M416.2,372L354,336.1 M416.2,300.2l31.1,17.9 M354,336.1l31.1-17.9 M385.1,318.1
			l31.1-17.9 M447.2,318.1l3.1,1.8 M450.4,319.9l2.5,1.5 M452.9,321.4l25.4,14.7"/>
		<g id="Layer_14_1_">
			<polygon class="st4" points="354,336.1 416.2,300.2 478.3,336.1 416.2,372 			"/>
		</g>
	</g>
	<g id="Border_x5F_BSc_1">
		<path class="st4" d="M509.4,425.8l-62.2,35.9 M447.2,461.7l-62.1-35.9 M481.4,409.7l-34.2-19.8 M385.1,425.8l22.6-13.1
			 M407.7,412.8l2.3-1.3 M409.9,411.4l3.1-1.8 M506.3,424l3.1,1.8 M413.1,409.7l6.2-3.6 M500.1,420.4l6.2,3.6 M419.3,406.1l6.2-3.6
			 M493.9,416.8l6.2,3.6 M425.5,402.5l6.2-3.6 M481.4,409.7l6.2,3.6 M487.6,413.2l6.2,3.6 M431.7,398.9l6.2-3.6 M437.9,395.3
			l6.2-3.6 M444.1,391.7l3.1-1.8"/>
		<polygon class="st4" points="385.1,425.8 447.2,389.9 509.4,425.8 447.2,461.7 		"/>
	</g>
	<g id="Border_x5F_BSc_2">
		<path class="st4" d="M509.4,354l62.2-35.9 M571.6,318.1l62.2,35.9 M633.7,354l-62.1,35.9 M571.6,389.9L509.4,354"/>
		<polygon class="st4" points="509.4,354 571.6,318.1 633.7,354 571.6,389.9 		"/>
	</g>
	<g id="Border_x5F_BSc_3_Conservation">
		<path class="st4" d="M664.8,160.2l-62.2,35.9 M602.6,196.1l-62.2-35.9 M540.5,160.2l62.2-35.9 M602.6,124.4l62.2,35.9"/>
		<polygon class="st4" points="540.5,160.2 602.6,124.4 664.8,160.2 602.6,196.1 		"/>
	</g>
	<g id="Border_x5F_BSc_3_Design">
		<path class="st4" d="M668.2,266l-34.5,19.9 M633.7,285.8l-62.2-35.9 M667.9,233.8l26.6,15.3 M694.5,249.1l-26.3,15.2 M571.6,250
			l53.7-31 M625.2,219l2.3-1.3 M627.5,217.7l3.1-1.8 M630.6,215.9l3.1-1.8 M661.7,230.2l6.2,3.6 M668.2,266v-1.6 M655.5,226.6
			l6.2,3.6 M649.3,223l6.2,3.6 M643,219.5l6.2,3.6 M633.7,214.1l3.1,1.8 M636.8,215.9l6.2,3.6"/>
		<polygon class="st4" points="571.6,250 633.7,214.1 694.5,249.1 668.2,264.3 668.2,266 633.7,285.8 		"/>
	</g>
	<g id="Border_x5F_BSc_3_Urban">
		<path class="st4" d="M913.4,375.6l-62.2,35.9 M851.3,411.4l-62.2-35.8 M789.1,375.6l53.7-31 M842.8,344.6l2.3-1.3 M891.7,363
			l6.2,3.6 M897.9,366.6l6.2,3.6 M845.1,343.3l3.1-1.8 M848.2,341.5l3.1-1.8 M885.5,359.4l6.2,3.6 M904.1,370.2l6.2,3.6
			 M910.3,373.8l3.1,1.8 M851.3,339.7l3.1,1.8 M854.4,341.5l31.1,17.9"/>
		<polygon class="st4" points="789.1,375.6 851.3,339.7 913.4,375.6 851.3,411.4 		"/>
	</g>
	<g id="Border_x5F_BSc_3_Structures">
		<path class="st4" d="M913.4,267.9l62.2,35.9 M975.6,303.8l-62.2,35.9 M913.4,339.7l-62.2-35.9 M851.3,303.8l62.2-35.9"/>
		<polygon class="st4" points="851.3,303.8 913.4,267.9 975.6,303.8 913.4,339.7 		"/>
	</g>
</g>
</svg>
