<?xml version="1.0" encoding="utf-8"?>
<!-- Generator: Adobe Illustrator 24.0.0, SVG Export Plug-In . SVG Version: 6.00 Build 0)  -->
<svg version="1.1" xmlns="http://www.w3.org/2000/svg" xmlns:xlink="http://www.w3.org/1999/xlink" x="0px" y="0px"
	 viewBox="0 0 1191 604" style="enable-background:new 0 0 1191 604;" xml:space="preserve">
<style type="text/css">
	.st0{fill:none;stroke:#000000;stroke-width:0.5;stroke-miterlimit:10;}
	.st1{fill:none;stroke:#000000;stroke-width:0.3;stroke-miterlimit:10;}
	.st2{fill:none;stroke:#000000;stroke-width:0.3;stroke-miterlimit:10;stroke-dasharray:2.0517,2.0517;}
	.st3{fill:none;stroke:#000000;stroke-width:0.3;stroke-miterlimit:10;stroke-dasharray:1.2685,1.2685;}
	.st4{fill:none;stroke:#000000;stroke-width:0.3;stroke-miterlimit:10;stroke-dasharray:1.3186,1.3186;}
	.st5{fill:none;stroke:#000000;stroke-width:0.3;stroke-miterlimit:10;stroke-dasharray:1.9229,1.9229;}
	.st6{fill:none;stroke:#000000;stroke-width:0.3;stroke-miterlimit:10;stroke-dasharray:1.9218,1.9218;}
	.st7{fill:none;stroke:#000000;stroke-width:0.3;stroke-miterlimit:10;stroke-dasharray:2.0251,2.0251;}
	.st8{fill:none;stroke:#000000;stroke-width:0.3;stroke-miterlimit:10;stroke-dasharray:2.0252,2.0252;}
	.st9{fill:none;stroke:#000000;stroke-width:0.3;stroke-miterlimit:10;stroke-dasharray:1.9975,1.9975;}
	.st10{fill:none;stroke:#000000;stroke-width:0.3;stroke-miterlimit:10;stroke-dasharray:1.8567,1.8567;}
	.st11{fill:none;stroke:#000000;stroke-width:0.3;stroke-miterlimit:10;stroke-dasharray:1.9228,1.9228;}
	.st12{fill:none;stroke:#000000;stroke-width:0.3;stroke-miterlimit:10;stroke-dasharray:1.9974,1.9974;}
	.st13{fill:none;stroke:#000000;stroke-width:0.3;stroke-miterlimit:10;stroke-dasharray:2.0648,2.0648;}
	.st14{fill:none;stroke:#000000;stroke-width:0.3;stroke-miterlimit:10;stroke-dasharray:1.2601,1.2601;}
	.st15{fill:none;stroke:#000000;stroke-width:0.3;stroke-miterlimit:10;stroke-dasharray:1.2599,1.2599;}
	.st16{fill:none;stroke:#000000;stroke-width:0.3;stroke-miterlimit:10;stroke-dasharray:1.6806,1.6806;}
	.st17{fill:none;stroke:#000000;stroke-width:0.3;stroke-miterlimit:10;stroke-dasharray:1.6809,1.6809;}
	.st18{fill:none;stroke:#000000;stroke-width:0.3;stroke-miterlimit:10;stroke-dasharray:1.6667,1.6667;}
	.st19{fill:none;stroke:#000000;stroke-width:0.3;stroke-miterlimit:10;stroke-dasharray:1.6807,1.6807;}
	.st20{fill:none;stroke:#000000;stroke-width:0.3;stroke-miterlimit:10;stroke-dasharray:1.681,1.681;}
	.st21{fill:none;stroke:#000000;stroke-width:0.3;stroke-miterlimit:10;stroke-dasharray:1.268,1.268;}
	.st22{fill:none;stroke:#000000;stroke-width:0.3;stroke-miterlimit:10;stroke-dasharray:1.9225,1.9225;}
	.st23{fill:none;stroke:#000000;stroke-width:0.3;stroke-miterlimit:10;stroke-dasharray:2.01,2.01;}
	.st24{fill:none;stroke:#000000;stroke-width:0.3;stroke-miterlimit:10;stroke-dasharray:2.1438,2.1438;}
	.st25{fill:none;stroke:#000000;stroke-width:0.3;stroke-miterlimit:10;stroke-dasharray:1.8566,1.8566;}
	.st26{fill:none;stroke:#000000;stroke-width:0.3;stroke-miterlimit:10;stroke-dasharray:1.3184,1.3184;}
	.st27{fill:none;stroke:#000000;stroke-width:0.3;stroke-miterlimit:10;stroke-dasharray:2.4862,2.4862;}
	.st28{fill:none;stroke:#000000;stroke-width:0.3;stroke-miterlimit:10;stroke-dasharray:1.92,1.92;}
	.st29{fill:none;stroke:#000000;stroke-width:0.3;stroke-miterlimit:10;stroke-dasharray:1.9973,1.9973;}
	.st30{fill:none;stroke:#000000;stroke-width:0.3;stroke-miterlimit:10;stroke-dasharray:1.6808,1.6808;}
	.st31{fill:none;stroke:#000000;stroke-width:0.3;stroke-miterlimit:10;stroke-dasharray:1.6163,1.6163;}
	.st32{fill:none;stroke:#000000;stroke-width:0.3;stroke-miterlimit:10;stroke-dasharray:1.8149,1.8149;}
	.st33{fill:none;stroke:#000000;stroke-width:0.3;stroke-miterlimit:10;stroke-dasharray:1.9211,1.9211;}
	.st34{fill:none;stroke:#000000;stroke-width:0.3;stroke-miterlimit:10;stroke-dasharray:2.0471,2.0471;}
	.st35{fill:none;stroke:#000000;stroke-width:0.3;stroke-miterlimit:10;stroke-dasharray:1.815,1.815;}
	.st36{fill:none;stroke:#000000;stroke-width:0.3;stroke-miterlimit:10;stroke-dasharray:1.9162,1.9162;}
	.st37{fill:none;stroke:#000000;stroke-width:0.3;stroke-miterlimit:10;stroke-dasharray:1.7901,1.7901;}
	.st38{fill:none;stroke:#000000;stroke-width:0.3;stroke-miterlimit:10;stroke-dasharray:2.2211,2.2211;}
	.st39{fill:none;stroke:#000000;stroke-width:0.3;stroke-miterlimit:10;stroke-dasharray:1.8548,1.8548;}
	.st40{fill:none;stroke:#000000;stroke-width:0.3;stroke-miterlimit:10;stroke-dasharray:1.921,1.921;}
	.st41{fill:none;stroke:#000000;stroke-width:0.3;stroke-miterlimit:10;stroke-dasharray:1.3183,1.3183;}
	.st42{fill:none;stroke:#000000;stroke-width:0.2;stroke-miterlimit:10;}
	.st43{opacity:0.6;}
	.st44{fill:#8FFFAC;stroke:#8FFFAC;stroke-width:0.5;stroke-miterlimit:10;}
	.st45{fill:#9988FF;stroke:#9988FF;stroke-width:0.5;stroke-miterlimit:10;}
	.st46{opacity:0.7;}
	.st47{fill:none;stroke:#000000;stroke-width:0.3;stroke-miterlimit:10;stroke-dasharray:1.9042,1.9042;}
	.st48{fill:none;stroke:#000000;stroke-width:0.3;stroke-miterlimit:10;stroke-dasharray:2.071,2.071;}
	.st49{fill:none;stroke:#000000;stroke-width:0.3;stroke-miterlimit:10;stroke-dasharray:1.9934,1.9934;}
	.st50{fill:none;stroke:#000000;stroke-width:0.3;stroke-miterlimit:10;stroke-dasharray:1.9933,1.9933;}
	.st51{fill:none;stroke:#000000;stroke-width:0.3;stroke-miterlimit:10;stroke-dasharray:1.9157,1.9157;}
	.st52{fill:none;stroke:#000000;stroke-width:0.3;stroke-miterlimit:10;stroke-dasharray:1.182,1.182;}
	.st53{fill:none;stroke:#000000;stroke-width:0.3;stroke-miterlimit:10;stroke-dasharray:2.031,2.031;}
	.st54{fill:none;stroke:#000000;stroke-width:0.3;stroke-miterlimit:10;stroke-dasharray:1.8736,1.8736;}
	.st55{fill:none;stroke:#000000;stroke-width:0.3;stroke-miterlimit:10;stroke-dasharray:1.8734,1.8734;}
	.st56{fill:none;stroke:#000000;stroke-width:0.3;stroke-miterlimit:10;stroke-dasharray:2.0989,2.0989;}
	.st57{fill:none;stroke:#000000;stroke-width:0.3;stroke-miterlimit:10;stroke-dasharray:2.563,2.563;}
	.st58{fill:none;stroke:#000000;stroke-width:0.3;stroke-miterlimit:10;stroke-dasharray:1.0719,1.0719;}
	.st59{fill:none;stroke:#000000;stroke-width:0.3;stroke-miterlimit:10;stroke-dasharray:2.5414,2.5414;}
	.st60{fill:none;stroke:#000000;stroke-width:0.3;stroke-miterlimit:10;stroke-dasharray:2.5631,2.5631;}
	.st61{fill:none;stroke:#000000;stroke-width:0.3;stroke-miterlimit:10;stroke-dasharray:1.9158,1.9158;}
	.st62{fill:none;stroke:#000000;stroke-width:0.3;stroke-miterlimit:10;stroke-dasharray:1.1353,1.1353;}
	.st63{fill:none;stroke:#000000;stroke-width:0.3;stroke-miterlimit:10;stroke-dasharray:2.0199,2.0199;}
	.st64{fill:none;stroke:#000000;stroke-width:0.3;stroke-miterlimit:10;stroke-dasharray:1.8613,1.8613;}
	.st65{fill:none;stroke:#000000;stroke-width:0.3;stroke-miterlimit:10;stroke-dasharray:1.3667,1.3667;}
	.st66{fill:none;stroke:#000000;stroke-width:0.3;stroke-miterlimit:10;stroke-dasharray:1.3036,1.3036;}
	.st67{fill:none;stroke:#000000;stroke-width:0.3;stroke-miterlimit:10;stroke-dasharray:1.367,1.367;}
	.st68{fill:none;stroke:#000000;stroke-width:0.3;stroke-miterlimit:10;stroke-dasharray:1.3669,1.3669;}
	.st69{fill:none;stroke:#000000;stroke-width:0.3;stroke-miterlimit:10;stroke-dasharray:1.1277,1.1277;}
	.st70{fill:none;stroke:#000000;stroke-width:0.3;stroke-miterlimit:10;stroke-dasharray:2.0546,2.0546;}
	.st71{fill:none;stroke:#000000;stroke-width:0.3;stroke-miterlimit:10;stroke-dasharray:2.5634,2.5634;}
	.st72{fill:none;stroke:#000000;stroke-width:0.3;stroke-miterlimit:10;stroke-dasharray:1.8476,1.8476;}
	.st73{fill:none;stroke:#000000;stroke-width:0.3;stroke-miterlimit:10;stroke-dasharray:2.1702,2.1702;}
	.st74{fill:none;stroke:#000000;stroke-width:0.3;stroke-miterlimit:10;stroke-dasharray:2.2696,2.2696;}
	.st75{fill:none;stroke:#000000;stroke-width:0.3;stroke-miterlimit:10;stroke-dasharray:2.1019,2.1019;}
	.st76{fill:none;stroke:#000000;stroke-width:0.3;stroke-miterlimit:10;stroke-dasharray:1.1356,1.1356;}
	.st77{fill:none;stroke:#000000;stroke-width:0.3;stroke-miterlimit:10;stroke-dasharray:2.0129,2.0129;}
	.st78{fill:none;stroke:#000000;stroke-width:0.3;stroke-miterlimit:10;stroke-dasharray:2.5633,2.5633;}
	.st79{fill:#D00000;stroke:#E70000;stroke-width:0.5;stroke-miterlimit:10;}
</style>
<g id="Map_2">
	<g id="Foundation_Line">
	</g>
	<g id="Dashed_Line">
	</g>
	<g id="Platform_Detail">
	</g>
	<g id="Plants">
	</g>
	<g id="People" class="st43">
	</g>
	<g id="Masters1_x5F_Urban">
		<g id="Layer_14">
		</g>
	</g>
	<g id="Masters1_x5F_Design">
	</g>
	<g id="Masters1_x5F_Structures">
	</g>
	<g id="Masters1_x5F_Conservation">
	</g>
	<g id="Masters2_x5F_Urban">
	</g>
	<g id="Masters2_x5F_Design">
	</g>
	<g id="Masters2_x5F_Structures">
	</g>
	<g id="Masters2_x5F_Conservation">
	</g>
</g>
<g id="Map_1">
	<g id="Foundation_Lines">
		<path class="st0" d="M291.8,343.3l31.1,17.9 M322.9,361.2v3.6 M322.9,364.8l2.6-1.8 M291.8,339.7l6.2,3.6 M354,339.7l-6.2-3.6
			 M322.9,361.2v-3.6 M291.8,343.3v-3.6 M316.7,354l6.2,3.6 M341.6,332.5l-6.2-3.6 M304.3,346.9l6.2,3.6 M335.4,328.9l-6.2-3.6
			 M298.1,343.3l6.2,3.6 M329.1,325.3l-6.2-3.6 M347.8,336.1l-6.2-3.6 M310.5,350.4l6.2,3.6 M758,253.5l-6.2-3.6 M733.2,239.2
			l-6.2-3.6 M745.6,246.4l-6.2-3.6 M751.8,250l-6.2-3.6 M727,271.5l-3.4-1.9 M739.4,242.8l-6.2-3.6 M602.6,199.7v-3.6 M664.8,163.8
			v-3.6 M540.5,163.8v-3.6 M571.6,433l31.1-17.9 M571.6,436.6V433 M571.6,436.6l-2.6-1.8 M571.6,429.4l6.2-3.6 M571.6,393.5
			l-6.2,3.6 M602.6,415v-3.6 M571.6,433v-3.6 M596.4,415l6.2-3.6 M559.1,400.7l-6.2,3.6 M584,422.2l6.2-3.6 M552.9,404.3l-6.2,3.6
			 M577.8,425.8l6.2-3.6 M565.3,397.1l-6.2,3.6 M590.2,418.6l6.2-3.6 M385.1,429.4v-3.6 M509.4,429.4v-3.6 M447.2,465.3v-3.6
			 M447.2,465.3l-62.1-35.9 M506.3,431.2l3.1,1.8 M509.4,436.6l-5.7-3.9 M509.4,433v3.6 M509.4,436.6l2.6-1.8 M509.4,393.5l-28,16.1
			 M509.4,433v-3.6 M528,404.3l-6.2-3.6 M521.8,400.7l-6.2-3.6 M515.6,397.1l-6.2-3.6 M534.3,407.9l-6.2-3.6 M509.4,188.9l2.6-1.8
			 M509.4,188.9v-3.6 M478.3,167.4l31.1,17.9 M478.3,167.4v-10.8 M478.3,156.7l31.1,17.9 M509.4,174.6l31.1-17.9 M540.5,156.7
			l-31.1-17.9 M509.4,138.7l-31.1,17.9 M537.1,156.7l-27.7-16 M509.4,140.7l-27.7,16 M540.5,206.9l31.1-21.5 M540.5,203.3l31.1-17.9
			 M540.5,206.9v-3.6 M509.4,185.4l31.1,17.9 M571.6,181.8l-6.2-3.6 M540.5,163.8l-31.1,17.9 M509.4,181.8l6.2,3.6 M540.5,199.7
			l31.1-17.9 M571.6,185.4v-3.6 M509.4,185.4v-3.6 M540.5,203.3v-3.6 M546.7,167.4l-6.2-3.6 M521.8,188.9l6.2,3.6 M559.1,174.6
			l-6.2-3.6 M528,192.5l6.2,3.6 M565.3,178.2l-6.2-3.6 M534.3,196.1l6.2,3.6 M515.6,185.4l6.2,3.6 M552.9,171l-6.2-3.6 M602.6,415
			l31.1-17.9 M602.6,418.6V415 M602.6,418.6l-2.6-1.8 M633.7,393.5l-6.2-3.6 M602.6,375.6l-31.1,17.9 M571.6,393.5l6.2,3.6
			 M602.6,411.4l31.1-17.9 M633.7,397.1v-3.6 M608.9,379.2l-6.2-3.6 M584,400.7l6.2,3.6 M621.3,386.3l-6.2-3.6 M590.2,404.3l6.2,3.6
			 M627.5,389.9l-6.2-3.6 M596.4,407.9l6.2,3.6 M577.8,397.1l6.2,3.6 M615.1,382.7l-6.2-3.6 M664.8,379.2l31.1-17.9 M664.8,382.7
			v-3.6 M664.8,382.7l-2.6-1.8 M695.9,357.6l-6.2-3.6 M664.8,339.7l-31.1,17.9 M633.7,357.6l6.2,3.6 M664.8,375.6l31.1-17.9
			 M695.9,361.2v-3.6 M664.8,379.2v-3.6 M671,343.3l-6.2-3.6 M646.1,364.8l6.2,3.6 M683.4,350.4l-6.2-3.6 M652.4,368.4l6.2,3.6
			 M689.7,354l-6.2-3.6 M658.6,372l6.2,3.6 M639.9,361.2l6.2,3.6 M677.2,346.9l-6.2-3.6 M758,296.6V293 M760.6,294.8l-2.6,1.8
			 M758,296.6l-2.6-1.8 M782.9,267.9L758,253.5 M758,253.5l-6.2,3.6 M758,293v-3.6 M745.6,260.7l-6.2,3.6 M739.4,264.3l-6.2,3.6
			 M733.2,267.9l-6.2,3.6 M751.8,257.1l-6.2,3.6 M727,311l31.1-17.9 M727,314.6V311 M758,289.4l-6.2-3.6 M727,271.5l-31.1,17.9
			 M695.9,289.4l6.2,3.6 M727,307.4l31.1-17.9 M727,311v-3.6 M733.2,275.1l-6.2-3.6 M708.3,296.6l6.2,3.6 M745.6,282.3l-6.2-3.6
			 M714.5,300.2l6.2,3.6 M751.8,285.8l-6.2-3.6 M720.7,303.8l6.2,3.6 M702.1,293l6.2,3.6 M739.4,278.7l-6.2-3.6 M672.6,162.9
			l31.1-21.5 M672.6,159.3l31.1-17.9 M672.6,162.9v-3.6 M672.6,162.9l-31.1-21.5 M641.5,141.4l31.1,17.9 M703.6,137.8l-6.2-3.6
			 M672.6,119.9l-31.1,17.9 M647.7,141.4l-6.2-3.6 M672.6,155.8l31.1-17.9 M703.6,141.4v-3.6 M641.5,141.4v-3.6 M672.6,159.3v-3.6
			 M678.8,123.5l-6.2-3.6 M660.1,148.6l-6.2-3.6 M691.2,130.6L685,127 M660.1,148.6l6.2,3.6 M697.4,134.2l-6.2-3.6 M666.4,152.2
			l6.2,3.6 M647.7,141.4l6.2,3.6 M685,127l-6.2-3.6 M633.7,289.4v-3.6 M633.7,289.4l-62.2-35.9 M571.6,253.5v-3.6 M540.5,450.9
			l31.1-17.9 M509.4,433l31.1,17.9 M540.5,450.9v3.6 M540.5,450.9v-10.8 M509.4,422.2l31.1,17.9 M540.5,440.2l31.1-17.9
			 M540.5,406.2l-27.7,16 M568.2,422.2l-27.7-16 M700.4,250.9l1.7-1 M727,235.6l-31.1-17.9 M695.9,217.7l-6.2,3.6 M720.7,239.2
			l6.2-3.6 M683.4,224.8l-6.2,3.6 M708.3,246.4l6.2-3.6 M677.2,228.4L671,232 M702.1,250l6.2-3.6 M671,232l-3.1,1.8 M689.7,221.2
			l-6.2,3.6 M714.5,242.8l6.2-3.6 M289.3,345.1l2.6,1.8 M291.8,346.9l2.6-1.8 M291.8,346.9v-3.6 M291.8,303.8l-6.2,3.6 M291.8,339.7
			l6.2-3.6 M322.9,321.7l-31.1-17.9 M304.3,332.5l6.2-3.6 M310.5,328.9l6.2-3.6 M322.9,321.7l-6.2,3.6 M298.1,336.1l6.2-3.6
			 M385.1,397.1l24.9,14.4 M416.2,375.6l-6.2,3.6 M385.1,393.5l28,16.1 M444.1,391.7l-28-16.1 M385.1,397.1v-3.6 M391.3,389.9
			l-6.2,3.6 M397.5,386.3l6.2-3.6 M409.9,379.2l-6.2,3.6 M397.5,386.3l-6.2,3.6 M758,221.2l31.1,17.9 M789.1,239.2l31.1-17.9
			 M820.2,221.2l-31.1-17.9 M789.1,264.3v-25.1 M820.2,253.5v-32.3 M354,339.7v-3.6 M478.3,339.7v-3.6 M478.3,339.7l-62.2,35.9
			 M416.2,375.6V372 M322.9,321.7v-7.2 M385.1,318.1v-3.6 M385.1,314.6L354,296.7 M354,296.6l-31.1,17.9 M322.9,314.6l31.1,17.9
			 M354,332.5l31.1-17.9 M354,298.6l-27.7,16 M381.7,314.6l-27.7-16 M322.9,361.2l31.1,17.9 M354,382.7l2.6-1.8 M354,382.7v-3.6
			 M354,339.7l-6.2,3.6 M322.9,357.6l31.1,17.9 M354,375.6l6.2-3.6 M385.1,357.6L354,339.7 M354,379.2v-3.6 M329.1,354l-6.2,3.6
			 M366.4,368.4l6.2-3.6 M341.6,346.9l-6.2,3.6 M372.7,364.8l6.2-3.6 M347.8,343.3l-6.2,3.6 M378.9,361.2l6.2-3.6 M360.2,372
			l6.2-3.6 M335.4,350.4l-6.2,3.6 M695.9,217.7l-6.2-3.6 M671,203.3l-6.2-3.6 M683.4,210.5l-6.2-3.6 M689.7,214.1l-6.2-3.6
			 M677.2,206.9l-6.2-3.6 M354,379.2l31.1,17.9 M385.1,397.1v3.6 M385.1,400.7l2.6-1.8 M360.2,379.2l-6.2-3.6 M416.2,375.6L410,372
			 M378.9,389.9l6.2,3.6 M403.7,368.4l-6.2-3.6 M366.4,382.7l6.2,3.6 M397.5,364.8l-6.2-3.6 M366.4,382.7l-6.2-3.6 M391.3,361.2
			l-6.2-3.6 M409.9,372l-6.2-3.6 M372.7,386.3l6.2,3.6 M377.3,469.8l31.1-17.9 M346.2,451.8l31.1,17.9 M377.3,473.4l-31.1-21.5
			 M377.3,469.8v3.6 M377.3,473.4l31.1-21.5 M346.2,448.2l6.2,3.6 M377.3,466.2l31.1-17.9 M408.4,448.2l-6.2-3.6 M377.3,430.3
			l-31.1,17.9 M377.3,469.8v-3.6 M346.2,451.8v-3.6 M408.4,451.8v-3.6 M371.1,462.6l6.2,3.6 M396,441.1l-6.2-3.6 M358.7,455.4
			l6.2,3.6 M389.7,437.5l-6.2-3.6 M352.5,451.8l6.2,3.6 M377.3,430.3l6.2,3.6 M402.2,444.6L396,441 M364.9,459l6.2,3.6 M509.4,357.6
			V354 M633.7,357.6V354 M571.6,393.5v-3.6 M571.6,393.5l-62.2-35.9 M664.8,271.5l31.1,17.9 M664.8,275.1v-3.6 M664.8,275.1l28,16.1
			 M690.2,292.7l-25.4-17.6 M668.2,269.5l-3.4,1.9 M668.2,271.5l27.7,16 M695.9,287.5l27.7-16 M695.9,287.5v-7.2 M633.7,397.1
			l31.1-17.9 M633.7,400.7v-3.6 M633.7,400.7l-2.6-1.8 M633.7,393.5l6.2-3.6 M633.7,357.6l-6.2,3.6 M658.6,379.2l6.2-3.6
			 M621.3,364.8l-6.2,3.6 M646.1,386.3l6.2-3.6 M615.1,368.4l-6.2,3.6 M639.9,389.9l6.2-3.6 M608.9,372l-6.2,3.6 M627.5,361.2
			l-6.2,3.6 M652.4,382.7l6.2-3.6 M229.7,343.3l31.1,17.9 M260.8,361.2v3.6 M260.8,361.2l31.1-17.9 M260.8,364.8l-31.1-21.5
			 M260.8,293l-31.1,17.9 M229.7,311l31.1,17.9 M260.8,328.9l31.1-17.9 M229.7,343.3V311 M260.8,361.2v-32.3 M693.3,363l2.6,1.8
			 M695.9,364.8l31.1-21.5 M695.9,364.8v-3.6 M695.9,361.2l31.1-17.9 M664.8,339.7v-6.5 M720.7,311l6.2-3.6 M689.7,293l31.1,17.9
			 M695.9,351.2l6.2-3.6 M671,329.6l31.1,17.9 M671,329.6l-6.2,3.6 M664.8,333.2l31.1,17.9 M702.1,341.1v6.5 M671,323.2v6.5
			 M702.1,341.1l6.2-3.6 M677.2,319.6l31.1,17.9 M677.2,319.6l-6.2,3.6 M671,323.2l31.1,17.9 M708.3,331.1v6.5 M677.2,313.1v6.5
			 M708.3,331.1l6.2-3.6 M683.4,309.5l31.1,17.9 M683.4,309.5l-6.2,3.6 M677.2,313.1l31.1,17.9 M714.5,321v6.5 M683.4,303.1v6.5
			 M714.5,321l6.2-3.6 M689.7,299.5l31.1,17.9 M689.7,299.5l-6.2,3.6 M683.4,303.1l31.1,17.9 M720.7,311v6.5 M689.7,293v6.5
			 M882.4,325.3l-6.3,3.6 M885.5,359.4l3.1-1.8 M913.4,343.3l-31.1-17.9 M857.5,339.7l-3.1,1.8 M894.8,354l6.2-3.6 M869.9,332.5
			l-6.2,3.6 M901,350.4l6.2-3.6 M876.1,328.9l-6.2,3.6 M907.2,346.9l6.2-3.6 M888.6,357.6l6.2-3.6 M863.7,336.1l-6.2,3.6
			 M913.4,386.3l2.6-1.8 M913.4,386.3v-3.6 M913.4,386.3l-5.7-3.9 M910.3,380.9l3.1,1.8 M913.4,382.7v-3.6 M919.6,346.9l-6.2-3.6
			 M932.1,354l-6.2-3.6 M938.3,357.6l-6.2-3.6 M925.9,350.4l-6.2-3.6 M789.1,311l31.1,17.9 M820.2,332.5l2.6-1.8 M820.2,332.5v-3.6
			 M820.2,289.4L814,293 M789.1,307.4l31.1,17.9 M820.2,325.3l6.2-3.6 M789.1,311v-3.6 M820.2,328.9v-3.6 M795.3,303.8l-6.2,3.6
			 M832.6,318.1l6.2-3.6 M807.8,296.6l-6.2,3.6 M838.8,314.6l6.2-3.6 M814,293l-6.2,3.6 M845.1,311l6.2-3.6 M826.4,321.7l6.2-3.6
			 M801.5,300.2l-6.2,3.6 M975.6,307.4v-3.6 M975.6,307.4l-62.2,35.9 M913.4,343.3v-3.6 M851.3,307.4v-3.6 M825.8,292.7l25.4-17.6
			 M823.3,291.2l28-16.1 M820.2,253.5l-6.2,3.6 M820.2,289.4l6.2-3.6 M851.3,271.5l-31.1-17.9 M851.3,275.1v-3.6 M832.6,282.3
			l6.2-3.6 M807.8,260.7l-6.2,3.6 M838.8,278.7l6.2-3.6 M814,257.1l-6.2,3.6 M845.1,275.1l6.2-3.6 M826.4,285.8l6.2-3.6
			 M801.5,264.3l-6.2,3.6 M820.2,328.9l24.9,14.4 M882.4,325.3l-6.2-3.6 M820.2,325.3l6.2,3.6 M857.5,311l-6.2-3.6 M832.6,332.5
			l6.2,3.6 M869.9,318.1l-6.2-3.6 M838.8,336.1l6.2,3.6 M876.1,321.7l-6.2-3.6 M845.1,339.7l3.1,1.8 M826.4,328.9l6.2,3.6
			 M863.7,314.6l-6.2-3.6 M450.4,284.1l28-16.1 M478.3,267.9l-25.4,17.6 M416.2,267.9l28,16.1 M441.6,285.5l-25.4-17.6 M447.2,282.3
			l6.2-3.6 M478.3,264.3l-31.1-17.9 M447.2,246.4L441,250 M416.2,264.3l31.1,17.9 M478.3,267.9v-3.6 M416.2,267.9v-3.6 M472.1,267.9
			l6.2-3.6 M434.8,253.5l-6.2,3.6 M459.7,275.1l6.2-3.6 M428.6,257.1l-6.2,3.6 M453.5,278.7l6.2-3.6 M422.4,260.7l-6.2,3.6 M441,250
			l-6.2,3.6 M465.9,271.5l6.2-3.6 M450.4,319.9l28-16.1 M478.3,303.8l-25.4,17.6 M447.2,318.1l6.2-3.6 M478.3,303.8v-3.6
			 M472.1,303.8l6.2-3.6 M428.6,293l6.2-3.6 M459.7,311l6.2-3.6 M428.6,293l-6.2,3.6 M453.5,314.6l6.2-3.6 M422.4,296.6l-6.2,3.6
			 M441,285.8l-6.2,3.6 M465.9,307.4l6.2-3.6 M789.1,379.2v-3.6 M913.4,379.2v-3.6 M851.3,415v-3.6 M851.3,415l-62.2-35.8
			 M781.3,419.5l31.1-17.9 M750.3,401.6l31.1,17.9 M781.3,423.1l-31.1-21.5 M781.3,419.5v3.6 M781.3,423.1l31.1-21.5 M750.3,398
			l6.2,3.6 M781.3,415.9l31.1-17.9 M812.4,398l-6.2-3.6 M781.3,380l-31.1,17.9 M781.3,419.5v-3.6 M750.3,401.6V398 M812.4,401.6V398
			 M775.1,412.3l6.2,3.6 M800,390.8l-6.2-3.6 M762.7,405.2l6.2,3.6 M793.8,387.2l-6.2-3.6 M756.5,401.6l6.2,3.6 M787.6,383.6
			l-6.2-3.6 M806.2,394.4l-6.2-3.6 M768.9,408.8l6.2,3.6 M913.4,382.7l31.1,17.9 M944.5,400.7v3.6 M944.5,404.3l2.6-1.8
			 M944.5,400.7v-10.8 M956.9,361.2l-12.4-7.2 M913.4,372l31.1,17.9 M944.5,356l-27.7,16 M955.3,362.2l-10.7-6.2 M758,293l31.1,17.9
			 M789.1,314.6l2.6-1.8 M789.1,314.6V311 M820.2,289.4v-7.2 M789.1,300.2l31.1-17.9 M758,282.3l31.1,17.9 M789.1,266.3l-27.7,16
			 M816.8,282.3l-27.7-16 M758,253.5v-10.8 M727,235.6v-10.8 M770.5,214.1l-12.4-7.2 M758,206.9l-31.1,17.9 M727,224.8l31.1,17.9
			 M758,208.8l-27.7,16 M758,208.8l10.7,6.2 M695.9,217.7v-10.8 M758,206.9l-31-18 M727,188.9l-31.1,18 M695.9,206.9l31.1,17.9
			 M727,190.9l-27.7,16 M754.7,206.9l-27.7-16 M975.6,422.2v-3.6 M944.5,400.7l31.1,17.9 M975.6,418.6l31.1-17.9 M975.6,422.2
			l31.1-21.5 M944.5,368.4l31.1,17.9 M975.6,386.3l31.1-17.9 M1006.7,368.4l-31.1-17.9 M975.6,418.6v-32.3 M1006.7,400.7v-32.3
			 M478.3,171v-3.6 M447.2,149.5l31.1,17.9 M478.3,171l-31.1-21.5 M478.3,171l2.6-1.8 M478.3,135.1l-31.1-17.9 M478.3,135.1
			l31.1-17.9 M509.4,117.2l-31.1-17.9 M478.3,99.2l-31.1,17.9 M447.2,149.5v-32.3 M509.4,138.7v-21.5 M602.6,203.3l24.9,14.4
			 M625.2,219l-22.6-15.7 M636.8,215.9l3.1-1.8 M664.8,199.7l-31.1-17.9 M633.7,181.8l-6.2,3.6 M602.6,199.7l28,16.1 M602.6,203.3
			v-3.6 M658.6,203.3l6.2-3.6 M621.3,188.9l-6.2,3.6 M646.1,210.5l6.2-3.6 M615.1,192.5l-6.2,3.6 M639.9,214.1l6.2-3.6 M608.9,196.1
			l-6.2,3.6 M627.5,185.4l-6.2,3.6 M652.4,206.9l6.2-3.6 M322.9,364.8l-28.5-19.7 M294.4,345.1l-2.6-1.8 M664.8,163.8l-31.1,17.9
			 M602.6,199.7l-31.1-17.9 M602.6,415l-2.6,1.8 M600,416.8l-28.5,19.7 M571.6,422.2l-24.9-14.3 M509.4,429.4l-3.1,1.8 M509.4,188.9
			l-28.5-19.7 M480.9,169.2l-2.6-1.8 M540.5,160.2v-3.6 M509.4,181.8v-7.2 M509.4,172.6l21.5-12.4 M530.9,160.2l6.2-3.6
			 M481.7,156.7l6.2,3.6 M487.9,160.2l21.5,12.4 M540.5,206.9L512,187.2 M512,187.2l-2.6-1.8 M602.6,418.6l28.5-19.7 M631.1,398.9
			l2.6-1.8 M664.8,382.7l28.5-19.7 M693.3,363l2.6-1.8 M727,314.6l28.5-19.7 M755.4,294.8l2.6-1.8 M664.8,271.5l-31.1,17.9
			 M540.5,454.5L512,434.8 M512,434.8l-2.6-1.8 M540.5,454.5l28.5-19.7 M569,434.8l2.6-1.8 M571.6,429.4v-7.2 M546.7,407.9l-6.2-3.6
			 M540.5,404.3l-6.2,3.6 M534.3,407.9l-24.9,14.4 M512.8,422.2l6.2,3.6 M519,425.8l21.5,12.4 M540.5,438.2l21.5-12.4 M562,425.8
			l6.2-3.6 M385.1,397.1l2.6,1.8 M387.7,398.9l20,13.9 M762.6,218.6l-4.5,2.6 M354,336.1v-3.6 M326.3,314.6l6.2,3.6 M332.5,318.1
			l21.5,12.4 M354,330.5l21.5-12.4 M375.5,318.1l6.2-3.6 M322.9,361.2l2.6,1.8 M325.5,363l28.5,19.7 M385.1,400.7l-28.5-19.8
			 M356.6,380.9l-2.6-1.8 M668.2,271.5v-1.9 M723.6,271.5v-1.9 M668.2,264.3l6.2,3.6 M674.4,267.9l21.5,12.4 M695.9,248.3l-1.4,0.8
			 M695.9,280.3l21.5-12.4 M717.4,267.9l6.2-3.6 M664.8,379.2l-2.6,1.8 M662.2,380.9l-28.5,19.7 M260.8,364.8l28.5-19.7
			 M289.3,345.1l2.6-1.8 M291.8,311l-6.2-3.6 M285.6,307.4L260.7,293 M695.9,289.4l-3.1,1.8 M695.9,357.6v-6.5 M727,343.3v-28.7
			 M938.3,357.6L913.4,372 M789.1,311l2.6,1.8 M791.7,312.8l28.5,19.7 M851.3,307.4l-25.4-14.7 M842.8,344.6l-20-13.9 M822.8,330.7
			l-2.6-1.8 M450.4,284.1l-3.1-1.8 M441.6,285.5l-0.6,0.3 M907.8,382.4L851.3,415 M944.5,404.3L916,384.6 M916,384.5l-2.6-1.8
			 M944.5,354l-6.2,3.6 M916.8,372l6.2,3.6 M923,375.6l21.5,12.4 M758,293l2.6,1.8 M760.6,294.8l28.5,19.7 M758,289.4v-7.2
			 M789.1,307.4v-7.2 M820.2,282.3l-24.9-14.4 M795.3,267.9l-6.2-3.6 M789.1,264.3l-6.2,3.6 M789.1,298.3l21.5-12.4 M810.6,285.8
			l6.2-3.6 M761.4,282.3l6.2,3.6 M767.6,285.8l21.5,12.4 M730.3,224.8l6.2,3.6 M758,240.8l-21.5-12.4 M699.3,206.9l6.2,3.6
			 M705.5,210.5l21.5,12.4 M727,222.9l21.5-12.4 M748.4,210.5l6.2-3.6 M975.6,422.2l-28.5-19.7 M947.1,402.5l-2.6-1.8 M949,365.8
			l-4.5,2.6 M478.3,156.7v-21.5 M506.3,431.2l-2.5,1.5 M503.8,432.7l-56.5,32.6 M509.4,425.8v-3.6 M789.1,203.3l-18.6,10.8
			 M758,242.8v-2 M758,240.8v-19.6 M668.2,269.5v-3.6 M723.6,269.5v-3.3 M723.6,266.3v-1.9 M712.8,258.1l-6.2-3.6 M706.6,254.5
			l-6.2-3.6 M700.4,250.9l-4.5-2.6 M291.8,339.7v-7.2 M291.8,332.5v-7.2 M692.8,291.2l-2.5,1.5 M690.2,292.7l-0.6,0.3 M825.8,292.7
			l-2.5-1.5 M823.3,291.2l-3.1-1.8 M478.3,300.2l-25.4-14.7 M450.4,284.1l2.5,1.5 M447.2,282.3l-3.1,1.8 M444.1,284.1l-2.5,1.5
			 M913.4,379.2l-3.1,1.8 M910.3,380.9l-2.5,1.5 M913.4,375.6V372 M782.9,267.9l-6.2,3.6 M955.3,362.2l-6.2,3.6 M944.5,389.9V388
			 M944.5,388v-19.6 M770.5,214.1l-1.7,1 M768.8,215l-6.2,3.6 M723.6,264.3l-4.5-2.6 M719.1,261.7l-6.2-3.6 M291.8,325.3v-7.2
			 M291.8,318.1v-7.2 M776.7,271.5l-6.2,3.6 M975.6,350.4L957,361.2 M956.9,361.2l-1.7,1 M770.5,275.1l-6.2,3.6 M764.3,278.7
			l-6.2,3.6 M727,317.1v-2.5 M727,317.1v-2.5 M727,317.1v-2.5 M727,317.1v-2.5 M727,317.1v-2.5"/>
	</g>
	<g id="Dashed_Lines">
		<g class="st46">
			<path d="M322.9,361.2v42 M322.9,364.8l-31.1,20.5 M291.8,385.3v-42 M322.9,367.3l-31.1,17.9 M291.8,385.3l31.1,17.9 M260.8,367.3
				l31.1-20.5 M322.9,367.3l-31.1-20.4 M322.9,367.3l-31.1-17.9 M291.8,349.4l-31.1,17.9 M260.8,364.8l31.1,20.5 M260.8,364.8
				l-31.1,20.5 M260.8,403.2v-38.4 M260.8,367.3l-31.1,17.9 M260.8,403.2l31.1-17.9 M229.7,385.3l31.1,17.9 M322.9,364.8l31.1,20.5
				 M354,385.3l4.8-2.8 M322.9,367.3l31.1,17.9 M354,382.7v38.4 M322.9,403.2l31.1-20.5 M385.1,403.2L354,382.7 M385.1,403.2
				L354,385.3 M322.9,403.2l31.1,17.9 M354,421.1l31.1-17.9 M354,385.3l-31.1,17.9 M385.1,400.7l20.3,13.4 M385.1,400.7L354,421.2
				 M404.7,414.5l-19.6-11.3 M354,421.1l19.6,11.3 M291.8,385.3l-31.1-17.9 M229.7,385.3v-42 M354,385.3l-31.1-17.9 M385.1,397.1
				v37.7 M377.3,473.4l31.1,20.5 M377.3,473.4l-31.1,20.5 M377.3,511.8v-38.4 M408.4,493.8v-42 M377.3,475.9v-2.5 M346.2,493.8v-42
				 M377.3,475.9v-2.5 M377.3,475.9l-31.1,17.9 M377.3,469.8v42 M377.3,511.8l31.1-17.9 M408.4,493.8l-31.1-17.9 M346.2,493.8
				l31.1,17.9 M416.2,447.3v9.7 M388.6,436.8l4.4-2.9 M416.2,457v-9.7 M407.8,452.2l8.3,4.8 M424.6,452.2l-8.4,4.8 M540.5,492.9
				v-38.4 M540.5,450.9v42 M540.5,492.9l31.1-17.9 M509.4,475l31.1,17.9 M509.4,436.6l31.1,20.5 M509.4,436.6l-31.1,20.5 M509.4,475
				v-38.4 M478.3,457v-9.7 M509.4,439.1L478.3,457 M509.4,475l31.1-17.9 M540.5,457l-31.1-17.9 M478.3,457l31.1,17.9 M540.5,454.5
				L509.4,475 M571.6,436.6V475 M540.5,457l31.1,17.9 M571.6,475l31.1-17.9 M540.5,454.5l31.1,20.5 M602.6,457l-31.1-20.5
				 M540.5,457l31.1-20.5 M602.6,415v42 M602.6,457l-31.1-17.9 M571.6,439.1L540.5,457 M602.6,418.6l-31.1,20.5 M602.6,418.6
				l31.1,20.5 M602.6,457l31.1-17.9 M602.6,421.1L571.5,439 M571.6,439.1l31.1,17.9 M633.7,439.1l-31.1-17.9 M602.6,421.1l31.1,17.9
				 M633.7,439.1v-42 M664.8,382.7l-31.1,20.5 M664.8,382.7l31.1,20.5 M664.8,421.1v-38.4 M695.9,403.2v-42 M664.8,421.1l31.1-17.9
				 M664.8,385.3l-31.1,17.9 M633.7,403.2l31.1,17.9 M695.9,403.2l-31.1-17.9 M664.8,421.1l-31.1-20.5 M602.6,421.1l31.1-20.5
				 M664.8,421.1l-31.1-17.9 M633.7,403.2l-31.1,17.9 M633.7,439.1l31.1-17.9 M664.8,385.3l31.1-20.5 M727,385.3l-31.1-20.5
				 M727,385.3v-42 M727,385.3l-31.1-17.9 M664.8,385.3l31.1,17.9 M695.9,403.2l31.1-17.9 M695.9,367.3l-31.1,17.9 M781.3,423.1
				l31.1,20.5 M781.3,423.1l-31.1,20.5 M781.3,461.5v-38.4 M812.4,443.6v-42 M781.3,425.6v-2.5 M750.3,443.6v-42 M781.3,425.6v-2.5
				 M781.3,425.6l-31.1,17.9 M781.3,419.5v42 M781.3,461.5l31.1-17.9 M812.4,443.6l-31.1-17.9 M750.3,443.6l31.1,17.9 M478.3,309.9
				l-4.5-3 M416.2,300.2v-32.3 M478.3,267.9v32.3 M478.3,309.9l-4.8-2.8 M455.6,323l22.7-13.1 M447.2,357.6v6.1 M478.3,345.8
				l-4.9-3.2 M447.2,363.7v-6.1 M442,360.7l5.3,3 M478.3,303.8v32.3 M478.3,339.7v6.1 M478.3,345.8l-5.3-3.1 M447.2,363.7l31.1-17.9
				 M509.4,188.9l-31.1,20.5 M509.4,188.9l31.1,20.5 M478.3,209.4v-42 M509.4,227.3v-38.4 M509.4,227.3l31.1-17.9 M509.4,191.5
				l-31.1,17.9 M478.3,209.4l31.1,17.9 M540.5,209.4l-31.1-17.9 M540.5,206.9l-31.1,20.5 M540.5,206.9l31.1,20.5 M540.5,245.3v-38.4
				 M571.6,227.3v-42 M540.5,245.3l31.1-17.9 M509.4,227.3l31.1,17.9 M571.6,227.3l-31.1-17.9 M478.3,171l-31.1,20.5 M478.3,171
				l31.1,20.5 M447.2,191.5v-42 M478.3,173.5l-31.1,17.9 M447.2,191.5l31.1,17.9 M509.4,191.5l-31.1-17.9 M672.6,162.9l-31.1,20.5
				 M672.6,162.9l31.1,20.5 M641.5,183.4v-6.1 M672.6,201.3v-38.4 M703.6,183.4v-42 M672.6,201.3v-42 M672.6,201.3l31.1-17.9
				 M672.6,165.4l-31.1,17.9 M641.5,183.4l31.1,17.9 M703.6,183.4l-31.1-17.9 M641.5,146.8v-5.4 M602.6,232v-28.7 M664.8,281.2v-6.1
				 M664.8,281.2l24.9,14.4 M669.6,278.4l-4.8,2.8 M664.8,281.2v-6.1 M664.8,281.2v-6.1 M664.8,281.2l4.8-2.8 M656.4,276.3l8.4,4.8
				 M683.4,304.8l-18.6,12.3 M664.8,317.1v-42 M683.4,306.3l-18.6,10.8 M664.8,317.1l8.4,4.8 M851.3,303.8v-28.7 M758,296.6V335
				 M727,317.1l31.1,17.9 M758,335l31.1-17.9 M727,314.6l31.1,20.5 M727,353v-38.4 M727,353v-42 M727,353l31.1-17.9 M719.3,348.5
				l7.6,4.4 M789.1,353l31.1-20.5 M789.1,311v42 M789.1,353l19.6,11.3 M820.2,335l-31.1,18 M758,335l31.1-20.5 M758,335l31.1,17.9
				 M789.1,317.1L758,299.2 M820.2,332.5v25.1 M840.5,345.9l-20.3-13.4 M839.8,346.3L820.2,335 M789.1,317.1l31.1,17.9 M820.2,335
				l4.8-2.8 M793.9,314.3l-4.8,2.8 M820.2,335l-31.1-20.4 M727,317.1l31.1-17.9 M753.5,296.2l4.5,3 M758.9,296l20.9,12.1
				 M913.4,424.7v-38.4 M913.4,424.7l31.1-17.9 M882.4,406.8l31.1,17.9 M944.5,404.3l31.1,20.5 M944.5,404.3l-31.1,20.5
				 M944.5,442.7v-38.4 M975.6,424.7v-2.5 M944.5,442.7l31.1-17.9 M975.6,424.7l-31.1-17.9 M913.4,424.7l31.1,17.9 M975.6,422.2
				l-31.1,20.5 M975.6,422.2l31.1,20.5 M975.6,424.7v-2.5 M975.6,460.6v-38.4 M1006.7,442.7v-42 M975.6,460.6l31.1-17.9
				 M975.6,422.2v2.5 M944.5,442.7l31.1,17.9 M1006.7,442.7l-31.1-17.9 M913.4,388.8v-2.5 M913.4,388.8L905,384 M882.4,406.8
				l31.1-17.9 M913.4,386.3l-31.1,20.5 M913.4,386.3l31.1,20.5 M913.4,388.8v-2.5 M913.4,386.3v2.5 M944.5,406.8l-31.1-17.9
				 M882.4,397.1v9.7 M882.4,406.8v-9.7 M874,401.9l8.4,4.8 M882.4,406.8v-9.7"/>
			<g>
				<g>
					<line class="st1" x1="322.9" y1="361.2" x2="322.9" y2="362.2"/>
					<line class="st47" x1="322.9" y1="364.1" x2="322.9" y2="401.2"/>
					<line class="st1" x1="322.9" y1="402.2" x2="322.9" y2="403.2"/>
				</g>
				<g>
					<line class="st1" x1="322.9" y1="364.8" x2="322.1" y2="365.3"/>
					<line class="st48" x1="320.4" y1="366.5" x2="293.5" y2="384.1"/>
					<line class="st1" x1="292.7" y1="384.7" x2="291.8" y2="385.3"/>
				</g>
				<g>
					<line class="st1" x1="291.8" y1="385.3" x2="291.8" y2="384.3"/>
					<line class="st47" x1="291.8" y1="382.3" x2="291.8" y2="345.2"/>
					<line class="st1" x1="291.8" y1="344.3" x2="291.8" y2="343.3"/>
				</g>
				<g>
					<line class="st1" x1="322.9" y1="367.3" x2="322.1" y2="367.8"/>
					<line class="st49" x1="320.3" y1="368.8" x2="293.6" y2="384.3"/>
					<line class="st1" x1="292.7" y1="384.8" x2="291.8" y2="385.3"/>
				</g>
				<g>
					<line class="st1" x1="291.8" y1="385.3" x2="292.7" y2="385.8"/>
					<line class="st50" x1="294.4" y1="386.7" x2="321.2" y2="402.2"/>
					<line class="st1" x1="322.1" y1="402.7" x2="322.9" y2="403.2"/>
				</g>
				<g>
					<line class="st1" x1="260.8" y1="367.3" x2="261.6" y2="366.8"/>
					<line class="st48" x1="263.3" y1="365.6" x2="290.1" y2="348"/>
					<line class="st1" x1="291" y1="347.4" x2="291.8" y2="346.9"/>
				</g>
				<g>
					<line class="st1" x1="322.9" y1="367.3" x2="322.1" y2="366.8"/>
					<line class="st48" x1="320.4" y1="365.6" x2="293.5" y2="348"/>
					<line class="st1" x1="292.7" y1="347.4" x2="291.8" y2="346.9"/>
				</g>
				<g>
					<line class="st1" x1="322.9" y1="367.3" x2="322.1" y2="366.8"/>
					<line class="st50" x1="320.3" y1="365.8" x2="293.6" y2="350.4"/>
					<line class="st1" x1="292.7" y1="349.9" x2="291.8" y2="349.4"/>
				</g>
				<g>
					<line class="st1" x1="291.8" y1="349.4" x2="291" y2="349.9"/>
					<line class="st50" x1="289.3" y1="350.9" x2="262.5" y2="366.3"/>
					<line class="st1" x1="261.6" y1="366.8" x2="260.8" y2="367.3"/>
				</g>
				<g>
					<line class="st1" x1="260.8" y1="364.8" x2="261.6" y2="365.3"/>
					<line class="st48" x1="263.3" y1="366.5" x2="290.1" y2="384.1"/>
					<line class="st1" x1="291" y1="384.7" x2="291.8" y2="385.3"/>
				</g>
				<g>
					<line class="st1" x1="260.8" y1="364.8" x2="259.9" y2="365.3"/>
					<line class="st48" x1="258.2" y1="366.5" x2="231.4" y2="384.1"/>
					<line class="st1" x1="230.5" y1="384.7" x2="229.7" y2="385.3"/>
				</g>
				<g>
					<line class="st1" x1="260.8" y1="403.2" x2="260.8" y2="402.2"/>
					<line class="st51" x1="260.8" y1="400.3" x2="260.8" y2="366.8"/>
					<line class="st1" x1="260.8" y1="365.8" x2="260.8" y2="364.8"/>
				</g>
				<g>
					<line class="st1" x1="260.8" y1="367.3" x2="259.9" y2="367.8"/>
					<line class="st49" x1="258.2" y1="368.8" x2="231.4" y2="384.3"/>
					<line class="st1" x1="230.6" y1="384.8" x2="229.7" y2="385.3"/>
				</g>
				<g>
					<line class="st1" x1="260.8" y1="403.2" x2="261.6" y2="402.7"/>
					<line class="st50" x1="263.4" y1="401.7" x2="290.1" y2="386.3"/>
					<line class="st1" x1="291" y1="385.8" x2="291.8" y2="385.3"/>
				</g>
				<g>
					<line class="st1" x1="229.7" y1="385.3" x2="230.6" y2="385.8"/>
					<line class="st50" x1="232.3" y1="386.7" x2="259" y2="402.2"/>
					<line class="st1" x1="259.9" y1="402.7" x2="260.8" y2="403.2"/>
				</g>
				<g>
					<line class="st1" x1="322.9" y1="364.8" x2="323.8" y2="365.3"/>
					<line class="st48" x1="325.5" y1="366.5" x2="352.3" y2="384.1"/>
					<line class="st1" x1="353.2" y1="384.7" x2="354" y2="385.3"/>
				</g>
				<g>
					<line class="st1" x1="354" y1="385.3" x2="354.9" y2="384.8"/>
					<line class="st52" x1="355.9" y1="384.2" x2="357.4" y2="383.3"/>
					<line class="st1" x1="357.9" y1="383" x2="358.8" y2="382.5"/>
				</g>
				<g>
					<line class="st1" x1="322.9" y1="367.3" x2="323.8" y2="367.8"/>
					<line class="st49" x1="325.5" y1="368.8" x2="352.3" y2="384.3"/>
					<line class="st1" x1="353.1" y1="384.8" x2="354" y2="385.3"/>
				</g>
				<g>
					<line class="st1" x1="354" y1="382.7" x2="354" y2="383.7"/>
					<line class="st51" x1="354" y1="385.7" x2="354" y2="419.2"/>
					<line class="st1" x1="354" y1="420.1" x2="354" y2="421.1"/>
				</g>
				<g>
					<line class="st1" x1="322.9" y1="403.2" x2="323.8" y2="402.6"/>
					<line class="st48" x1="325.5" y1="401.5" x2="352.3" y2="383.9"/>
					<line class="st1" x1="353.2" y1="383.3" x2="354" y2="382.7"/>
				</g>
				<g>
					<line class="st1" x1="385.1" y1="403.2" x2="384.2" y2="402.6"/>
					<line class="st48" x1="382.5" y1="401.5" x2="355.7" y2="383.9"/>
					<line class="st1" x1="354.8" y1="383.3" x2="354" y2="382.7"/>
				</g>
				<g>
					<line class="st1" x1="385.1" y1="403.2" x2="384.2" y2="402.7"/>
					<line class="st50" x1="382.5" y1="401.7" x2="355.7" y2="386.3"/>
					<line class="st1" x1="354.9" y1="385.8" x2="354" y2="385.3"/>
				</g>
				<g>
					<line class="st1" x1="322.9" y1="403.2" x2="323.8" y2="403.7"/>
					<line class="st49" x1="325.5" y1="404.7" x2="352.3" y2="420.1"/>
					<line class="st1" x1="353.1" y1="420.6" x2="354" y2="421.1"/>
				</g>
				<g>
					<line class="st1" x1="354" y1="421.1" x2="354.9" y2="420.6"/>
					<line class="st49" x1="356.6" y1="419.6" x2="383.4" y2="404.2"/>
					<line class="st1" x1="384.2" y1="403.7" x2="385.1" y2="403.2"/>
				</g>
				<g>
					<line class="st1" x1="354" y1="385.3" x2="353.1" y2="385.8"/>
					<line class="st49" x1="351.4" y1="386.7" x2="324.7" y2="402.2"/>
					<line class="st1" x1="323.8" y1="402.7" x2="322.9" y2="403.2"/>
				</g>
				<g>
					<line class="st1" x1="385.1" y1="400.7" x2="385.9" y2="401.2"/>
					<line class="st53" x1="387.6" y1="402.4" x2="403.7" y2="413"/>
					<line class="st1" x1="404.6" y1="413.5" x2="405.4" y2="414.1"/>
				</g>
				<g>
					<line class="st1" x1="385.1" y1="400.7" x2="384.2" y2="401.2"/>
					<line class="st48" x1="382.5" y1="402.4" x2="355.7" y2="420"/>
					<line class="st1" x1="354.8" y1="420.6" x2="354" y2="421.1"/>
				</g>
				<g>
					<line class="st1" x1="404.7" y1="414.5" x2="403.8" y2="414"/>
					<line class="st54" x1="402.2" y1="413.1" x2="386.8" y2="404.2"/>
					<line class="st1" x1="386" y1="403.7" x2="385.1" y2="403.2"/>
				</g>
				<g>
					<line class="st1" x1="354" y1="421.1" x2="354.9" y2="421.6"/>
					<line class="st55" x1="356.5" y1="422.6" x2="371.9" y2="431.5"/>
					<line class="st1" x1="372.7" y1="431.9" x2="373.6" y2="432.4"/>
				</g>
				<g>
					<line class="st1" x1="291.8" y1="385.3" x2="291" y2="384.8"/>
					<line class="st49" x1="289.3" y1="383.8" x2="262.5" y2="368.3"/>
					<line class="st1" x1="261.6" y1="367.8" x2="260.8" y2="367.3"/>
				</g>
				<g>
					<line class="st1" x1="229.7" y1="385.3" x2="229.7" y2="384.3"/>
					<line class="st47" x1="229.7" y1="382.3" x2="229.7" y2="345.2"/>
					<line class="st1" x1="229.7" y1="344.3" x2="229.7" y2="343.3"/>
				</g>
				<g>
					<line class="st1" x1="354" y1="385.3" x2="353.1" y2="384.8"/>
					<line class="st49" x1="351.4" y1="383.8" x2="324.7" y2="368.3"/>
					<line class="st1" x1="323.8" y1="367.8" x2="322.9" y2="367.3"/>
				</g>
				<g>
					<line class="st1" x1="385.1" y1="397.1" x2="385.1" y2="398.1"/>
					<line class="st56" x1="385.1" y1="400.2" x2="385.1" y2="432.7"/>
					<line class="st1" x1="385.1" y1="433.8" x2="385.1" y2="434.8"/>
				</g>
				<g>
					<line class="st1" x1="377.3" y1="473.4" x2="378.2" y2="473.9"/>
					<line class="st48" x1="379.9" y1="475" x2="406.7" y2="492.7"/>
					<line class="st1" x1="407.6" y1="493.3" x2="408.4" y2="493.8"/>
				</g>
				<g>
					<line class="st1" x1="377.3" y1="473.4" x2="376.5" y2="473.9"/>
					<line class="st48" x1="374.7" y1="475" x2="347.9" y2="492.7"/>
					<line class="st1" x1="347.1" y1="493.3" x2="346.2" y2="493.8"/>
				</g>
				<g>
					<line class="st1" x1="377.3" y1="511.8" x2="377.3" y2="510.8"/>
					<line class="st51" x1="377.3" y1="508.8" x2="377.3" y2="475.3"/>
					<line class="st1" x1="377.3" y1="474.4" x2="377.3" y2="473.4"/>
				</g>
				<g>
					<line class="st1" x1="408.4" y1="493.8" x2="408.4" y2="492.8"/>
					<line class="st47" x1="408.4" y1="490.9" x2="408.4" y2="453.8"/>
					<line class="st1" x1="408.4" y1="452.8" x2="408.4" y2="451.8"/>
				</g>
				<g>
					<line class="st1" x1="377.3" y1="475.9" x2="377.3" y2="474.9"/>
					<line class="st1" x1="377.3" y1="474.4" x2="377.3" y2="473.4"/>
				</g>
				<g>
					<line class="st1" x1="346.2" y1="493.8" x2="346.2" y2="492.8"/>
					<line class="st47" x1="346.2" y1="490.9" x2="346.2" y2="453.8"/>
					<line class="st1" x1="346.2" y1="452.8" x2="346.2" y2="451.8"/>
				</g>
				<g>
					<line class="st1" x1="377.3" y1="475.9" x2="377.3" y2="474.9"/>
					<line class="st1" x1="377.3" y1="474.4" x2="377.3" y2="473.4"/>
				</g>
				<g>
					<line class="st1" x1="377.3" y1="475.9" x2="376.4" y2="476.4"/>
					<line class="st50" x1="374.7" y1="477.4" x2="348" y2="492.8"/>
					<line class="st1" x1="347.1" y1="493.3" x2="346.2" y2="493.8"/>
				</g>
				<g>
					<line class="st1" x1="377.3" y1="469.8" x2="377.3" y2="470.8"/>
					<line class="st47" x1="377.3" y1="472.7" x2="377.3" y2="509.8"/>
					<line class="st1" x1="377.3" y1="510.8" x2="377.3" y2="511.8"/>
				</g>
				<g>
					<line class="st1" x1="377.3" y1="511.8" x2="378.2" y2="511.3"/>
					<line class="st49" x1="379.9" y1="510.3" x2="406.7" y2="494.8"/>
					<line class="st1" x1="407.5" y1="494.3" x2="408.4" y2="493.8"/>
				</g>
				<g>
					<line class="st1" x1="408.4" y1="493.8" x2="407.5" y2="493.3"/>
					<line class="st50" x1="405.8" y1="492.3" x2="379" y2="476.9"/>
					<line class="st1" x1="378.2" y1="476.4" x2="377.3" y2="475.9"/>
				</g>
				<g>
					<line class="st1" x1="346.2" y1="493.8" x2="347.1" y2="494.3"/>
					<line class="st49" x1="348.8" y1="495.3" x2="375.6" y2="510.8"/>
					<line class="st1" x1="376.4" y1="511.3" x2="377.3" y2="511.8"/>
				</g>
				<g>
					<line class="st1" x1="416.2" y1="447.3" x2="416.2" y2="448.3"/>
					<line class="st57" x1="416.2" y1="450.9" x2="416.2" y2="454.7"/>
					<line class="st1" x1="416.2" y1="456" x2="416.2" y2="457"/>
				</g>
				<g>
					<line class="st1" x1="388.6" y1="436.8" x2="389.4" y2="436.2"/>
					<line class="st58" x1="390.3" y1="435.7" x2="391.6" y2="434.8"/>
					<line class="st1" x1="392.1" y1="434.5" x2="392.9" y2="433.9"/>
				</g>
				<g>
					<line class="st1" x1="416.2" y1="457" x2="416.2" y2="456"/>
					<line class="st57" x1="416.2" y1="453.5" x2="416.2" y2="449.6"/>
					<line class="st1" x1="416.2" y1="448.3" x2="416.2" y2="447.3"/>
				</g>
				<g>
					<line class="st1" x1="407.8" y1="452.2" x2="408.7" y2="452.7"/>
					<line class="st59" x1="410.9" y1="454" x2="414.2" y2="455.9"/>
					<line class="st1" x1="415.3" y1="456.5" x2="416.2" y2="457"/>
				</g>
				<g>
					<line class="st1" x1="424.6" y1="452.2" x2="423.7" y2="452.7"/>
					<line class="st60" x1="421.5" y1="454" x2="418.1" y2="455.9"/>
					<line class="st1" x1="417" y1="456.5" x2="416.2" y2="457"/>
				</g>
				<g>
					<line class="st1" x1="540.5" y1="492.9" x2="540.5" y2="491.9"/>
					<line class="st51" x1="540.5" y1="490" x2="540.5" y2="456.5"/>
					<line class="st1" x1="540.5" y1="455.5" x2="540.5" y2="454.5"/>
				</g>
				<g>
					<line class="st1" x1="540.5" y1="450.9" x2="540.5" y2="451.9"/>
					<line class="st47" x1="540.5" y1="453.8" x2="540.5" y2="491"/>
					<line class="st1" x1="540.5" y1="491.9" x2="540.5" y2="492.9"/>
				</g>
				<g>
					<line class="st1" x1="540.5" y1="492.9" x2="541.3" y2="492.4"/>
					<line class="st50" x1="543.1" y1="491.4" x2="569.8" y2="476"/>
					<line class="st1" x1="570.7" y1="475.5" x2="571.6" y2="475"/>
				</g>
				<g>
					<line class="st1" x1="509.4" y1="475" x2="510.3" y2="475.5"/>
					<line class="st50" x1="512" y1="476.5" x2="538.8" y2="491.9"/>
					<line class="st1" x1="539.6" y1="492.4" x2="540.5" y2="492.9"/>
				</g>
				<g>
					<line class="st1" x1="509.4" y1="436.6" x2="510.2" y2="437.1"/>
					<line class="st48" x1="512" y1="438.3" x2="538.8" y2="455.9"/>
					<line class="st1" x1="539.6" y1="456.5" x2="540.5" y2="457"/>
				</g>
				<g>
					<line class="st1" x1="509.4" y1="436.6" x2="508.6" y2="437.1"/>
					<line class="st48" x1="506.8" y1="438.3" x2="480" y2="455.9"/>
					<line class="st1" x1="479.2" y1="456.5" x2="478.3" y2="457"/>
				</g>
				<g>
					<line class="st1" x1="509.4" y1="475" x2="509.4" y2="474"/>
					<line class="st61" x1="509.4" y1="472.1" x2="509.4" y2="438.5"/>
					<line class="st1" x1="509.4" y1="437.6" x2="509.4" y2="436.6"/>
				</g>
				<g>
					<line class="st1" x1="478.3" y1="457" x2="478.3" y2="456"/>
					<line class="st57" x1="478.3" y1="453.5" x2="478.3" y2="449.6"/>
					<line class="st1" x1="478.3" y1="448.3" x2="478.3" y2="447.3"/>
				</g>
				<g>
					<line class="st1" x1="509.4" y1="439.1" x2="508.5" y2="439.6"/>
					<line class="st49" x1="506.8" y1="440.6" x2="480.1" y2="456"/>
					<line class="st1" x1="479.2" y1="456.5" x2="478.3" y2="457"/>
				</g>
				<g>
					<line class="st1" x1="509.4" y1="475" x2="510.3" y2="474.5"/>
					<line class="st49" x1="512" y1="473.5" x2="538.8" y2="458"/>
					<line class="st1" x1="539.6" y1="457.5" x2="540.5" y2="457"/>
				</g>
				<g>
					<line class="st1" x1="540.5" y1="457" x2="539.6" y2="456.5"/>
					<line class="st49" x1="537.9" y1="455.5" x2="511.1" y2="440.1"/>
					<line class="st1" x1="510.3" y1="439.6" x2="509.4" y2="439.1"/>
				</g>
				<g>
					<line class="st1" x1="478.3" y1="457" x2="479.2" y2="457.5"/>
					<line class="st49" x1="480.9" y1="458.5" x2="507.7" y2="474"/>
					<line class="st1" x1="508.5" y1="474.5" x2="509.4" y2="475"/>
				</g>
				<g>
					<line class="st1" x1="540.5" y1="454.5" x2="539.6" y2="455.1"/>
					<line class="st48" x1="537.9" y1="456.2" x2="511.1" y2="473.9"/>
					<line class="st1" x1="510.2" y1="474.4" x2="509.4" y2="475"/>
				</g>
				<g>
					<line class="st1" x1="571.6" y1="436.6" x2="571.6" y2="437.6"/>
					<line class="st61" x1="571.6" y1="439.5" x2="571.6" y2="473"/>
					<line class="st1" x1="571.6" y1="474" x2="571.6" y2="475"/>
				</g>
				<g>
					<line class="st1" x1="540.5" y1="457" x2="541.3" y2="457.5"/>
					<line class="st49" x1="543.1" y1="458.5" x2="569.8" y2="474"/>
					<line class="st1" x1="570.7" y1="474.5" x2="571.6" y2="475"/>
				</g>
				<g>
					<line class="st1" x1="571.6" y1="475" x2="572.4" y2="474.5"/>
					<line class="st49" x1="574.2" y1="473.5" x2="600.9" y2="458"/>
					<line class="st1" x1="601.8" y1="457.5" x2="602.6" y2="457"/>
				</g>
				<g>
					<line class="st1" x1="540.5" y1="454.5" x2="541.3" y2="455.1"/>
					<line class="st48" x1="543" y1="456.2" x2="569.9" y2="473.9"/>
					<line class="st1" x1="570.7" y1="474.4" x2="571.6" y2="475"/>
				</g>
				<g>
					<line class="st1" x1="602.6" y1="457" x2="601.8" y2="456.5"/>
					<line class="st48" x1="600.1" y1="455.3" x2="573.3" y2="437.7"/>
					<line class="st1" x1="572.4" y1="437.1" x2="571.6" y2="436.6"/>
				</g>
				<g>
					<line class="st1" x1="540.5" y1="457" x2="541.3" y2="456.5"/>
					<line class="st48" x1="543" y1="455.3" x2="569.9" y2="437.7"/>
					<line class="st1" x1="570.7" y1="437.1" x2="571.6" y2="436.6"/>
				</g>
				<g>
					<line class="st1" x1="602.6" y1="415" x2="602.6" y2="416"/>
					<line class="st47" x1="602.6" y1="417.9" x2="602.6" y2="455.1"/>
					<line class="st1" x1="602.6" y1="456" x2="602.6" y2="457"/>
				</g>
				<g>
					<line class="st1" x1="602.6" y1="457" x2="601.8" y2="456.5"/>
					<line class="st49" x1="600" y1="455.5" x2="573.3" y2="440.1"/>
					<line class="st1" x1="572.4" y1="439.6" x2="571.6" y2="439.1"/>
				</g>
				<g>
					<line class="st1" x1="571.6" y1="439.1" x2="570.7" y2="439.6"/>
					<line class="st49" x1="569" y1="440.6" x2="542.2" y2="456"/>
					<line class="st1" x1="541.3" y1="456.5" x2="540.5" y2="457"/>
				</g>
				<g>
					<line class="st1" x1="602.6" y1="418.6" x2="601.8" y2="419.2"/>
					<line class="st48" x1="600.1" y1="420.3" x2="573.3" y2="438"/>
					<line class="st1" x1="572.4" y1="438.5" x2="571.6" y2="439.1"/>
				</g>
				<g>
					<line class="st1" x1="602.6" y1="418.6" x2="603.5" y2="419.2"/>
					<line class="st48" x1="605.2" y1="420.3" x2="632" y2="438"/>
					<line class="st1" x1="632.9" y1="438.5" x2="633.7" y2="439.1"/>
				</g>
				<g>
					<line class="st1" x1="602.6" y1="457" x2="603.5" y2="456.5"/>
					<line class="st49" x1="605.2" y1="455.5" x2="632" y2="440.1"/>
					<line class="st1" x1="632.9" y1="439.6" x2="633.7" y2="439.1"/>
				</g>
				<g>
					<line class="st1" x1="602.6" y1="421.1" x2="601.8" y2="421.6"/>
					<line class="st50" x1="600" y1="422.6" x2="573.3" y2="438.1"/>
					<line class="st1" x1="572.4" y1="438.6" x2="571.6" y2="439.1"/>
				</g>
				<g>
					<line class="st1" x1="571.6" y1="439.1" x2="572.4" y2="439.6"/>
					<line class="st49" x1="574.2" y1="440.6" x2="600.9" y2="456"/>
					<line class="st1" x1="601.8" y1="456.5" x2="602.6" y2="457"/>
				</g>
				<g>
					<line class="st1" x1="633.7" y1="439.1" x2="632.9" y2="438.6"/>
					<line class="st50" x1="631.1" y1="437.6" x2="604.4" y2="422.1"/>
					<line class="st1" x1="603.5" y1="421.6" x2="602.6" y2="421.1"/>
				</g>
				<g>
					<line class="st1" x1="602.6" y1="421.1" x2="603.5" y2="421.6"/>
					<line class="st50" x1="605.2" y1="422.6" x2="632" y2="438.1"/>
					<line class="st1" x1="632.9" y1="438.6" x2="633.7" y2="439.1"/>
				</g>
				<g>
					<line class="st1" x1="633.7" y1="439.1" x2="633.7" y2="438.1"/>
					<line class="st47" x1="633.7" y1="436.2" x2="633.7" y2="399"/>
					<line class="st1" x1="633.7" y1="398.1" x2="633.7" y2="397.1"/>
				</g>
				<g>
					<line class="st1" x1="664.8" y1="382.7" x2="664" y2="383.3"/>
					<line class="st48" x1="662.2" y1="384.4" x2="635.4" y2="402.1"/>
					<line class="st1" x1="634.6" y1="402.6" x2="633.7" y2="403.2"/>
				</g>
				<g>
					<line class="st1" x1="664.8" y1="382.7" x2="665.6" y2="383.3"/>
					<line class="st48" x1="667.4" y1="384.4" x2="694.2" y2="402.1"/>
					<line class="st1" x1="695" y1="402.6" x2="695.9" y2="403.2"/>
				</g>
				<g>
					<line class="st1" x1="664.8" y1="421.1" x2="664.8" y2="420.1"/>
					<line class="st51" x1="664.8" y1="418.2" x2="664.8" y2="384.7"/>
					<line class="st1" x1="664.8" y1="383.7" x2="664.8" y2="382.7"/>
				</g>
				<g>
					<line class="st1" x1="695.9" y1="403.2" x2="695.9" y2="402.2"/>
					<line class="st47" x1="695.9" y1="400.3" x2="695.9" y2="363.2"/>
					<line class="st1" x1="695.9" y1="362.2" x2="695.9" y2="361.2"/>
				</g>
				<g>
					<line class="st1" x1="664.8" y1="421.1" x2="665.7" y2="420.6"/>
					<line class="st49" x1="667.4" y1="419.6" x2="694.1" y2="404.2"/>
					<line class="st1" x1="695" y1="403.7" x2="695.9" y2="403.2"/>
				</g>
				<g>
					<line class="st1" x1="664.8" y1="385.3" x2="663.9" y2="385.8"/>
					<line class="st49" x1="662.2" y1="386.7" x2="635.4" y2="402.2"/>
					<line class="st1" x1="634.6" y1="402.7" x2="633.7" y2="403.2"/>
				</g>
				<g>
					<line class="st1" x1="633.7" y1="403.2" x2="634.6" y2="403.7"/>
					<line class="st49" x1="636.3" y1="404.7" x2="663.1" y2="420.1"/>
					<line class="st1" x1="663.9" y1="420.6" x2="664.8" y2="421.1"/>
				</g>
				<g>
					<line class="st1" x1="695.9" y1="403.2" x2="695" y2="402.7"/>
					<line class="st50" x1="693.3" y1="401.7" x2="666.5" y2="386.3"/>
					<line class="st1" x1="665.7" y1="385.8" x2="664.8" y2="385.3"/>
				</g>
				<g>
					<line class="st1" x1="664.8" y1="421.1" x2="664" y2="420.6"/>
					<line class="st48" x1="662.2" y1="419.5" x2="635.4" y2="401.8"/>
					<line class="st1" x1="634.6" y1="401.2" x2="633.7" y2="400.7"/>
				</g>
				<g>
					<line class="st1" x1="602.6" y1="421.1" x2="603.5" y2="420.6"/>
					<line class="st48" x1="605.2" y1="419.5" x2="632" y2="401.8"/>
					<line class="st1" x1="632.9" y1="401.2" x2="633.7" y2="400.7"/>
				</g>
				<g>
					<line class="st1" x1="664.8" y1="421.1" x2="663.9" y2="420.6"/>
					<line class="st49" x1="662.2" y1="419.6" x2="635.4" y2="404.2"/>
					<line class="st1" x1="634.6" y1="403.7" x2="633.7" y2="403.2"/>
				</g>
				<g>
					<line class="st1" x1="633.7" y1="403.2" x2="632.9" y2="403.7"/>
					<line class="st49" x1="631.1" y1="404.7" x2="604.4" y2="420.1"/>
					<line class="st1" x1="603.5" y1="420.6" x2="602.6" y2="421.1"/>
				</g>
				<g>
					<line class="st1" x1="633.7" y1="439.1" x2="634.6" y2="438.6"/>
					<line class="st49" x1="636.3" y1="437.6" x2="663.1" y2="422.1"/>
					<line class="st1" x1="663.9" y1="421.6" x2="664.8" y2="421.1"/>
				</g>
				<g>
					<line class="st1" x1="664.8" y1="385.3" x2="665.6" y2="384.7"/>
					<line class="st48" x1="667.4" y1="383.6" x2="694.2" y2="365.9"/>
					<line class="st1" x1="695" y1="365.3" x2="695.9" y2="364.8"/>
				</g>
				<g>
					<line class="st1" x1="727" y1="385.3" x2="726.1" y2="384.7"/>
					<line class="st48" x1="724.4" y1="383.6" x2="697.6" y2="365.9"/>
					<line class="st1" x1="696.7" y1="365.3" x2="695.9" y2="364.8"/>
				</g>
				<g>
					<line class="st1" x1="727" y1="385.3" x2="727" y2="384.3"/>
					<line class="st47" x1="727" y1="382.3" x2="727" y2="345.2"/>
					<line class="st1" x1="727" y1="344.3" x2="727" y2="343.3"/>
				</g>
				<g>
					<line class="st1" x1="727" y1="385.3" x2="726.1" y2="384.8"/>
					<line class="st49" x1="724.4" y1="383.8" x2="697.6" y2="368.3"/>
					<line class="st1" x1="696.7" y1="367.8" x2="695.9" y2="367.3"/>
				</g>
				<g>
					<line class="st1" x1="664.8" y1="385.3" x2="665.7" y2="385.8"/>
					<line class="st50" x1="667.4" y1="386.7" x2="694.1" y2="402.2"/>
					<line class="st1" x1="695" y1="402.7" x2="695.9" y2="403.2"/>
				</g>
				<g>
					<line class="st1" x1="695.9" y1="403.2" x2="696.7" y2="402.7"/>
					<line class="st50" x1="698.5" y1="401.7" x2="725.2" y2="386.3"/>
					<line class="st1" x1="726.1" y1="385.8" x2="727" y2="385.3"/>
				</g>
				<g>
					<line class="st1" x1="695.9" y1="367.3" x2="695" y2="367.8"/>
					<line class="st49" x1="693.3" y1="368.8" x2="666.5" y2="384.3"/>
					<line class="st1" x1="665.7" y1="384.8" x2="664.8" y2="385.3"/>
				</g>
				<g>
					<line class="st1" x1="781.3" y1="423.1" x2="782.2" y2="423.7"/>
					<line class="st48" x1="783.9" y1="424.8" x2="810.7" y2="442.4"/>
					<line class="st1" x1="811.6" y1="443" x2="812.4" y2="443.6"/>
				</g>
				<g>
					<line class="st1" x1="781.3" y1="423.1" x2="780.5" y2="423.7"/>
					<line class="st48" x1="778.8" y1="424.8" x2="752" y2="442.4"/>
					<line class="st1" x1="751.1" y1="443" x2="750.3" y2="443.6"/>
				</g>
				<g>
					<line class="st1" x1="781.3" y1="461.5" x2="781.3" y2="460.5"/>
					<line class="st51" x1="781.3" y1="458.6" x2="781.3" y2="425.1"/>
					<line class="st1" x1="781.3" y1="424.1" x2="781.3" y2="423.1"/>
				</g>
				<g>
					<line class="st1" x1="812.4" y1="443.6" x2="812.4" y2="442.6"/>
					<line class="st47" x1="812.4" y1="440.7" x2="812.4" y2="403.5"/>
					<line class="st1" x1="812.4" y1="402.6" x2="812.4" y2="401.6"/>
				</g>
				<g>
					<line class="st1" x1="781.3" y1="425.6" x2="781.3" y2="424.6"/>
					<line class="st1" x1="781.3" y1="424.1" x2="781.3" y2="423.1"/>
				</g>
				<g>
					<line class="st1" x1="750.3" y1="443.6" x2="750.3" y2="442.6"/>
					<line class="st47" x1="750.3" y1="440.7" x2="750.3" y2="403.5"/>
					<line class="st1" x1="750.3" y1="402.6" x2="750.3" y2="401.6"/>
				</g>
				<g>
					<line class="st1" x1="781.3" y1="425.6" x2="781.3" y2="424.6"/>
					<line class="st1" x1="781.3" y1="424.1" x2="781.3" y2="423.1"/>
				</g>
				<g>
					<line class="st1" x1="781.3" y1="425.6" x2="780.5" y2="426.1"/>
					<line class="st49" x1="778.8" y1="427.1" x2="752" y2="442.6"/>
					<line class="st1" x1="751.1" y1="443.1" x2="750.3" y2="443.6"/>
				</g>
				<g>
					<line class="st1" x1="781.3" y1="419.5" x2="781.3" y2="420.5"/>
					<line class="st47" x1="781.3" y1="422.4" x2="781.3" y2="459.6"/>
					<line class="st1" x1="781.3" y1="460.5" x2="781.3" y2="461.5"/>
				</g>
				<g>
					<line class="st1" x1="781.3" y1="461.5" x2="782.2" y2="461"/>
					<line class="st49" x1="783.9" y1="460" x2="810.7" y2="444.6"/>
					<line class="st1" x1="811.6" y1="444.1" x2="812.4" y2="443.6"/>
				</g>
				<g>
					<line class="st1" x1="812.4" y1="443.6" x2="811.6" y2="443.1"/>
					<line class="st50" x1="809.8" y1="442.1" x2="783.1" y2="426.6"/>
					<line class="st1" x1="782.2" y1="426.1" x2="781.3" y2="425.6"/>
				</g>
				<g>
					<line class="st1" x1="750.3" y1="443.6" x2="751.1" y2="444.1"/>
					<line class="st49" x1="752.9" y1="445.1" x2="779.6" y2="460.5"/>
					<line class="st1" x1="780.5" y1="461" x2="781.3" y2="461.5"/>
				</g>
				<g>
					<line class="st1" x1="478.3" y1="309.9" x2="477.5" y2="309.3"/>
					<line class="st62" x1="476.5" y1="308.7" x2="475.1" y2="307.8"/>
					<line class="st1" x1="474.6" y1="307.5" x2="473.8" y2="306.9"/>
				</g>
				<g>
					<line class="st1" x1="416.2" y1="300.2" x2="416.2" y2="299.2"/>
					<line class="st63" x1="416.2" y1="297.2" x2="416.2" y2="269.9"/>
					<line class="st1" x1="416.2" y1="268.9" x2="416.2" y2="267.9"/>
				</g>
				<g>
					<line class="st1" x1="478.3" y1="267.9" x2="478.3" y2="268.9"/>
					<line class="st63" x1="478.3" y1="270.9" x2="478.3" y2="298.2"/>
					<line class="st1" x1="478.3" y1="299.2" x2="478.3" y2="300.2"/>
				</g>
				<g>
					<line class="st1" x1="478.3" y1="309.9" x2="477.5" y2="309.4"/>
					<line class="st52" x1="476.4" y1="308.8" x2="474.9" y2="307.9"/>
					<line class="st1" x1="474.4" y1="307.6" x2="473.5" y2="307.1"/>
				</g>
				<g>
					<line class="st1" x1="455.6" y1="323" x2="456.5" y2="322.5"/>
					<line class="st64" x1="458.1" y1="321.6" x2="476.6" y2="310.9"/>
					<line class="st1" x1="477.5" y1="310.4" x2="478.3" y2="309.9"/>
				</g>
				<g>
					<line class="st1" x1="447.2" y1="357.6" x2="447.2" y2="358.6"/>
					<line class="st65" x1="447.2" y1="360" x2="447.2" y2="362"/>
					<line class="st1" x1="447.2" y1="362.7" x2="447.2" y2="363.7"/>
				</g>
				<g>
					<line class="st1" x1="478.3" y1="345.8" x2="477.5" y2="345.2"/>
					<line class="st66" x1="476.4" y1="344.5" x2="474.8" y2="343.4"/>
					<line class="st1" x1="474.2" y1="343.1" x2="473.4" y2="342.5"/>
				</g>
				<g>
					<line class="st1" x1="447.2" y1="363.7" x2="447.2" y2="362.7"/>
					<line class="st65" x1="447.2" y1="361.4" x2="447.2" y2="359.3"/>
					<line class="st1" x1="447.2" y1="358.6" x2="447.2" y2="357.6"/>
				</g>
				<g>
					<line class="st1" x1="442" y1="360.7" x2="442.8" y2="361.2"/>
					<line class="st65" x1="444" y1="361.9" x2="445.8" y2="362.9"/>
					<line class="st1" x1="446.4" y1="363.2" x2="447.2" y2="363.7"/>
				</g>
				<g>
					<line class="st1" x1="478.3" y1="303.8" x2="478.3" y2="304.8"/>
					<line class="st63" x1="478.3" y1="306.8" x2="478.3" y2="334.1"/>
					<line class="st1" x1="478.3" y1="335.1" x2="478.3" y2="336.1"/>
				</g>
				<g>
					<line class="st1" x1="478.3" y1="339.7" x2="478.3" y2="340.7"/>
					<line class="st67" x1="478.3" y1="342" x2="478.3" y2="344.1"/>
					<line class="st1" x1="478.3" y1="344.8" x2="478.3" y2="345.8"/>
				</g>
				<g>
					<line class="st1" x1="478.3" y1="345.8" x2="477.5" y2="345.3"/>
					<line class="st68" x1="476.3" y1="344.6" x2="474.5" y2="343.6"/>
					<line class="st1" x1="473.9" y1="343.2" x2="473" y2="342.7"/>
				</g>
				<g>
					<line class="st1" x1="447.2" y1="363.7" x2="448.1" y2="363.2"/>
					<line class="st50" x1="449.8" y1="362.2" x2="476.6" y2="346.8"/>
					<line class="st1" x1="477.5" y1="346.3" x2="478.3" y2="345.8"/>
				</g>
				<g>
					<line class="st1" x1="509.4" y1="188.9" x2="508.6" y2="189.5"/>
					<line class="st48" x1="506.8" y1="190.6" x2="480" y2="208.3"/>
					<line class="st1" x1="479.2" y1="208.9" x2="478.3" y2="209.4"/>
				</g>
				<g>
					<line class="st1" x1="509.4" y1="188.9" x2="510.2" y2="189.5"/>
					<line class="st48" x1="512" y1="190.6" x2="538.8" y2="208.3"/>
					<line class="st1" x1="539.6" y1="208.9" x2="540.5" y2="209.4"/>
				</g>
				<g>
					<line class="st1" x1="478.3" y1="209.4" x2="478.3" y2="208.4"/>
					<line class="st47" x1="478.3" y1="206.5" x2="478.3" y2="169.4"/>
					<line class="st1" x1="478.3" y1="168.4" x2="478.3" y2="167.4"/>
				</g>
				<g>
					<line class="st1" x1="509.4" y1="227.3" x2="509.4" y2="226.3"/>
					<line class="st51" x1="509.4" y1="224.4" x2="509.4" y2="190.9"/>
					<line class="st1" x1="509.4" y1="189.9" x2="509.4" y2="188.9"/>
				</g>
				<g>
					<line class="st1" x1="509.4" y1="227.3" x2="510.3" y2="226.8"/>
					<line class="st50" x1="512" y1="225.9" x2="538.8" y2="210.4"/>
					<line class="st1" x1="539.6" y1="209.9" x2="540.5" y2="209.4"/>
				</g>
				<g>
					<line class="st1" x1="509.4" y1="191.5" x2="508.5" y2="192"/>
					<line class="st49" x1="506.8" y1="193" x2="480.1" y2="208.4"/>
					<line class="st1" x1="479.2" y1="208.9" x2="478.3" y2="209.4"/>
				</g>
				<g>
					<line class="st1" x1="478.3" y1="209.4" x2="479.2" y2="209.9"/>
					<line class="st49" x1="480.9" y1="210.9" x2="507.7" y2="226.4"/>
					<line class="st1" x1="508.5" y1="226.8" x2="509.4" y2="227.3"/>
				</g>
				<g>
					<line class="st1" x1="540.5" y1="209.4" x2="539.6" y2="208.9"/>
					<line class="st49" x1="537.9" y1="207.9" x2="511.1" y2="192.5"/>
					<line class="st1" x1="510.3" y1="192" x2="509.4" y2="191.5"/>
				</g>
				<g>
					<line class="st1" x1="540.5" y1="206.9" x2="539.6" y2="207.4"/>
					<line class="st48" x1="537.9" y1="208.6" x2="511.1" y2="226.2"/>
					<line class="st1" x1="510.2" y1="226.8" x2="509.4" y2="227.3"/>
				</g>
				<g>
					<line class="st1" x1="540.5" y1="206.9" x2="541.3" y2="207.4"/>
					<line class="st48" x1="543" y1="208.6" x2="569.9" y2="226.2"/>
					<line class="st1" x1="570.7" y1="226.8" x2="571.6" y2="227.3"/>
				</g>
				<g>
					<line class="st1" x1="540.5" y1="245.3" x2="540.5" y2="244.3"/>
					<line class="st61" x1="540.5" y1="242.4" x2="540.5" y2="208.9"/>
					<line class="st1" x1="540.5" y1="207.9" x2="540.5" y2="206.9"/>
				</g>
				<g>
					<line class="st1" x1="571.6" y1="227.3" x2="571.6" y2="226.3"/>
					<line class="st47" x1="571.6" y1="224.4" x2="571.6" y2="187.3"/>
					<line class="st1" x1="571.6" y1="186.4" x2="571.6" y2="185.4"/>
				</g>
				<g>
					<line class="st1" x1="540.5" y1="245.3" x2="541.3" y2="244.8"/>
					<line class="st49" x1="543.1" y1="243.8" x2="569.8" y2="228.3"/>
					<line class="st1" x1="570.7" y1="227.8" x2="571.6" y2="227.3"/>
				</g>
				<g>
					<line class="st1" x1="509.4" y1="227.3" x2="510.3" y2="227.8"/>
					<line class="st49" x1="512" y1="228.8" x2="538.8" y2="244.3"/>
					<line class="st1" x1="539.6" y1="244.8" x2="540.5" y2="245.3"/>
				</g>
				<g>
					<line class="st1" x1="571.6" y1="227.3" x2="570.7" y2="226.8"/>
					<line class="st50" x1="569" y1="225.9" x2="542.2" y2="210.4"/>
					<line class="st1" x1="541.3" y1="209.9" x2="540.5" y2="209.4"/>
				</g>
				<g>
					<line class="st1" x1="478.3" y1="171" x2="477.5" y2="171.6"/>
					<line class="st48" x1="475.8" y1="172.7" x2="448.9" y2="190.3"/>
					<line class="st1" x1="448.1" y1="190.9" x2="447.2" y2="191.5"/>
				</g>
				<g>
					<line class="st1" x1="478.3" y1="171" x2="479.2" y2="171.6"/>
					<line class="st48" x1="480.9" y1="172.7" x2="507.7" y2="190.3"/>
					<line class="st1" x1="508.6" y1="190.9" x2="509.4" y2="191.5"/>
				</g>
				<g>
					<line class="st1" x1="447.2" y1="191.5" x2="447.2" y2="190.5"/>
					<line class="st47" x1="447.2" y1="188.6" x2="447.2" y2="151.4"/>
					<line class="st1" x1="447.2" y1="150.5" x2="447.2" y2="149.5"/>
				</g>
				<g>
					<line class="st1" x1="478.3" y1="173.5" x2="477.5" y2="174"/>
					<line class="st49" x1="475.7" y1="175" x2="449" y2="190.5"/>
					<line class="st1" x1="448.1" y1="191" x2="447.2" y2="191.5"/>
				</g>
				<g>
					<line class="st1" x1="447.2" y1="191.5" x2="448.1" y2="192"/>
					<line class="st49" x1="449.8" y1="193" x2="476.6" y2="208.4"/>
					<line class="st1" x1="477.5" y1="208.9" x2="478.3" y2="209.4"/>
				</g>
				<g>
					<line class="st1" x1="509.4" y1="191.5" x2="508.5" y2="191"/>
					<line class="st49" x1="506.8" y1="190" x2="480.1" y2="174.5"/>
					<line class="st1" x1="479.2" y1="174" x2="478.3" y2="173.5"/>
				</g>
				<g>
					<line class="st1" x1="672.6" y1="162.9" x2="671.7" y2="163.5"/>
					<line class="st48" x1="670" y1="164.6" x2="643.2" y2="182.3"/>
					<line class="st1" x1="642.3" y1="182.8" x2="641.5" y2="183.4"/>
				</g>
				<g>
					<line class="st1" x1="672.6" y1="162.9" x2="673.4" y2="163.5"/>
					<line class="st48" x1="675.1" y1="164.6" x2="701.9" y2="182.3"/>
					<line class="st1" x1="702.8" y1="182.8" x2="703.6" y2="183.4"/>
				</g>
				<g>
					<line class="st1" x1="641.5" y1="183.4" x2="641.5" y2="182.4"/>
					<line class="st65" x1="641.5" y1="181" x2="641.5" y2="179"/>
					<line class="st1" x1="641.5" y1="178.3" x2="641.5" y2="177.3"/>
				</g>
				<g>
					<line class="st1" x1="672.6" y1="201.3" x2="672.6" y2="200.3"/>
					<line class="st51" x1="672.6" y1="198.4" x2="672.6" y2="164.9"/>
					<line class="st1" x1="672.6" y1="163.9" x2="672.6" y2="162.9"/>
				</g>
				<g>
					<line class="st1" x1="703.6" y1="183.4" x2="703.6" y2="182.4"/>
					<line class="st47" x1="703.6" y1="180.5" x2="703.6" y2="143.4"/>
					<line class="st1" x1="703.6" y1="142.4" x2="703.6" y2="141.4"/>
				</g>
				<g>
					<line class="st1" x1="672.6" y1="201.3" x2="672.6" y2="200.3"/>
					<line class="st47" x1="672.6" y1="198.4" x2="672.6" y2="161.3"/>
					<line class="st1" x1="672.6" y1="160.3" x2="672.6" y2="159.3"/>
				</g>
				<g>
					<line class="st1" x1="672.6" y1="201.3" x2="673.4" y2="200.8"/>
					<line class="st49" x1="675.2" y1="199.8" x2="701.9" y2="184.4"/>
					<line class="st1" x1="702.8" y1="183.9" x2="703.6" y2="183.4"/>
				</g>
				<g>
					<line class="st1" x1="672.6" y1="165.4" x2="671.7" y2="165.9"/>
					<line class="st50" x1="670" y1="166.9" x2="643.2" y2="182.4"/>
					<line class="st1" x1="642.4" y1="182.9" x2="641.5" y2="183.4"/>
				</g>
				<g>
					<line class="st1" x1="641.5" y1="183.4" x2="642.4" y2="183.9"/>
					<line class="st49" x1="644.1" y1="184.9" x2="670.8" y2="200.3"/>
					<line class="st1" x1="671.7" y1="200.8" x2="672.6" y2="201.3"/>
				</g>
				<g>
					<line class="st1" x1="703.6" y1="183.4" x2="702.8" y2="182.9"/>
					<line class="st49" x1="701.1" y1="181.9" x2="674.3" y2="166.4"/>
					<line class="st1" x1="673.4" y1="165.9" x2="672.6" y2="165.4"/>
				</g>
				<g>
					<line class="st1" x1="641.5" y1="146.8" x2="641.5" y2="145.8"/>
					<line class="st69" x1="641.5" y1="144.7" x2="641.5" y2="143"/>
					<line class="st1" x1="641.5" y1="142.4" x2="641.5" y2="141.4"/>
				</g>
				<g>
					<line class="st1" x1="602.6" y1="232" x2="602.6" y2="231"/>
					<line class="st70" x1="602.6" y1="229" x2="602.6" y2="205.3"/>
					<line class="st1" x1="602.6" y1="204.3" x2="602.6" y2="203.3"/>
				</g>
				<g>
					<line class="st1" x1="664.8" y1="281.2" x2="664.8" y2="280.2"/>
					<line class="st67" x1="664.8" y1="278.8" x2="664.8" y2="276.8"/>
					<line class="st1" x1="664.8" y1="276.1" x2="664.8" y2="275.1"/>
				</g>
				<g>
					<line class="st1" x1="664.8" y1="281.2" x2="665.7" y2="281.7"/>
					<line class="st70" x1="667.4" y1="282.7" x2="687.9" y2="294.5"/>
					<line class="st1" x1="688.8" y1="295" x2="689.7" y2="295.5"/>
				</g>
				<g>
					<line class="st1" x1="669.6" y1="278.4" x2="668.7" y2="278.9"/>
					<line class="st52" x1="667.7" y1="279.5" x2="666.2" y2="280.4"/>
					<line class="st1" x1="665.7" y1="280.7" x2="664.8" y2="281.2"/>
				</g>
				<g>
					<line class="st1" x1="664.8" y1="281.2" x2="664.8" y2="280.2"/>
					<line class="st67" x1="664.8" y1="278.8" x2="664.8" y2="276.8"/>
					<line class="st1" x1="664.8" y1="276.1" x2="664.8" y2="275.1"/>
				</g>
				<g>
					<line class="st1" x1="664.8" y1="281.2" x2="664.8" y2="280.2"/>
					<line class="st67" x1="664.8" y1="278.8" x2="664.8" y2="276.8"/>
					<line class="st1" x1="664.8" y1="276.1" x2="664.8" y2="275.1"/>
				</g>
				<g>
					<line class="st1" x1="664.8" y1="281.2" x2="665.7" y2="280.7"/>
					<line class="st52" x1="666.7" y1="280.1" x2="668.2" y2="279.2"/>
					<line class="st1" x1="668.7" y1="278.9" x2="669.6" y2="278.4"/>
				</g>
				<g>
					<line class="st1" x1="656.4" y1="276.3" x2="657.3" y2="276.8"/>
					<line class="st71" x1="659.5" y1="278.1" x2="662.8" y2="280"/>
					<line class="st1" x1="663.9" y1="280.7" x2="664.8" y2="281.2"/>
				</g>
				<g>
					<line class="st1" x1="683.4" y1="304.8" x2="682.6" y2="305.3"/>
					<line class="st72" x1="681.1" y1="306.4" x2="666.4" y2="316"/>
					<line class="st1" x1="665.6" y1="316.5" x2="664.8" y2="317.1"/>
				</g>
				<g>
					<line class="st1" x1="664.8" y1="317.1" x2="664.8" y2="316.1"/>
					<line class="st47" x1="664.8" y1="314.2" x2="664.8" y2="277"/>
					<line class="st1" x1="664.8" y1="276.1" x2="664.8" y2="275.1"/>
				</g>
				<g>
					<line class="st1" x1="683.4" y1="306.3" x2="682.6" y2="306.8"/>
					<line class="st73" x1="680.7" y1="307.9" x2="666.6" y2="316"/>
					<line class="st1" x1="665.7" y1="316.6" x2="664.8" y2="317.1"/>
				</g>
				<g>
					<line class="st1" x1="664.8" y1="317.1" x2="665.7" y2="317.6"/>
					<line class="st60" x1="667.9" y1="318.8" x2="671.2" y2="320.8"/>
					<line class="st1" x1="672.3" y1="321.4" x2="673.2" y2="321.9"/>
				</g>
				<g>
					<line class="st1" x1="851.3" y1="303.8" x2="851.3" y2="302.8"/>
					<line class="st70" x1="851.3" y1="300.7" x2="851.3" y2="277.1"/>
					<line class="st1" x1="851.3" y1="276.1" x2="851.3" y2="275.1"/>
				</g>
				<g>
					<line class="st1" x1="758" y1="296.6" x2="758" y2="297.6"/>
					<line class="st61" x1="758" y1="299.5" x2="758" y2="333.1"/>
					<line class="st1" x1="758" y1="334" x2="758" y2="335"/>
				</g>
				<g>
					<line class="st1" x1="727" y1="317.1" x2="727.8" y2="317.6"/>
					<line class="st49" x1="729.5" y1="318.6" x2="756.3" y2="334"/>
					<line class="st1" x1="757.2" y1="334.5" x2="758" y2="335"/>
				</g>
				<g>
					<line class="st1" x1="758" y1="335" x2="758.9" y2="334.5"/>
					<line class="st49" x1="760.6" y1="333.5" x2="787.4" y2="318.1"/>
					<line class="st1" x1="788.2" y1="317.6" x2="789.1" y2="317.1"/>
				</g>
				<g>
					<line class="st1" x1="727" y1="314.6" x2="727.8" y2="315.1"/>
					<line class="st48" x1="729.5" y1="316.2" x2="756.3" y2="333.9"/>
					<line class="st1" x1="757.2" y1="334.5" x2="758" y2="335"/>
				</g>
				<g>
					<line class="st1" x1="727" y1="353" x2="727" y2="352"/>
					<line class="st51" x1="727" y1="350" x2="727" y2="316.5"/>
					<line class="st1" x1="727" y1="315.6" x2="727" y2="314.6"/>
				</g>
				<g>
					<line class="st1" x1="727" y1="353" x2="727" y2="352"/>
					<line class="st47" x1="727" y1="350" x2="727" y2="312.9"/>
					<line class="st1" x1="727" y1="312" x2="727" y2="311"/>
				</g>
				<g>
					<line class="st1" x1="727" y1="353" x2="727.8" y2="352.5"/>
					<line class="st50" x1="729.5" y1="351.5" x2="756.3" y2="336"/>
					<line class="st1" x1="757.2" y1="335.5" x2="758" y2="335"/>
				</g>
				<g>
					<line class="st1" x1="719.3" y1="348.5" x2="720.2" y2="349"/>
					<line class="st74" x1="722.2" y1="350.2" x2="725.1" y2="351.9"/>
					<line class="st1" x1="726.1" y1="352.5" x2="727" y2="353"/>
				</g>
				<g>
					<line class="st1" x1="789.1" y1="353" x2="789.9" y2="352.4"/>
					<line class="st48" x1="791.7" y1="351.3" x2="818.5" y2="333.6"/>
					<line class="st1" x1="819.4" y1="333" x2="820.2" y2="332.5"/>
				</g>
				<g>
					<line class="st1" x1="789.1" y1="311" x2="789.1" y2="312"/>
					<line class="st47" x1="789.1" y1="313.9" x2="789.1" y2="351"/>
					<line class="st1" x1="789.1" y1="352" x2="789.1" y2="353"/>
				</g>
				<g>
					<line class="st1" x1="789.1" y1="353" x2="790" y2="353.5"/>
					<line class="st54" x1="791.6" y1="354.4" x2="807" y2="363.3"/>
					<line class="st1" x1="807.8" y1="363.8" x2="808.7" y2="364.3"/>
				</g>
				<g>
					<line class="st1" x1="820.2" y1="335" x2="819.3" y2="335.5"/>
					<line class="st49" x1="817.6" y1="336.5" x2="790.8" y2="352"/>
					<line class="st1" x1="790" y1="352.5" x2="789.1" y2="353"/>
				</g>
				<g>
					<line class="st1" x1="758" y1="335" x2="758.9" y2="334.5"/>
					<line class="st48" x1="760.6" y1="333.3" x2="787.4" y2="315.7"/>
					<line class="st1" x1="788.3" y1="315.1" x2="789.1" y2="314.6"/>
				</g>
				<g>
					<line class="st1" x1="758" y1="335" x2="758.9" y2="335.5"/>
					<line class="st50" x1="760.6" y1="336.5" x2="787.4" y2="352"/>
					<line class="st1" x1="788.2" y1="352.5" x2="789.1" y2="353"/>
				</g>
				<g>
					<line class="st1" x1="789.1" y1="317.1" x2="788.2" y2="316.6"/>
					<line class="st50" x1="786.5" y1="315.6" x2="759.8" y2="300.1"/>
					<line class="st1" x1="758.9" y1="299.6" x2="758" y2="299.1"/>
				</g>
				<g>
					<line class="st1" x1="820.2" y1="332.5" x2="820.2" y2="333.5"/>
					<line class="st75" x1="820.2" y1="335.6" x2="820.2" y2="355.6"/>
					<line class="st1" x1="820.2" y1="356.6" x2="820.2" y2="357.6"/>
				</g>
				<g>
					<line class="st1" x1="840.5" y1="345.9" x2="839.7" y2="345.3"/>
					<line class="st53" x1="838" y1="344.2" x2="821.9" y2="333.6"/>
					<line class="st1" x1="821" y1="333" x2="820.2" y2="332.5"/>
				</g>
				<g>
					<line class="st1" x1="839.8" y1="346.3" x2="838.9" y2="345.8"/>
					<line class="st55" x1="837.3" y1="344.9" x2="821.9" y2="336"/>
					<line class="st1" x1="821.1" y1="335.5" x2="820.2" y2="335"/>
				</g>
				<g>
					<line class="st1" x1="789.1" y1="317.1" x2="790" y2="317.6"/>
					<line class="st49" x1="791.7" y1="318.6" x2="818.5" y2="334"/>
					<line class="st1" x1="819.3" y1="334.5" x2="820.2" y2="335"/>
				</g>
				<g>
					<line class="st1" x1="820.2" y1="335" x2="821.1" y2="334.5"/>
					<line class="st52" x1="822.1" y1="333.9" x2="823.6" y2="333"/>
					<line class="st1" x1="824.1" y1="332.7" x2="825" y2="332.2"/>
				</g>
				<g>
					<line class="st1" x1="793.9" y1="314.3" x2="793.1" y2="314.8"/>
					<line class="st52" x1="792" y1="315.4" x2="790.5" y2="316.3"/>
					<line class="st1" x1="790" y1="316.6" x2="789.1" y2="317.1"/>
				</g>
				<g>
					<line class="st1" x1="820.2" y1="335" x2="819.4" y2="334.5"/>
					<line class="st48" x1="817.6" y1="333.3" x2="790.8" y2="315.7"/>
					<line class="st1" x1="789.9" y1="315.1" x2="789.1" y2="314.6"/>
				</g>
				<g>
					<line class="st1" x1="727" y1="317.1" x2="727.8" y2="316.6"/>
					<line class="st50" x1="729.5" y1="315.6" x2="756.3" y2="300.1"/>
					<line class="st1" x1="757.2" y1="299.6" x2="758" y2="299.1"/>
				</g>
				<g>
					<line class="st1" x1="753.5" y1="296.2" x2="754.4" y2="296.7"/>
					<line class="st76" x1="755.3" y1="297.3" x2="756.7" y2="298.3"/>
					<line class="st1" x1="757.2" y1="298.6" x2="758" y2="299.1"/>
				</g>
				<g>
					<line class="st1" x1="758.9" y1="296" x2="759.7" y2="296.5"/>
					<line class="st77" x1="761.5" y1="297.5" x2="778.1" y2="307.1"/>
					<line class="st1" x1="778.9" y1="307.6" x2="779.8" y2="308.1"/>
				</g>
				<g>
					<line class="st1" x1="913.4" y1="424.7" x2="913.4" y2="423.7"/>
					<line class="st61" x1="913.4" y1="421.8" x2="913.4" y2="388.3"/>
					<line class="st1" x1="913.4" y1="387.3" x2="913.4" y2="386.3"/>
				</g>
				<g>
					<line class="st1" x1="913.4" y1="424.7" x2="914.3" y2="424.2"/>
					<line class="st49" x1="916" y1="423.2" x2="942.8" y2="407.8"/>
					<line class="st1" x1="943.6" y1="407.3" x2="944.5" y2="406.8"/>
				</g>
				<g>
					<line class="st1" x1="882.4" y1="406.8" x2="883.2" y2="407.3"/>
					<line class="st49" x1="884.9" y1="408.3" x2="911.7" y2="423.7"/>
					<line class="st1" x1="912.6" y1="424.2" x2="913.4" y2="424.7"/>
				</g>
				<g>
					<line class="st1" x1="944.5" y1="404.3" x2="945.3" y2="404.8"/>
					<line class="st48" x1="947.1" y1="406" x2="973.9" y2="423.6"/>
					<line class="st1" x1="974.8" y1="424.2" x2="975.6" y2="424.7"/>
				</g>
				<g>
					<line class="st1" x1="944.5" y1="404.3" x2="943.7" y2="404.8"/>
					<line class="st48" x1="941.9" y1="406" x2="915.1" y2="423.6"/>
					<line class="st1" x1="914.3" y1="424.2" x2="913.4" y2="424.7"/>
				</g>
				<g>
					<line class="st1" x1="944.5" y1="442.7" x2="944.5" y2="441.7"/>
					<line class="st51" x1="944.5" y1="439.8" x2="944.5" y2="406.2"/>
					<line class="st1" x1="944.5" y1="405.3" x2="944.5" y2="404.3"/>
				</g>
				<g>
					<line class="st1" x1="975.6" y1="424.7" x2="975.6" y2="423.7"/>
					<line class="st1" x1="975.6" y1="423.2" x2="975.6" y2="422.2"/>
				</g>
				<g>
					<line class="st1" x1="944.5" y1="442.7" x2="945.4" y2="442.2"/>
					<line class="st49" x1="947.1" y1="441.2" x2="973.9" y2="425.7"/>
					<line class="st1" x1="974.7" y1="425.2" x2="975.6" y2="424.7"/>
				</g>
				<g>
					<line class="st1" x1="975.6" y1="424.7" x2="974.7" y2="424.2"/>
					<line class="st49" x1="973" y1="423.2" x2="946.2" y2="407.8"/>
					<line class="st1" x1="945.4" y1="407.3" x2="944.5" y2="406.8"/>
				</g>
				<g>
					<line class="st1" x1="913.4" y1="424.7" x2="914.3" y2="425.2"/>
					<line class="st50" x1="916" y1="426.2" x2="942.8" y2="441.7"/>
					<line class="st1" x1="943.6" y1="442.2" x2="944.5" y2="442.7"/>
				</g>
				<g>
					<line class="st1" x1="975.6" y1="422.2" x2="974.8" y2="422.8"/>
					<line class="st48" x1="973" y1="423.9" x2="946.2" y2="441.6"/>
					<line class="st1" x1="945.3" y1="442.1" x2="944.5" y2="442.7"/>
				</g>
				<g>
					<line class="st1" x1="975.6" y1="422.2" x2="976.4" y2="422.8"/>
					<line class="st48" x1="978.2" y1="423.9" x2="1005" y2="441.6"/>
					<line class="st1" x1="1005.8" y1="442.1" x2="1006.7" y2="442.7"/>
				</g>
				<g>
					<line class="st1" x1="975.6" y1="424.7" x2="975.6" y2="423.7"/>
					<line class="st1" x1="975.6" y1="423.2" x2="975.6" y2="422.2"/>
				</g>
				<g>
					<line class="st1" x1="975.6" y1="460.6" x2="975.6" y2="459.6"/>
					<line class="st61" x1="975.6" y1="457.7" x2="975.6" y2="424.2"/>
					<line class="st1" x1="975.6" y1="423.2" x2="975.6" y2="422.2"/>
				</g>
				<g>
					<line class="st1" x1="1006.7" y1="442.7" x2="1006.7" y2="441.7"/>
					<line class="st47" x1="1006.7" y1="439.8" x2="1006.7" y2="402.6"/>
					<line class="st1" x1="1006.7" y1="401.7" x2="1006.7" y2="400.7"/>
				</g>
				<g>
					<line class="st1" x1="975.6" y1="460.6" x2="976.5" y2="460.1"/>
					<line class="st49" x1="978.2" y1="459.1" x2="1004.9" y2="443.7"/>
					<line class="st1" x1="1005.8" y1="443.2" x2="1006.7" y2="442.7"/>
				</g>
				<g>
					<line class="st1" x1="975.6" y1="422.2" x2="975.6" y2="423.2"/>
					<line class="st1" x1="975.6" y1="423.7" x2="975.6" y2="424.7"/>
				</g>
				<g>
					<line class="st1" x1="944.5" y1="442.7" x2="945.4" y2="443.2"/>
					<line class="st49" x1="947.1" y1="444.2" x2="973.9" y2="459.6"/>
					<line class="st1" x1="974.7" y1="460.1" x2="975.6" y2="460.6"/>
				</g>
				<g>
					<line class="st1" x1="1006.7" y1="442.7" x2="1005.8" y2="442.2"/>
					<line class="st50" x1="1004.1" y1="441.2" x2="977.3" y2="425.7"/>
					<line class="st1" x1="976.5" y1="425.2" x2="975.6" y2="424.7"/>
				</g>
				<g>
					<line class="st1" x1="913.4" y1="388.8" x2="913.4" y2="387.8"/>
					<line class="st1" x1="913.4" y1="387.3" x2="913.4" y2="386.3"/>
				</g>
				<g>
					<line class="st1" x1="913.4" y1="388.8" x2="912.6" y2="388.3"/>
					<line class="st57" x1="910.3" y1="387.1" x2="907" y2="385.1"/>
					<line class="st1" x1="905.9" y1="384.5" x2="905" y2="384"/>
				</g>
				<g>
					<line class="st1" x1="882.4" y1="406.8" x2="883.2" y2="406.3"/>
					<line class="st49" x1="884.9" y1="405.3" x2="911.7" y2="389.8"/>
					<line class="st1" x1="912.6" y1="389.3" x2="913.4" y2="388.8"/>
				</g>
				<g>
					<line class="st1" x1="913.4" y1="386.3" x2="912.6" y2="386.9"/>
					<line class="st48" x1="910.9" y1="388" x2="884.1" y2="405.7"/>
					<line class="st1" x1="883.2" y1="406.2" x2="882.4" y2="406.8"/>
				</g>
				<g>
					<line class="st1" x1="913.4" y1="386.3" x2="914.3" y2="386.9"/>
					<line class="st48" x1="916" y1="388" x2="942.8" y2="405.7"/>
					<line class="st1" x1="943.7" y1="406.2" x2="944.5" y2="406.8"/>
				</g>
				<g>
					<line class="st1" x1="913.4" y1="388.8" x2="913.4" y2="387.8"/>
					<line class="st1" x1="913.4" y1="387.3" x2="913.4" y2="386.3"/>
				</g>
				<g>
					<line class="st1" x1="913.4" y1="386.3" x2="913.4" y2="387.3"/>
					<line class="st1" x1="913.4" y1="387.8" x2="913.4" y2="388.8"/>
				</g>
				<g>
					<line class="st1" x1="944.5" y1="406.8" x2="943.6" y2="406.3"/>
					<line class="st49" x1="941.9" y1="405.3" x2="915.2" y2="389.8"/>
					<line class="st1" x1="914.3" y1="389.3" x2="913.4" y2="388.8"/>
				</g>
				<g>
					<line class="st1" x1="882.4" y1="397.1" x2="882.4" y2="398.1"/>
					<line class="st78" x1="882.4" y1="400.7" x2="882.4" y2="404.5"/>
					<line class="st1" x1="882.4" y1="405.8" x2="882.4" y2="406.8"/>
				</g>
				<g>
					<line class="st1" x1="882.4" y1="406.8" x2="882.4" y2="405.8"/>
					<line class="st78" x1="882.4" y1="403.2" x2="882.4" y2="399.4"/>
					<line class="st1" x1="882.4" y1="398.1" x2="882.4" y2="397.1"/>
				</g>
				<g>
					<line class="st1" x1="874" y1="401.9" x2="874.8" y2="402.4"/>
					<line class="st60" x1="877" y1="403.7" x2="880.4" y2="405.6"/>
					<line class="st1" x1="881.5" y1="406.3" x2="882.4" y2="406.8"/>
				</g>
				<g>
					<line class="st1" x1="882.4" y1="406.8" x2="882.4" y2="405.8"/>
					<line class="st78" x1="882.4" y1="403.2" x2="882.4" y2="399.4"/>
					<line class="st1" x1="882.4" y1="398.1" x2="882.4" y2="397.1"/>
				</g>
			</g>
		</g>
	</g>
	<g id="Platform_detail">
		<path class="st1" d="M316.7,354l31.1-17.9 M310.5,350.4l31.1-17.9 M304.3,346.9l31.1-17.9 M298.1,343.3l31.1-17.9 M291.8,332.5
			l6.2,3.6 M291.8,325.3l12.4,7.2 M291.8,318.1l18.6,10.8 M291.8,311l24.9,14.4 M391.3,389.9l28,16.1 M397.5,386.3l28,16.1
			 M403.7,382.7l28,16.1 M437.9,395.3l-28-16.1 M329.1,354l31.1,17.9 M335.4,350.4l31.1,17.9 M341.6,346.9l31.1,17.9 M347.8,343.3
			l31.1,17.9 M378.9,389.9L410,372 M403.7,368.4l-31.1,17.9 M366.4,382.7l31.1-17.9 M360.2,379.2l31.1-17.9 M472.1,267.9L441,250
			 M465.9,271.5l-31.1-17.9 M459.7,275.1l-31.1-17.9 M453.5,278.7l-31.1-17.9 M472.1,303.8L441,285.9 M465.9,307.4l-31.1-17.9
			 M459.7,311l-31.1-17.9 M453.5,314.6l-31.1-17.9 M371.1,462.6l31.1-17.9 M364.9,459l31.1-17.9 M358.7,455.4l31.1-17.9
			 M352.5,451.8l31.1-17.9 M506.3,424l3.1-1.8 M500.1,420.4l28-16.1 M493.9,416.8l28-16.1 M487.6,413.2l28-16.1 M562,425.8
			l-21.5-12.4 M540.5,413.4L519,425.8 M540.5,413.4v-7.2 M375.5,318.1L354,305.7 M354,305.7l-21.5,12.4 M354,305.7v-7.2 M596.4,415
			l-31.1-17.9 M590.2,418.6l-31.1-17.9 M584,422.2l-31.1-17.9 M577.8,425.8l-6.2-3.6 M608.9,379.2l-31.1,17.9 M615.1,382.7
			L584,400.6 M621.3,386.3l-31.1,17.9 M627.5,389.9l-31.1,18 M671,343.3l-31.1,17.9 M677.2,346.9l-31.1,17.9 M683.4,350.4
			l-31.1,17.9 M689.7,354l-31.1,17.9 M658.6,379.2l-31.1-17.9 M652.4,382.7l-31.1-17.9 M646.1,386.3l-31-17.9 M639.9,389.9
			L608.8,372 M733.2,275.1L702.1,293 M739.4,278.7l-31.1,17.9 M745.6,282.3l-31.1,17.9 M751.8,285.8l-31.1,17.9 M717.4,267.9
			l-21.5-12.4 M695.9,255.5l-21.5,12.4 M695.9,255.5v-7.2 M733.2,239.2l-26.6,15.3 M739.4,242.8l-26.6,15.3 M745.6,246.4l-26.5,15.3
			 M751.8,250l-28.2,16.3 M776.7,271.5l-24.9-14.4 M770.5,275.1l-24.9-14.4 M764.3,278.7l-24.9-14.4 M758,282.3l-24.8-14.4
			 M720.7,239.2l-31.1-17.9 M714.5,242.8l-31.1-17.9 M708.3,246.4l-31.1-17.9 M702.1,250L671,232.1 M671,203.3l-28,16.1
			 M677.2,206.9l-28,16.1 M683.4,210.5l-28,16.1 M689.7,214.1l-28,16.1 M658.6,203.3l-31.1-17.9 M652.4,206.9l-31.1-18 M646.1,210.5
			l-31-18 M639.9,214.1l-31.1-17.9 M820.2,282.3l6.2,3.6 M801.5,264.3l31.1,17.9 M807.8,260.7l31.1,17.9 M814,257.1l31.1,17.9
			 M857.5,339.7l31.1,17.9 M863.7,336.1l31.1,17.9 M869.9,332.5l31.1,17.9 M876.1,328.9l31.1,17.9 M919.6,346.9l-28,16.1
			 M925.9,350.4l-28,16.1 M932.1,354l-28,16.1 M795.3,303.8l31.1,17.9 M801.5,300.2l31.1,17.9 M807.8,296.6l31.1,17.9 M814,293
			l31.1,17.9 M857.5,311l-31.1,17.9 M863.7,314.6l-31.1,17.9 M869.9,318.1L838.8,336 M876.1,321.7l-31,18 M913.4,372l-3.1,1.8
			 M775.1,412.3l31.1-17.9 M768.9,408.8l31.1-17.9 M762.7,405.2l31.1-17.9 M756.5,401.6l31.1-17.9 M949,365.8l-4.5-2.6 M944.5,363.2
			L923,375.6 M944.5,363.2V356 M810.6,285.8l-21.5-12.4 M789.1,273.4l-21.5,12.4 M789.1,273.4v-7.2 M762.6,218.6l-4.5-2.6 M758,216
			l-21.5,12.4 M758,216v-7.2 M748.4,210.5l-21.5-12.4 M727,198.1l-21.5,12.4 M727,198.1v-7.2 M530.9,160.2l-21.5-12.4 M509.4,147.8
			l-21.5,12.4 M509.4,147.8v-7.2 M546.7,167.4l-31.1,17.9 M552.9,171l-31.1,17.9 M559.1,174.6L528,192.5 M565.3,178.2l-31.1,17.9
			 M678.8,123.5l-31.1,17.9 M685,127l-31.1,17.9 M691.2,130.6l-31.1,18 M697.4,134.2l-31.1,17.9"/>
	</g>
	<g id="Plants_1_">
		<line class="st42" x1="532.1" y1="427.2" x2="527.9" y2="397.8"/>
		<line class="st42" x1="538.7" y1="427.2" x2="537.3" y2="392.3"/>
		<line class="st42" x1="545.6" y1="429.6" x2="549.7" y2="401.2"/>
		<line class="st42" x1="554.2" y1="428.9" x2="557.3" y2="413.2"/>
		<line class="st42" x1="529.5" y1="408.9" x2="532.7" y2="405"/>
		<line class="st42" x1="537.9" y1="407.7" x2="542.2" y2="400.5"/>
		<line class="st42" x1="548.1" y1="412.2" x2="543.5" y2="408.6"/>
		<line class="st42" x1="555.1" y1="425.1" x2="552.8" y2="421.5"/>
		<circle class="st42" cx="527.6" cy="395.1" r="3"/>
		<circle class="st42" cx="537.3" cy="387.9" r="4.5"/>
		<circle class="st42" cx="550" cy="399.4" r="1.9"/>
		<circle class="st42" cx="557.9" cy="410.5" r="3"/>
		<line class="st42" x1="527.6" y1="428.9" x2="524.9" y2="417.7"/>
		<line class="st42" x1="526.6" y1="424.9" x2="528" y2="422.2"/>
		<line class="st42" x1="530" y1="428.9" x2="530.5" y2="430.1"/>
		<line class="st42" x1="535.7" y1="431.2" x2="534.8" y2="429.5"/>
		<line class="st42" x1="538.4" y1="429.5" x2="538.8" y2="432.7"/>
		<line class="st42" x1="543.6" y1="432.7" x2="540.5" y2="432.7"/>
		<line class="st42" x1="542" y1="428.9" x2="540" y2="429.5"/>
		<line class="st42" x1="549.8" y1="431.9" x2="546.7" y2="432.7"/>
		<line class="st42" x1="548.8" y1="426.7" x2="547.7" y2="428.9"/>
		<line class="st42" x1="543.6" y1="422.2" x2="542.9" y2="424.9"/>
		<line class="st42" x1="541.8" y1="419.6" x2="540.5" y2="420.4"/>
		<line class="st42" x1="536" y1="424.9" x2="535.2" y2="423.1"/>
		<line class="st42" x1="534.3" y1="420" x2="535.2" y2="418.6"/>
		<line class="st42" x1="543.3" y1="416.8" x2="545.3" y2="416.8"/>
		<line class="st42" x1="549.8" y1="423.3" x2="551.2" y2="424.9"/>
		<line class="st42" x1="557.9" y1="425.4" x2="557.9" y2="426.7"/>
		<line class="st42" x1="538" y1="434.6" x2="540" y2="436"/>
		<line class="st42" x1="344.9" y1="319.1" x2="340.8" y2="289.7"/>
		<line class="st42" x1="351.5" y1="319.1" x2="350.1" y2="284.1"/>
		<line class="st42" x1="358.4" y1="321.5" x2="362.5" y2="293.1"/>
		<line class="st42" x1="367" y1="320.7" x2="370.1" y2="305.1"/>
		<line class="st42" x1="342.3" y1="300.8" x2="345.6" y2="296.9"/>
		<line class="st42" x1="350.7" y1="299.6" x2="355" y2="292.4"/>
		<line class="st42" x1="360.9" y1="304" x2="356.3" y2="300.5"/>
		<line class="st42" x1="367.9" y1="317" x2="365.6" y2="313.4"/>
		<ellipse transform="matrix(0.1602 -0.9871 0.9871 0.1602 2.5954 576.9611)" class="st42" cx="340.4" cy="287" rx="3" ry="3"/>
		<circle class="st42" cx="350.1" cy="279.8" r="4.5"/>
		<circle class="st42" cx="362.8" cy="291.3" r="1.9"/>
		<circle class="st42" cx="370.7" cy="302.3" r="3"/>
		<line class="st42" x1="340.4" y1="320.7" x2="337.8" y2="309.6"/>
		<line class="st42" x1="339.4" y1="316.8" x2="340.9" y2="314.1"/>
		<line class="st42" x1="342.8" y1="320.7" x2="343.3" y2="322"/>
		<line class="st42" x1="348.5" y1="323.1" x2="347.6" y2="321.4"/>
		<line class="st42" x1="351.2" y1="321.4" x2="351.6" y2="324.5"/>
		<line class="st42" x1="356.4" y1="324.5" x2="353.3" y2="324.5"/>
		<line class="st42" x1="354.8" y1="320.7" x2="352.8" y2="321.4"/>
		<line class="st42" x1="362.6" y1="323.8" x2="359.5" y2="324.5"/>
		<line class="st42" x1="361.6" y1="318.6" x2="360.5" y2="320.7"/>
		<line class="st42" x1="356.4" y1="314.1" x2="355.7" y2="316.8"/>
		<line class="st42" x1="354.6" y1="311.5" x2="353.3" y2="312.3"/>
		<line class="st42" x1="348.9" y1="316.8" x2="348" y2="315"/>
		<line class="st42" x1="347.1" y1="311.9" x2="348" y2="310.5"/>
		<line class="st42" x1="356.1" y1="308.7" x2="358.1" y2="308.7"/>
		<line class="st42" x1="362.6" y1="315.2" x2="364" y2="316.8"/>
		<line class="st42" x1="370.7" y1="317.3" x2="370.7" y2="318.6"/>
		<line class="st42" x1="350.8" y1="326.5" x2="352.8" y2="327.9"/>
		<line class="st42" x1="718.4" y1="212.4" x2="714.3" y2="183"/>
		<line class="st42" x1="725" y1="212.4" x2="723.6" y2="177.5"/>
		<line class="st42" x1="731.9" y1="214.9" x2="736" y2="186.4"/>
		<line class="st42" x1="740.5" y1="214.1" x2="743.6" y2="198.4"/>
		<line class="st42" x1="715.8" y1="194.2" x2="719.1" y2="190.2"/>
		<line class="st42" x1="724.2" y1="192.9" x2="728.5" y2="185.7"/>
		<line class="st42" x1="734.4" y1="197.4" x2="729.8" y2="193.8"/>
		<line class="st42" x1="741.4" y1="210.3" x2="739.1" y2="206.7"/>
		<circle class="st42" cx="713.9" cy="180.3" r="3"/>
		<circle class="st42" cx="723.6" cy="173.2" r="4.5"/>
		<circle class="st42" cx="736.3" cy="184.7" r="1.9"/>
		<circle class="st42" cx="744.2" cy="195.7" r="3"/>
		<line class="st42" x1="713.9" y1="214.1" x2="711.3" y2="202.9"/>
		<line class="st42" x1="712.9" y1="210.1" x2="714.4" y2="207.4"/>
		<line class="st42" x1="716.3" y1="214.1" x2="716.9" y2="215.3"/>
		<line class="st42" x1="722" y1="216.4" x2="721.1" y2="214.7"/>
		<line class="st42" x1="724.7" y1="214.7" x2="725.1" y2="217.9"/>
		<line class="st42" x1="729.9" y1="217.9" x2="726.8" y2="217.9"/>
		<line class="st42" x1="728.4" y1="214.1" x2="726.3" y2="214.7"/>
		<line class="st42" x1="736.1" y1="217.1" x2="733" y2="217.9"/>
		<line class="st42" x1="735.1" y1="211.9" x2="734" y2="214.1"/>
		<line class="st42" x1="729.9" y1="207.4" x2="729.2" y2="210.1"/>
		<line class="st42" x1="728.1" y1="204.8" x2="726.8" y2="205.6"/>
		<line class="st42" x1="722.4" y1="210.1" x2="721.5" y2="208.3"/>
		<line class="st42" x1="720.6" y1="205.2" x2="721.5" y2="203.8"/>
		<line class="st42" x1="729.6" y1="202" x2="731.6" y2="202"/>
		<line class="st42" x1="736.1" y1="208.5" x2="737.5" y2="210.1"/>
		<line class="st42" x1="744.2" y1="210.6" x2="744.2" y2="211.9"/>
		<line class="st42" x1="724.3" y1="219.8" x2="726.3" y2="221.2"/>
		<line class="st42" x1="780" y1="287.3" x2="775.9" y2="257.9"/>
		<line class="st42" x1="786.6" y1="287.3" x2="785.2" y2="252.4"/>
		<line class="st42" x1="793.6" y1="289.7" x2="797.7" y2="261.3"/>
		<line class="st42" x1="802.2" y1="289" x2="805.3" y2="273.3"/>
		<line class="st42" x1="777.5" y1="269" x2="780.7" y2="265.1"/>
		<line class="st42" x1="785.8" y1="267.8" x2="790.1" y2="260.6"/>
		<line class="st42" x1="796.1" y1="272.3" x2="791.4" y2="268.7"/>
		<line class="st42" x1="803" y1="285.2" x2="800.8" y2="281.6"/>
		<circle class="st42" cx="775.5" cy="255.2" r="3"/>
		<circle class="st42" cx="785.2" cy="248.1" r="4.5"/>
		<circle class="st42" cx="797.9" cy="259.5" r="1.9"/>
		<circle class="st42" cx="805.8" cy="270.6" r="3"/>
		<line class="st42" x1="775.5" y1="289" x2="772.9" y2="277.8"/>
		<line class="st42" x1="774.6" y1="285" x2="776" y2="282.3"/>
		<line class="st42" x1="778" y1="289" x2="778.5" y2="290.2"/>
		<line class="st42" x1="783.6" y1="291.3" x2="782.7" y2="289.6"/>
		<line class="st42" x1="786.4" y1="289.6" x2="786.7" y2="292.8"/>
		<line class="st42" x1="791.5" y1="292.8" x2="788.4" y2="292.8"/>
		<line class="st42" x1="790" y1="289" x2="788" y2="289.6"/>
		<line class="st42" x1="797.8" y1="292" x2="794.7" y2="292.8"/>
		<line class="st42" x1="796.7" y1="286.8" x2="795.6" y2="289"/>
		<line class="st42" x1="791.5" y1="282.3" x2="790.9" y2="285"/>
		<line class="st42" x1="789.7" y1="279.7" x2="788.4" y2="280.5"/>
		<line class="st42" x1="784" y1="285" x2="783.2" y2="283.2"/>
		<line class="st42" x1="782.2" y1="280.1" x2="783.2" y2="278.7"/>
		<line class="st42" x1="791.2" y1="276.9" x2="793.2" y2="276.9"/>
		<line class="st42" x1="797.8" y1="283.4" x2="799.2" y2="285"/>
		<line class="st42" x1="805.8" y1="285.5" x2="805.8" y2="286.8"/>
		<line class="st42" x1="785.9" y1="294.7" x2="788" y2="296.1"/>
		<line class="st42" x1="501.3" y1="160.7" x2="497.2" y2="131.3"/>
		<line class="st42" x1="507.9" y1="160.7" x2="506.5" y2="125.7"/>
		<line class="st42" x1="514.9" y1="163.1" x2="518.9" y2="134.7"/>
		<line class="st42" x1="523.5" y1="162.3" x2="526.6" y2="146.7"/>
		<line class="st42" x1="498.8" y1="142.4" x2="502" y2="138.4"/>
		<line class="st42" x1="507.1" y1="141.1" x2="511.4" y2="134"/>
		<line class="st42" x1="517.4" y1="145.6" x2="512.7" y2="142"/>
		<line class="st42" x1="524.3" y1="158.5" x2="522.1" y2="154.9"/>
		<circle class="st42" cx="496.8" cy="128.6" r="3"/>
		<circle class="st42" cx="506.5" cy="121.4" r="4.5"/>
		<circle class="st42" cx="519.2" cy="132.9" r="1.9"/>
		<circle class="st42" cx="527.1" cy="143.9" r="3"/>
		<line class="st42" x1="496.8" y1="162.3" x2="494.2" y2="151.2"/>
		<line class="st42" x1="495.9" y1="158.3" x2="497.3" y2="155.7"/>
		<line class="st42" x1="499.3" y1="162.3" x2="499.8" y2="163.6"/>
		<line class="st42" x1="504.9" y1="164.6" x2="504" y2="162.9"/>
		<line class="st42" x1="507.7" y1="162.9" x2="508" y2="166.1"/>
		<line class="st42" x1="512.8" y1="166.1" x2="509.7" y2="166.1"/>
		<line class="st42" x1="511.3" y1="162.3" x2="509.3" y2="162.9"/>
		<line class="st42" x1="519.1" y1="165.4" x2="515.9" y2="166.1"/>
		<line class="st42" x1="518" y1="160.1" x2="516.9" y2="162.3"/>
		<line class="st42" x1="512.8" y1="155.7" x2="512.2" y2="158.4"/>
		<line class="st42" x1="511" y1="153" x2="509.7" y2="153.9"/>
		<line class="st42" x1="505.3" y1="158.4" x2="504.5" y2="156.6"/>
		<line class="st42" x1="503.5" y1="153.5" x2="504.5" y2="152.1"/>
		<line class="st42" x1="512.5" y1="150.3" x2="514.5" y2="150.3"/>
		<line class="st42" x1="519.1" y1="156.7" x2="520.5" y2="158.4"/>
		<line class="st42" x1="527.1" y1="158.8" x2="527.1" y2="160.1"/>
		<line class="st42" x1="507.2" y1="168.1" x2="509.3" y2="169.5"/>
		<line class="st42" x1="936.4" y1="376.1" x2="932.3" y2="346.7"/>
		<line class="st42" x1="943" y1="376.1" x2="941.6" y2="341.1"/>
		<line class="st42" x1="952.1" y1="364" x2="954.1" y2="350.1"/>
		<line class="st42" x1="933.9" y1="357.8" x2="937.1" y2="353.9"/>
		<line class="st42" x1="942.2" y1="356.5" x2="946.5" y2="349.4"/>
		<line class="st42" x1="952.5" y1="361" x2="947.8" y2="357.4"/>
		<circle class="st42" cx="931.9" cy="344" r="3"/>
		<circle class="st42" cx="941.6" cy="336.8" r="4.5"/>
		<circle class="st42" cx="954.3" cy="348.3" r="1.9"/>
		<line class="st42" x1="931.9" y1="377.7" x2="929.3" y2="366.6"/>
		<line class="st42" x1="931" y1="373.8" x2="932.4" y2="371.1"/>
		<line class="st42" x1="934.4" y1="377.7" x2="934.9" y2="379"/>
		<line class="st42" x1="940" y1="380" x2="939.1" y2="378.3"/>
		<line class="st42" x1="942.8" y1="378.3" x2="943.1" y2="381.5"/>
		<line class="st42" x1="940.4" y1="373.8" x2="939.6" y2="372"/>
		<line class="st42" x1="938.6" y1="368.9" x2="939.6" y2="367.5"/>
		<line class="st42" x1="944.4" y1="365.7" x2="946.4" y2="365.7"/>
		<line class="st42" x1="941.1" y1="383.5" x2="943.2" y2="384.9"/>
		<line class="st42" x1="768" y1="227" x2="771.7" y2="200.5"/>
		<line class="st42" x1="761.5" y1="219.3" x2="762.4" y2="194.9"/>
		<line class="st42" x1="754.1" y1="232.3" x2="750" y2="203.9"/>
		<line class="st42" x1="745.5" y1="231.5" x2="742.4" y2="215.9"/>
		<line class="st42" x1="770.2" y1="211.6" x2="767" y2="207.7"/>
		<line class="st42" x1="761.8" y1="210.4" x2="757.5" y2="203.2"/>
		<circle class="st42" cx="772.1" cy="197.8" r="3"/>
		<circle class="st42" cx="762.4" cy="190.6" r="4.5"/>
		<circle class="st42" cx="749.7" cy="202.1" r="1.9"/>
		<circle class="st42" cx="741.8" cy="213.1" r="3"/>
		<line class="st42" x1="741.5" y1="227.8" x2="742.1" y2="229.3"/>
		<line class="st42" x1="748.7" y1="228.9" x2="749.7" y2="216.3"/>
		<line class="st42" x1="749.3" y1="221.5" x2="747.8" y2="219.5"/>
		<line class="st42" x1="749.2" y1="232.1" x2="750.3" y2="233"/>
		<line class="st42" x1="751.6" y1="226.6" x2="752" y2="228.4"/>
		<line class="st42" x1="755.5" y1="219.9" x2="755" y2="221.2"/>
		<line class="st42" x1="756.2" y1="224.3" x2="754.2" y2="224.1"/>
		<line class="st42" x1="755.9" y1="227" x2="756" y2="229.1"/>
		<line class="st42" x1="756.4" y1="232.5" x2="756.6" y2="233.8"/>
		<line class="st42" x1="753.2" y1="233.8" x2="754.7" y2="235.6"/>
		<line class="st42" x1="757.5" y1="236.9" x2="755.2" y2="237.4"/>
		<line class="st42" x1="758.9" y1="217.3" x2="757.7" y2="219.3"/>
	</g>
	<g id="People_1_" class="st43">
		
			<image style="overflow:visible;enable-background:new    ;" width="348" height="692" xlink:href="map_pngs/OU Graphics - Scale Figure Pack - People - Black B (1).png"  transform="matrix(7.082975e-02 0 0 7.082975e-02 309.3526 294.8542)">
		</image>
		
			<image style="overflow:visible;enable-background:new    ;" width="649" height="644" xlink:href="map_pngs/OU Graphics - Scale Figure Pack - People - Black B (5).png"  transform="matrix(7.776500e-02 0 0 7.776500e-02 637.0544 312.5145)">
		</image>
		
			<image style="overflow:visible;enable-background:new    ;" width="325" height="651" xlink:href="map_pngs/OU Graphics - Scale Figure Pack - People - Black B (8).png"  transform="matrix(7.634966e-02 0 0 7.634966e-02 668.7402 177.2203)">
		</image>
	</g>
	<g id="Border_x5F_Diploma">
		<path class="st79" d="M478.3,336.1L416.1,372 M416.2,372L354,336.1 M416.2,300.2l31.1,17.9 M354,336.1l31.1-17.9 M385.1,318.1
			l31.1-17.9 M447.2,318.1l3.1,1.8 M450.4,319.9l2.5,1.5 M452.9,321.4l25.4,14.7"/>
		<g id="Layer_14_1_">
			<polygon class="st79" points="354,336.1 416.2,300.2 478.3,336.1 416.2,372 			"/>
		</g>
	</g>
	<g id="Border_x5F_BSc_1">
		<path class="st79" d="M509.4,425.8l-62.2,35.9 M447.2,461.7l-62.1-35.9 M481.4,409.7l-34.2-19.8 M385.1,425.8l22.6-13.1
			 M407.7,412.8l2.3-1.3 M409.9,411.4l3.1-1.8 M506.3,424l3.1,1.8 M413.1,409.7l6.2-3.6 M500.1,420.4l6.2,3.6 M419.3,406.1l6.2-3.6
			 M493.9,416.8l6.2,3.6 M425.5,402.5l6.2-3.6 M481.4,409.7l6.2,3.6 M487.6,413.2l6.2,3.6 M431.7,398.9l6.2-3.6 M437.9,395.3
			l6.2-3.6 M444.1,391.7l3.1-1.8"/>
		<polygon class="st79" points="385.1,425.8 447.2,389.9 509.4,425.8 447.2,461.7 		"/>
	</g>
	<g id="Border_x5F_BSc_2">
		<path class="st79" d="M509.4,354l62.2-35.9 M571.6,318.1l62.2,35.9 M633.7,354l-62.1,35.9 M571.6,389.9L509.4,354"/>
		<polygon class="st79" points="509.4,354 571.6,318.1 633.7,354 571.6,389.9 		"/>
	</g>
	<g id="Border_x5F_BSc_3_Conservation">
		<path class="st79" d="M664.8,160.2l-62.2,35.9 M602.6,196.1l-62.2-35.9 M540.5,160.2l62.2-35.9 M602.6,124.4l62.2,35.9"/>
		<polygon class="st79" points="540.5,160.2 602.6,124.4 664.8,160.2 602.6,196.1 		"/>
	</g>
	<g id="Border_x5F_BSc_3_Design">
		<path class="st79" d="M668.2,266l-34.5,19.9 M633.7,285.8l-62.2-35.9 M667.9,233.8l26.6,15.3 M694.5,249.1l-26.3,15.2 M571.6,250
			l53.7-31 M625.2,219l2.3-1.3 M627.5,217.7l3.1-1.8 M630.6,215.9l3.1-1.8 M661.7,230.2l6.2,3.6 M668.2,266v-1.6 M655.5,226.6
			l6.2,3.6 M649.3,223l6.2,3.6 M643,219.5l6.2,3.6 M633.7,214.1l3.1,1.8 M636.8,215.9l6.2,3.6"/>
		<polygon class="st79" points="571.6,250 633.7,214.1 694.5,249.1 668.2,264.3 668.2,266 633.7,285.8 		"/>
	</g>
	<g id="Border_x5F_BSc_3_Urban">
		<path class="st79" d="M913.4,375.6l-62.2,35.9 M851.3,411.4l-62.2-35.8 M789.1,375.6l53.7-31 M842.8,344.6l2.3-1.3 M891.7,363
			l6.2,3.6 M897.9,366.6l6.2,3.6 M845.1,343.3l3.1-1.8 M848.2,341.5l3.1-1.8 M885.5,359.4l6.2,3.6 M904.1,370.2l6.2,3.6
			 M910.3,373.8l3.1,1.8 M851.3,339.7l3.1,1.8 M854.4,341.5l31.1,17.9"/>
		<polygon class="st79" points="789.1,375.6 851.3,339.7 913.4,375.6 851.3,411.4 		"/>
	</g>
	<g id="Border_x5F_BSc_3_Structures">
		<path class="st79" d="M913.4,267.9l62.2,35.9 M975.6,303.8l-62.2,35.9 M913.4,339.7l-62.2-35.9 M851.3,303.8l62.2-35.9"/>
		<polygon class="st79" points="851.3,303.8 913.4,267.9 975.6,303.8 913.4,339.7 		"/>
	</g>
</g>
</svg>
