<?xml version="1.0" encoding="utf-8"?>
<!-- Generator: Adobe Illustrator 24.0.0, SVG Export Plug-In . SVG Version: 6.00 Build 0)  -->
<svg version="1.1" id="Layer_1" xmlns="http://www.w3.org/2000/svg" xmlns:xlink="http://www.w3.org/1999/xlink" x="0px" y="0px"
	 viewBox="0 0 1191 604" style="enable-background:new 0 0 1191 604;" xml:space="preserve">
<style type="text/css">
	.st0{fill:none;stroke:#000000;stroke-width:0.5;stroke-miterlimit:10;}
	.st1{opacity:0.7;}
	.st2{fill:none;stroke:#000000;stroke-width:0.3;stroke-miterlimit:10;}
	.st3{fill:none;stroke:#000000;stroke-width:0.3;stroke-miterlimit:10;stroke-dasharray:1.9042,1.9042;}
	.st4{fill:none;stroke:#000000;stroke-width:0.3;stroke-miterlimit:10;stroke-dasharray:2.071,2.071;}
	.st5{fill:none;stroke:#000000;stroke-width:0.3;stroke-miterlimit:10;stroke-dasharray:1.9934,1.9934;}
	.st6{fill:none;stroke:#000000;stroke-width:0.3;stroke-miterlimit:10;stroke-dasharray:1.9933,1.9933;}
	.st7{fill:none;stroke:#000000;stroke-width:0.3;stroke-miterlimit:10;stroke-dasharray:1.9157,1.9157;}
	.st8{fill:none;stroke:#000000;stroke-width:0.3;stroke-miterlimit:10;stroke-dasharray:1.182,1.182;}
	.st9{fill:none;stroke:#000000;stroke-width:0.3;stroke-miterlimit:10;stroke-dasharray:2.031,2.031;}
	.st10{fill:none;stroke:#000000;stroke-width:0.3;stroke-miterlimit:10;stroke-dasharray:1.8736,1.8736;}
	.st11{fill:none;stroke:#000000;stroke-width:0.3;stroke-miterlimit:10;stroke-dasharray:1.8734,1.8734;}
	.st12{fill:none;stroke:#000000;stroke-width:0.3;stroke-miterlimit:10;stroke-dasharray:2.0989,2.0989;}
	.st13{fill:none;stroke:#000000;stroke-width:0.3;stroke-miterlimit:10;stroke-dasharray:2.563,2.563;}
	.st14{fill:none;stroke:#000000;stroke-width:0.3;stroke-miterlimit:10;stroke-dasharray:1.0719,1.0719;}
	.st15{fill:none;stroke:#000000;stroke-width:0.3;stroke-miterlimit:10;stroke-dasharray:2.5414,2.5414;}
	.st16{fill:none;stroke:#000000;stroke-width:0.3;stroke-miterlimit:10;stroke-dasharray:2.5631,2.5631;}
	.st17{fill:none;stroke:#000000;stroke-width:0.3;stroke-miterlimit:10;stroke-dasharray:1.9158,1.9158;}
	.st18{fill:none;stroke:#000000;stroke-width:0.3;stroke-miterlimit:10;stroke-dasharray:1.1353,1.1353;}
	.st19{fill:none;stroke:#000000;stroke-width:0.3;stroke-miterlimit:10;stroke-dasharray:2.0199,2.0199;}
	.st20{fill:none;stroke:#000000;stroke-width:0.3;stroke-miterlimit:10;stroke-dasharray:1.8613,1.8613;}
	.st21{fill:none;stroke:#000000;stroke-width:0.3;stroke-miterlimit:10;stroke-dasharray:1.3667,1.3667;}
	.st22{fill:none;stroke:#000000;stroke-width:0.3;stroke-miterlimit:10;stroke-dasharray:1.3036,1.3036;}
	.st23{fill:none;stroke:#000000;stroke-width:0.3;stroke-miterlimit:10;stroke-dasharray:1.367,1.367;}
	.st24{fill:none;stroke:#000000;stroke-width:0.3;stroke-miterlimit:10;stroke-dasharray:1.3669,1.3669;}
	.st25{fill:none;stroke:#000000;stroke-width:0.3;stroke-miterlimit:10;stroke-dasharray:1.1277,1.1277;}
	.st26{fill:none;stroke:#000000;stroke-width:0.3;stroke-miterlimit:10;stroke-dasharray:2.0546,2.0546;}
	.st27{fill:none;stroke:#000000;stroke-width:0.3;stroke-miterlimit:10;stroke-dasharray:2.5634,2.5634;}
	.st28{fill:none;stroke:#000000;stroke-width:0.3;stroke-miterlimit:10;stroke-dasharray:1.8476,1.8476;}
	.st29{fill:none;stroke:#000000;stroke-width:0.3;stroke-miterlimit:10;stroke-dasharray:2.1702,2.1702;}
	.st30{fill:none;stroke:#000000;stroke-width:0.3;stroke-miterlimit:10;stroke-dasharray:2.2696,2.2696;}
	.st31{fill:none;stroke:#000000;stroke-width:0.3;stroke-miterlimit:10;stroke-dasharray:2.1019,2.1019;}
	.st32{fill:none;stroke:#000000;stroke-width:0.3;stroke-miterlimit:10;stroke-dasharray:1.1356,1.1356;}
	.st33{fill:none;stroke:#000000;stroke-width:0.3;stroke-miterlimit:10;stroke-dasharray:2.0129,2.0129;}
	.st34{fill:none;stroke:#000000;stroke-width:0.3;stroke-miterlimit:10;stroke-dasharray:2.5633,2.5633;}
	.st35{fill:none;stroke:#000000;stroke-width:0.2;stroke-miterlimit:10;}
	.st36{opacity:0.6;}
	.st37{fill:#D00000;stroke:#E70000;stroke-width:0.5;stroke-miterlimit:10;}
</style>
<g id="Foundation_Lines">
	<path class="st0" d="M296.4,334.4l31.1,17.9 M327.5,352.3v3.6 M327.5,355.9l2.6-1.8 M296.4,330.8l6.2,3.6 M358.6,330.8l-6.2-3.6
		 M327.5,352.3v-3.6 M296.4,334.4v-3.6 M321.3,345.1l6.2,3.6 M346.2,323.6L340,320 M308.9,338l6.2,3.6 M339.9,320l-6.2-3.6
		 M302.6,334.4l6.2,3.6 M333.7,316.4l-6.2-3.6 M352.4,327.2l-6.2-3.6 M315.1,341.5l6.2,3.6 M762.6,244.6l-6.2-3.6 M737.8,230.3
		l-6.2-3.6 M750.2,237.5l-6.2-3.6 M756.4,241.1l-6.2-3.6 M731.5,262.6l-3.4-1.9 M744,233.9l-6.2-3.6 M607.2,190.8v-3.6 M669.4,154.9
		v-3.6 M545.1,154.9v-3.6 M576.1,424.1l31.1-17.9 M576.1,427.7v-3.6 M576.1,427.7l-2.6-1.8 M576.1,420.5l6.2-3.6 M576.1,384.6
		l-6.2,3.6 M607.2,406.1v-3.6 M576.1,424.1v-3.6 M601,406.1l6.2-3.6 M563.7,391.8l-6.2,3.6 M588.6,413.3l6.2-3.6 M557.5,395.4
		l-6.2,3.6 M582.4,416.9l6.2-3.6 M569.9,388.2l-6.2,3.6 M594.8,409.7l6.2-3.6 M389.7,420.5v-3.6 M514,420.5v-3.6 M451.8,456.4v-3.6
		 M451.8,456.4l-62.2-35.9 M510.9,422.3l3.1,1.8 M514,427.7l-5.7-3.9 M514,424.1v3.6 M514,427.7l2.6-1.8 M514,384.6l-28,16.1
		 M514,424.1v-3.6 M532.6,395.4l-6.2-3.6 M526.4,391.8l-6.2-3.6 M520.2,388.2l-6.2-3.6 M538.9,399l-6.2-3.6 M514,180l2.6-1.8
		 M514,180v-3.6 M482.9,158.5l31.1,17.9 M482.9,158.5v-10.8 M482.9,147.8l31.1,17.9 M514,165.7l31.1-17.9 M545.1,147.8l-31.1-18
		 M514,129.8l-31.1,17.9 M541.7,147.8l-27.7-16 M514,131.8l-27.7,16 M545.1,198l31.1-21.5 M545.1,194.4l31.1-17.9 M545.1,198v-3.6
		 M514,176.5l31.1,17.9 M576.1,172.9l-6.2-3.6 M545.1,154.9l-31.1,18 M514,172.9l6.2,3.6 M545.1,190.8l31.1-17.9 M576.1,176.5v-3.6
		 M514,176.5v-3.6 M545.1,194.4v-3.6 M551.3,158.5l-6.2-3.6 M526.4,180l6.2,3.6 M563.7,165.7l-6.2-3.6 M532.6,183.6l6.2,3.6
		 M569.9,169.3l-6.2-3.6 M538.9,187.2l6.2,3.6 M520.2,176.5l6.2,3.6 M557.5,162.1l-6.2-3.6 M607.2,406.1l31.1-17.9 M607.2,409.7
		v-3.6 M607.2,409.7l-2.6-1.8 M638.3,384.6l-6.2-3.6 M607.2,366.7l-31.1,17.9 M576.1,384.6l6.2,3.6 M607.2,402.5l31.1-17.9
		 M638.3,388.2v-3.6 M613.4,370.3l-6.2-3.6 M588.6,391.8l6.2,3.6 M625.9,377.4l-6.2-3.6 M594.8,395.4l6.2,3.6 M632.1,381l-6.2-3.6
		 M601,399l6.2,3.6 M582.4,388.2l6.2,3.6 M619.7,373.8l-6.2-3.6 M669.4,370.3l31.1-17.9 M669.4,373.8v-3.6 M669.4,373.8l-2.6-1.8
		 M700.5,348.7l-6.2-3.6 M669.4,330.8l-31.1,17.9 M638.3,348.7l6.2,3.6 M669.4,366.7l31.1-17.9 M700.5,352.3v-3.6 M669.4,370.3v-3.6
		 M675.6,334.4l-6.2-3.6 M650.7,355.9l6.2,3.6 M688,341.5l-6.2-3.6 M657,359.5l6.2,3.6 M694.2,345.1l-6.2-3.6 M663.2,363.1l6.2,3.6
		 M644.5,352.3l6.2,3.6 M681.8,338l-6.2-3.6 M762.6,287.7v-3.6 M765.2,285.9l-2.6,1.8 M762.6,287.7l-2.6-1.8 M787.5,259l-24.9-14.4
		 M762.6,244.6l-6.2,3.6 M762.6,284.1v-3.6 M750.2,251.8l-6.2,3.6 M744,255.4l-6.2,3.6 M737.8,259l-6.2,3.6 M756.4,248.2l-6.2,3.6
		 M731.5,302.1l31.1-17.9 M731.5,305.7v-3.6 M762.6,280.5l-6.2-3.6 M731.5,262.6l-31.1,17.9 M700.5,280.5l6.2,3.6 M731.5,298.5
		l31.1-17.9 M731.5,302.1v-3.6 M737.8,266.2l-6.2-3.6 M712.9,287.7l6.2,3.6 M750.2,273.4l-6.2-3.6 M719.1,291.3l6.2,3.6
		 M756.4,276.9l-6.2-3.6 M725.3,294.9l6.2,3.6 M706.7,284.1l6.2,3.6 M744,269.8l-6.2-3.6 M677.2,154l31.1-21.5 M677.2,150.4
		l31.1-17.9 M677.2,154v-3.6 M677.2,154l-31.1-21.5 M646.1,132.5l31.1,17.9 M708.2,128.9l-6.2-3.6 M677.2,111l-31.1,17.9
		 M652.3,132.5l-6.2-3.6 M677.2,146.9l31.1-17.9 M708.2,132.5v-3.6 M646.1,132.5v-3.6 M677.2,150.4v-3.6 M683.4,114.6l-6.2-3.6
		 M664.7,139.7l-6.2-3.6 M695.8,121.7l-6.2-3.6 M664.7,139.7l6.2,3.6 M702,125.3l-6.2-3.6 M670.9,143.3l6.2,3.6 M652.3,132.5
		l6.2,3.6 M689.6,118.1l-6.2-3.6 M638.3,280.5v-3.6 M638.3,280.5l-62.2-35.9 M576.1,244.6V241 M545.1,442l31.1-17.9 M514,424.1
		l31.1,17.9 M545.1,442v3.6 M545.1,442v-10.8 M514,413.3l31.1,17.9 M545.1,431.3l31.1-17.9 M545.1,397.3l-27.7,16 M572.8,413.3
		l-27.7-16 M705,242l1.7-1 M731.5,226.7l-31.1-17.9 M700.5,208.8l-6.2,3.6 M725.3,230.3l6.2-3.6 M688,215.9l-6.2,3.6 M712.9,237.5
		l6.2-3.6 M681.8,219.5l-6.2,3.6 M706.7,241.1l6.2-3.6 M675.6,223.1l-3.1,1.8 M694.2,212.3l-6.2,3.6 M719.1,233.9l6.2-3.6
		 M293.8,336.2l2.6,1.8 M296.4,338l2.6-1.8 M296.4,338v-3.6 M296.4,294.9l-6.2,3.6 M296.4,330.8l6.2-3.6 M327.5,312.8l-31.1-17.9
		 M308.9,323.6l6.2-3.6 M315.1,320l6.2-3.6 M327.5,312.8l-6.2,3.6 M302.6,327.2l6.2-3.6 M389.7,388.2l24.9,14.4 M420.8,366.7
		l-6.2,3.6 M389.7,384.6l28,16.1 M448.7,382.8l-28-16.1 M389.7,388.2v-3.6 M395.9,381l-6.2,3.6 M402.1,377.4l6.2-3.6 M414.5,370.3
		l-6.2,3.6 M402.1,377.4l-6.2,3.6 M762.6,212.3l31.1,17.9 M793.7,230.3l31.1-17.9 M824.8,212.3l-31.1-17.9 M793.7,255.4v-25.1
		 M824.8,244.6v-32.3 M358.6,330.8v-3.6 M482.9,330.8v-3.6 M482.9,330.8l-62.2,35.9 M420.8,366.7v-3.6 M327.5,312.8v-7.2
		 M389.7,309.2v-3.6 M389.7,305.7l-31.1-17.9 M358.6,287.7l-31.1,17.9 M327.5,305.7l31.1,17.9 M358.6,323.6l31.1-17.9 M358.6,289.7
		l-27.7,16 M386.3,305.7l-27.7-16 M327.5,352.3l31.1,17.9 M358.6,373.8l2.6-1.8 M358.6,373.8v-3.6 M358.6,330.8l-6.2,3.6
		 M327.5,348.7l31.1,17.9 M358.6,366.7l6.2-3.6 M389.7,348.7l-31.1-17.9 M358.6,370.3v-3.6 M333.7,345.1l-6.2,3.6 M371,359.5
		l6.2-3.6 M346.2,338l-6.2,3.6 M377.2,355.9l6.2-3.6 M352.4,334.4l-6.2,3.6 M383.5,352.3l6.2-3.6 M364.8,363.1l6.2-3.6 M339.9,341.5
		l-6.2,3.6 M700.5,208.8l-6.2-3.6 M675.6,194.4l-6.2-3.6 M688,201.6l-6.2-3.6 M694.2,205.2l-6.2-3.6 M681.8,198l-6.2-3.6
		 M358.6,370.3l31.1,17.9 M389.7,388.2v3.6 M389.7,391.8l2.6-1.8 M364.8,370.3l-6.2-3.6 M420.8,366.7l-6.2-3.6 M383.5,381l6.2,3.6
		 M408.3,359.5l-6.2-3.6 M371,373.8l6.2,3.6 M402.1,355.9l-6.2-3.6 M371,373.8l-6.2-3.6 M395.9,352.3l-6.2-3.6 M414.5,363.1
		l-6.2-3.6 M377.2,377.4l6.2,3.6 M381.9,460.9L413,443 M350.8,442.9l31.1,17.9 M381.9,464.5L350.8,443 M381.9,460.9v3.6
		 M381.9,464.5L413,443 M350.8,439.3l6.2,3.6 M381.9,457.3l31.1-17.9 M413,439.3l-6.2-3.6 M381.9,421.4l-31.1,17.9 M381.9,460.9
		v-3.6 M350.8,442.9v-3.6 M413,442.9v-3.6 M375.7,453.7l6.2,3.6 M400.5,432.2l-6.2-3.6 M363.3,446.5l6.2,3.6 M394.3,428.6l-6.2-3.6
		 M357,442.9l6.2,3.6 M381.9,421.4l6.2,3.6 M406.8,435.7l-6.2-3.6 M369.5,450.1l6.2,3.6 M514,348.7v-3.6 M638.3,348.7v-3.6
		 M576.1,384.6V381 M576.1,384.6L514,348.7 M669.4,262.6l31.1,17.9 M669.4,266.2v-3.6 M669.4,266.2l28,16.1 M694.8,283.8l-25.4-17.6
		 M672.8,260.6l-3.4,1.9 M672.8,262.6l27.7,16 M700.5,278.6l27.7-16 M700.5,278.6v-7.2 M638.3,388.2l31.1-17.9 M638.3,391.8v-3.6
		 M638.3,391.8l-2.6-1.8 M638.3,384.6l6.2-3.6 M638.3,348.7l-6.2,3.6 M663.2,370.3l6.2-3.6 M625.9,355.9l-6.2,3.6 M650.7,377.4
		l6.2-3.6 M619.7,359.5l-6.2,3.6 M644.5,381l6.2-3.6 M613.4,363.1l-6.2,3.6 M632.1,352.3l-6.2,3.6 M657,373.8l6.2-3.6 M234.3,334.4
		l31.1,17.9 M265.4,352.3v3.6 M265.4,352.3l31.1-17.9 M265.4,355.9l-31.1-21.5 M265.4,284.1L234.3,302 M234.3,302.1l31.1,17.9
		 M265.4,320l31.1-17.9 M234.3,334.4v-32.3 M265.4,352.3V320 M697.9,354.1l2.6,1.8 M700.5,355.9l31.1-21.5 M700.5,355.9v-3.6
		 M700.5,352.3l31.1-17.9 M669.4,330.8v-6.5 M725.3,302.1l6.2-3.6 M694.2,284.1l31.1,17.9 M700.5,342.3l6.2-3.6 M675.6,320.7
		l31.1,17.9 M675.6,320.7l-6.2,3.6 M669.4,324.3l31.1,17.9 M706.7,332.2v6.5 M675.6,314.3v6.5 M706.7,332.2l6.2-3.6 M681.8,310.7
		l31.1,17.9 M681.8,310.7l-6.2,3.6 M675.6,314.3l31.1,17.9 M712.9,322.2v6.5 M681.8,304.2v6.5 M712.9,322.2l6.2-3.6 M688,300.6
		l31.1,17.9 M688,300.6l-6.2,3.6 M681.8,304.2l31.1,17.9 M719.1,312.1v6.5 M688,294.2v6.5 M719.1,312.1l6.2-3.6 M694.2,290.6
		l31.1,17.9 M694.2,290.6l-6.2,3.6 M688,294.2l31.1,17.9 M725.3,302.1v6.5 M694.2,284.1v6.5 M886.9,316.4l-6.2,3.6 M890,350.5
		l3.1-1.8 M918,334.4l-31.1-17.9 M862.1,330.8l-3.1,1.8 M899.4,345.1l6.2-3.6 M874.5,323.6l-6.2,3.6 M905.6,341.5l6.2-3.6
		 M880.7,320l-6.2,3.6 M911.8,338l6.2-3.6 M893.2,348.7l6.2-3.6 M868.3,327.2l-6.2,3.6 M918,377.4l2.6-1.8 M918,377.4v-3.6
		 M918,377.4l-5.7-3.9 M914.9,372l3.1,1.8 M918,373.8v-3.6 M924.2,338l-6.2-3.6 M936.7,345.1l-6.2-3.6 M942.9,348.7l-6.2-3.6
		 M930.4,341.5l-6.2-3.6 M793.7,302.1l31.1,17.9 M824.8,323.6l2.6-1.8 M824.8,323.6V320 M824.8,280.5l-6.2,3.6 M793.7,298.5
		l31.1,17.9 M824.8,316.4l6.2-3.6 M793.7,302.1v-3.6 M824.8,320v-3.6 M799.9,294.9l-6.2,3.6 M837.2,309.2l6.2-3.6 M812.3,287.7
		l-6.2,3.6 M843.4,305.7l6.2-3.6 M818.6,284.1l-6.2,3.6 M849.6,302.1l6.2-3.6 M831,312.8l6.2-3.6 M806.1,291.3l-6.2,3.6
		 M980.2,298.5v-3.6 M980.2,298.5L918,334.4 M918,334.4v-3.6 M855.9,298.5v-3.6 M830.4,283.8l25.4-17.6 M827.9,282.3l28-16.1
		 M824.8,244.6l-6.2,3.6 M824.8,280.5l6.2-3.6 M855.9,262.6l-31.1-17.9 M855.9,266.2v-3.6 M837.2,273.4l6.2-3.6 M812.3,251.8
		l-6.2,3.6 M843.4,269.8l6.2-3.6 M818.6,248.2l-6.2,3.6 M849.6,266.2l6.2-3.6 M831,276.9l6.2-3.6 M806.1,255.4l-6.2,3.6 M824.8,320
		l24.9,14.4 M886.9,316.4l-6.2-3.6 M824.8,316.4l6.2,3.6 M862.1,302.1l-6.2-3.6 M837.2,323.6l6.2,3.6 M874.5,309.2l-6.2-3.6
		 M843.4,327.2l6.2,3.6 M880.7,312.8l-6.2-3.6 M849.6,330.8l3.1,1.8 M831,320l6.2,3.6 M868.3,305.7l-6.2-3.6 M454.9,275.2l28-16.1
		 M482.9,259l-25.4,17.6 M420.8,259l28,16.1 M446.2,276.6L420.8,259 M451.8,273.4l6.2-3.6 M482.9,255.4l-31.1-17.9 M451.8,237.5
		l-6.2,3.6 M420.8,255.4l31.1,17.9 M482.9,259v-3.6 M420.8,259v-3.6 M476.7,259l6.2-3.6 M439.4,244.6l-6.2,3.6 M464.3,266.2l6.2-3.6
		 M433.2,248.2l-6.2,3.6 M458,269.8l6.2-3.6 M427,251.8l-6.2,3.6 M445.6,241.1l-6.2,3.6 M470.5,262.6l6.2-3.6 M454.9,311l28-16.1
		 M482.9,294.9l-25.4,17.6 M451.8,309.2l6.2-3.6 M482.9,294.9v-3.6 M476.7,294.9l6.2-3.6 M433.2,284.1l6.2-3.6 M464.3,302.1l6.2-3.6
		 M433.2,284.1l-6.2,3.6 M458,305.7l6.2-3.6 M427,287.7l-6.2,3.6 M445.6,276.9l-6.2,3.6 M470.5,298.5l6.2-3.6 M793.7,370.3v-3.6
		 M918,370.3v-3.6 M855.9,406.1v-3.6 M855.9,406.1l-62.2-35.9 M785.9,410.6l31.1-17.9 M754.9,392.7l31.1,17.9 M785.9,414.2
		l-31.1-21.5 M785.9,410.6v3.6 M785.9,414.2l31.1-21.5 M754.9,389.1l6.2,3.6 M785.9,407l31.1-17.9 M817,389.1l-6.2-3.6 M785.9,371.1
		L754.8,389 M785.9,410.6V407 M754.9,392.7v-3.6 M817,392.7v-3.6 M779.7,403.4l6.2,3.6 M804.6,381.9l-6.2-3.6 M767.3,396.3l6.2,3.6
		 M798.4,378.3l-6.2-3.6 M761.1,392.7l6.2,3.6 M792.1,374.7l-6.2-3.6 M810.8,385.5l-6.2-3.6 M773.5,399.9l6.2,3.6 M918,373.8
		l31.1,17.9 M949.1,391.8v3.6 M949.1,395.4l2.6-1.8 M949.1,391.8V381 M961.5,352.3l-12.4-7.2 M918,363.1l31.1,17.9 M949.1,347.1
		l-27.7,16 M959.8,353.3l-10.7-6.2 M762.6,284.1l31.1,17.9 M793.7,305.7l2.6-1.8 M793.7,305.7v-3.6 M824.8,280.5v-7.2 M793.7,291.3
		l31.1-17.9 M762.6,273.4l31.1,17.9 M793.7,257.4l-27.7,16 M821.4,273.4l-27.7-16 M762.6,244.6v-10.8 M731.5,226.7v-10.8
		 M775.1,205.2l-12.4-7.2 M762.6,198l-31.1,17.9 M731.5,215.9l31.1,17.9 M762.6,199.9l-27.7,16 M762.6,199.9l10.7,6.2 M700.5,208.8
		V198 M762.6,198l-31.1-18 M731.5,180l-31,18 M700.5,198l31.1,17.9 M731.5,182l-27.7,16 M759.2,198l-27.7-16 M980.2,413.3v-3.6
		 M949.1,391.8l31.1,17.9 M980.2,409.7l31.1-17.9 M980.2,413.3l31.1-21.5 M949.1,359.5l31.1,17.9 M980.2,377.4l31.1-17.9
		 M1011.3,359.5l-31.1-17.9 M980.2,409.7v-32.3 M1011.3,391.8v-32.3 M482.9,162.1v-3.6 M451.8,140.6l31.1,17.9 M482.9,162.1
		l-31.1-21.5 M482.9,162.1l2.6-1.8 M482.9,126.2l-31.1-17.9 M482.9,126.2l31.1-17.9 M514,108.3l-31.1-17.9 M482.9,90.3l-31.1,17.9
		 M451.8,140.6v-32.3 M514,129.8v-21.5 M607.2,194.4l24.9,14.4 M629.8,210.1l-22.6-15.7 M641.4,207l3.1-1.8 M669.4,190.8l-31.1-17.9
		 M638.3,172.9l-6.2,3.6 M607.2,190.8l28,16.1 M607.2,194.4v-3.6 M663.2,194.4l6.2-3.6 M625.9,180l-6.2,3.6 M650.7,201.6l6.2-3.6
		 M619.7,183.6l-6.2,3.6 M644.5,205.2l6.2-3.6 M613.4,187.2l-6.2,3.6 M632.1,176.5l-6.2,3.6 M657,198l6.2-3.6 M327.5,355.9
		L299,336.2 M299,336.2l-2.6-1.8 M669.4,154.9l-31.1,17.9 M607.2,190.8l-31.1-17.9 M607.2,406.1l-2.6,1.8 M604.6,407.9l-28.5,19.7
		 M576.1,413.3L551.3,399 M514,420.5l-3.1,1.8 M514,180l-28.5-19.7 M485.5,160.3l-2.6-1.8 M545.1,151.3v-3.6 M514,172.9v-7.2
		 M514,163.7l21.5-12.4 M535.5,151.3l6.2-3.6 M486.3,147.8l6.2,3.6 M492.5,151.3l21.5,12.4 M545.1,198l-28.5-19.7 M516.6,178.3
		l-2.6-1.8 M607.2,409.7l28.5-19.7 M635.7,390l2.6-1.8 M669.4,373.8l28.5-19.7 M697.9,354.1l2.6-1.8 M731.5,305.7L760,286
		 M760,285.9l2.6-1.8 M669.4,262.6l-31.1,17.9 M545.1,445.6l-28.5-19.7 M516.6,425.9l-2.6-1.8 M545.1,445.6l28.5-19.7 M573.6,425.9
		l2.6-1.8 M576.1,420.5v-7.2 M551.3,399l-6.2-3.6 M545.1,395.4l-6.2,3.6 M538.9,399L514,413.3 M517.4,413.3l6.2,3.6 M523.6,416.9
		l21.5,12.4 M545.1,429.3l21.5-12.4 M566.6,416.9l6.2-3.6 M389.7,388.2l2.6,1.8 M392.3,390l20,13.9 M767.1,209.7l-4.5,2.6
		 M358.6,327.2v-3.6 M330.9,305.7l6.2,3.6 M337.1,309.2l21.5,12.4 M358.6,321.6l21.5-12.4 M380.1,309.2l6.2-3.6 M327.5,352.3
		l2.6,1.8 M330.1,354.1l28.5,19.7 M389.7,391.8L361.2,372 M361.2,372l-2.6-1.8 M672.8,262.6v-1.9 M728.2,262.6v-1.9 M672.8,255.4
		l6.2,3.6 M679,259l21.5,12.4 M700.5,239.4l-1.4,0.8 M700.5,271.4L722,259 M722,259l6.2-3.6 M669.4,370.3l-2.6,1.8 M666.8,372
		l-28.5,19.7 M265.4,355.9l28.5-19.7 M293.8,336.2l2.6-1.8 M296.4,302.1l-6.2-3.6 M290.2,298.5l-24.9-14.4 M700.5,280.5l-3.1,1.8
		 M700.5,348.7v-6.5 M731.5,334.4v-28.7 M942.9,348.7L918,363.1 M793.7,302.1l2.6,1.8 M796.3,303.9l28.5,19.7 M855.9,298.5
		l-25.4-14.7 M847.4,335.7l-20-13.9 M827.4,321.8l-2.6-1.8 M454.9,275.2l-3.1-1.8 M446.2,276.6l-0.6,0.3 M912.4,373.5l-56.5,32.6
		 M949.1,395.4l-28.5-19.7 M920.6,375.6l-2.6-1.8 M949.1,345.1l-6.2,3.6 M921.4,363.1l6.2,3.6 M927.6,366.7l21.5,12.4 M762.6,284.1
		l2.6,1.8 M765.2,285.9l28.5,19.7 M762.6,280.5v-7.2 M793.7,298.5v-7.2 M824.8,273.4L799.9,259 M799.9,259l-6.2-3.6 M793.7,255.4
		l-6.2,3.6 M793.7,289.4l21.5-12.4 M815.2,276.9l6.2-3.6 M766,273.4l6.2,3.6 M772.2,276.9l21.5,12.4 M734.9,215.9l6.2,3.6
		 M762.6,231.9l-21.5-12.4 M703.8,198l6.2,3.6 M710.1,201.6l21.5,12.4 M731.5,214l21.5-12.4 M753,201.6l6.2-3.6 M980.2,413.3
		l-28.5-19.7 M951.7,393.6l-2.6-1.8 M953.6,356.9l-4.5,2.6 M482.9,147.8v-21.5 M510.9,422.3l-2.5,1.5 M508.3,423.8l-56.5,32.6
		 M514,416.9v-3.6 M793.7,194.4l-18.6,10.8 M762.6,233.9v-2 M762.6,231.9v-19.6 M672.8,260.6V257 M728.2,260.6v-3.3 M728.2,257.4
		v-1.9 M717.4,249.2l-6.2-3.6 M711.2,245.6L705,242 M705,242l-4.5-2.6 M296.4,330.8v-7.2 M296.4,323.6v-7.2 M697.4,282.3l-2.5,1.5
		 M694.8,283.8l-0.6,0.3 M830.4,283.8l-2.5-1.5 M827.9,282.3l-3.1-1.8 M482.9,291.3l-25.4-14.7 M454.9,275.2l2.5,1.5 M451.8,273.4
		l-3.1,1.8 M448.7,275.2l-2.5,1.5 M918,370.3l-3.1,1.8 M914.9,372l-2.5,1.5 M918,366.7v-3.6 M787.5,259l-6.2,3.6 M959.8,353.3
		l-6.2,3.6 M949.1,381v-1.9 M949.1,379.1v-19.6 M775.1,205.2l-1.7,1 M773.4,206.1l-6.2,3.6 M728.2,255.4l-4.5-2.6 M723.6,252.8
		l-6.2-3.6 M296.4,316.4v-7.2 M296.4,309.2V302 M781.3,262.6l-6.2,3.6 M980.2,341.5l-18.6,10.8 M961.5,352.3l-1.7,1 M775.1,266.2
		l-6.2,3.6 M768.8,269.8l-6.2,3.6 M731.5,308.2v-2.5 M731.5,308.2v-2.5 M731.5,308.2v-2.5 M731.5,308.2v-2.5 M731.5,308.2v-2.5"/>
</g>
<g id="Dashed_Lines">
	<g class="st1">
		<path d="M327.5,352.3v42 M327.5,355.9l-31.1,20.5 M296.4,376.4v-42 M327.5,358.4l-31.1,17.9 M296.4,376.4l31.1,17.9 M265.4,358.4
			l31.1-20.5 M327.5,358.4L296.4,338 M327.5,358.4l-31.1-17.9 M296.4,340.5l-31.1,17.9 M265.4,355.9l31.1,20.5 M265.4,355.9
			l-31.1,20.5 M265.4,394.3v-38.4 M265.4,358.4l-31.1,17.9 M265.4,394.3l31.1-17.9 M234.3,376.4l31.1,17.9 M327.5,355.9l31.1,20.5
			 M358.6,376.4l4.8-2.8 M327.5,358.4l31.1,17.9 M358.6,373.8v38.4 M327.5,394.3l31.1-20.5 M389.7,394.3l-31.1-20.5 M389.7,394.3
			l-31.1-17.9 M327.5,394.3l31.1,17.9 M358.6,412.2l31.1-17.9 M358.6,376.4l-31.1,17.9 M389.7,391.8l20.3,13.4 M389.7,391.8
			l-31.1,20.5 M409.3,405.6l-19.6-11.3 M358.6,412.2l19.6,11.3 M296.4,376.4l-31.1-17.9 M234.3,376.4v-42 M358.6,376.4l-31.1-17.9
			 M389.7,388.2v37.7 M381.9,464.5L413,485 M381.9,464.5L350.8,485 M381.9,502.9v-38.4 M413,484.9v-42 M381.9,467v-2.5 M350.8,484.9
			v-42 M381.9,467v-2.5 M381.9,467l-31.1,17.9 M381.9,460.9v42 M381.9,502.9L413,485 M413,484.9L381.9,467 M350.8,484.9l31.1,17.9
			 M420.8,438.4v9.7 M393.2,427.9l4.4-2.9 M420.8,448.1v-9.7 M412.4,443.3l8.3,4.8 M429.1,443.3l-8.4,4.8 M545.1,484v-38.4
			 M545.1,442v42 M545.1,484l31.1-17.9 M514,466.1l31.1,17.9 M514,427.7l31.1,20.5 M514,427.7l-31.1,20.5 M514,466.1v-38.4
			 M482.9,448.1v-9.7 M514,430.2l-31.1,17.9 M514,466.1l31.1-17.9 M545.1,448.1L514,430.2 M482.9,448.1L514,466 M545.1,445.6
			L514,466.1 M576.1,427.7v38.4 M545.1,448.1l31.1,17.9 M576.1,466.1l31.1-17.9 M545.1,445.6l31.1,20.5 M607.2,448.1l-31.1-20.5
			 M545.1,448.1l31.1-20.5 M607.2,406.1v42 M607.2,448.1l-31.1-17.9 M576.1,430.2L545,448.1 M607.2,409.7l-31.1,20.5 M607.2,409.7
			l31.1,20.5 M607.2,448.1l31.1-17.9 M607.2,412.2l-31.1,17.9 M576.1,430.2l31.1,17.9 M638.3,430.2l-31.1-17.9 M607.2,412.2
			l31.1,17.9 M638.3,430.2v-42 M669.4,373.8l-31.1,20.5 M669.4,373.8l31.1,20.5 M669.4,412.2v-38.4 M700.5,394.3v-42 M669.4,412.2
			l31.1-17.9 M669.4,376.4l-31.1,17.9 M638.3,394.3l31.1,17.9 M700.5,394.3l-31.1-17.9 M669.4,412.2l-31.1-20.5 M607.2,412.2
			l31.1-20.5 M669.4,412.2l-31.1-17.9 M638.3,394.3l-31.1,17.9 M638.3,430.2l31.1-17.9 M669.4,376.4l31.1-20.5 M731.5,376.4
			l-31.1-20.5 M731.5,376.4v-42 M731.5,376.4l-31.1-17.9 M669.4,376.4l31.1,17.9 M700.5,394.3l31.1-17.9 M700.5,358.4l-31.1,17.9
			 M785.9,414.2l31.1,20.5 M785.9,414.2l-31.1,20.5 M785.9,452.6v-38.4 M817,434.7v-42 M785.9,416.7v-2.5 M754.9,434.7v-42
			 M785.9,416.7v-2.5 M785.9,416.7l-31.1,17.9 M785.9,410.6v42 M785.9,452.6l31.1-17.9 M817,434.7l-31.1-17.9 M754.9,434.7
			l31.1,17.9 M482.9,301l-4.5-3 M420.8,291.3V259 M482.9,259v32.3 M482.9,301l-4.8-2.8 M460.2,314.1l22.7-13.1 M451.8,348.7v6.1
			 M482.9,336.9l-4.9-3.2 M451.8,354.8v-6.1 M446.5,351.8l5.3,3 M482.9,294.9v32.3 M482.9,330.8v6.1 M482.9,336.9l-5.3-3.1
			 M451.8,354.8l31.1-17.9 M514,180l-31.1,20.5 M514,180l31.1,20.5 M482.9,200.5v-42 M514,218.4V180 M514,218.4l31.1-17.9
			 M514,182.6l-31.1,17.9 M482.9,200.5l31.1,17.9 M545.1,200.5L514,182.6 M545.1,198L514,218.4 M545.1,198l31.1,20.5 M545.1,236.4
			V198 M576.1,218.4v-42 M545.1,236.4l31.1-17.9 M514,218.4l31.1,17.9 M576.1,218.4L545,200.5 M482.9,162.1l-31.1,20.5 M482.9,162.1
			l31.1,20.5 M451.8,182.6v-42 M482.9,164.6l-31.1,17.9 M451.8,182.6l31.1,17.9 M514,182.6l-31.1-17.9 M677.2,154l-31.1,20.5
			 M677.2,154l31.1,20.5 M646.1,174.5v-6.1 M677.2,192.4V154 M708.2,174.5v-42 M677.2,192.4v-42 M677.2,192.4l31.1-17.9
			 M677.2,156.5l-31.1,17.9 M646.1,174.5l31.1,17.9 M708.2,174.5l-31.1-17.9 M646.1,137.9v-5.4 M607.2,223.1v-28.7 M669.4,272.3
			v-6.1 M669.4,272.3l24.9,14.4 M674.2,269.5l-4.8,2.8 M669.4,272.3v-6.1 M669.4,272.3v-6.1 M669.4,272.3l4.8-2.8 M661,267.4
			l8.4,4.8 M688,295.9l-18.6,12.3 M669.4,308.2v-42 M688,297.4l-18.6,10.8 M669.4,308.2l8.4,4.8 M855.9,294.9v-28.7 M762.6,287.7
			v38.4 M731.5,308.2l31.1,17.9 M762.6,326.1l31.1-17.9 M731.5,305.7l31.1,20.5 M731.5,344.1v-38.4 M731.5,344.1v-42 M731.5,344.1
			l31.1-17.9 M723.9,339.6l7.6,4.4 M793.7,344.1l31.1-20.5 M793.7,302.1v42 M793.7,344.1l19.6,11.3 M824.8,326.1L793.7,344
			 M762.6,326.1l31.1-20.5 M762.6,326.1l31.1,17.9 M793.7,308.2l-31.1-17.9 M824.8,323.6v25.1 M845.1,337l-20.3-13.4 M844.4,337.4
			l-19.6-11.3 M793.7,308.2l31.1,17.9 M824.8,326.1l4.8-2.8 M798.5,305.4l-4.8,2.8 M824.8,326.1l-31.1-20.5 M731.5,308.2l31.1-17.9
			 M758.1,287.3l4.5,3 M763.5,287.1l20.9,12.1 M918,415.8v-38.4 M918,415.8l31.1-17.9 M886.9,397.9l31.1,17.9 M949.1,395.4
			l31.1,20.5 M949.1,395.4L918,415.8 M949.1,433.8v-38.4 M980.2,415.8v-2.5 M949.1,433.8l31.1-17.9 M980.2,415.8l-31.1-17.9
			 M918,415.8l31.1,17.9 M980.2,413.3l-31.1,20.5 M980.2,413.3l31.1,20.5 M980.2,415.8v-2.5 M980.2,451.7v-38.4 M1011.3,433.8v-42
			 M980.2,451.7l31.1-17.9 M980.2,413.3v2.5 M949.1,433.8l31.1,17.9 M1011.3,433.8l-31.1-17.9 M918,379.9v-2.5 M918,379.9l-8.4-4.8
			 M886.9,397.9L918,380 M918,377.4l-31.1,20.5 M918,377.4l31.1,20.5 M918,379.9v-2.5 M918,377.4v2.5 M949.1,397.9l-31.1-18
			 M886.9,388.2v9.7 M886.9,397.9v-9.7 M878.5,393l8.4,4.8 M886.9,397.9v-9.7"/>
		<g>
			<g>
				<line class="st2" x1="327.5" y1="352.3" x2="327.5" y2="353.3"/>
				<line class="st3" x1="327.5" y1="355.2" x2="327.5" y2="392.3"/>
				<line class="st2" x1="327.5" y1="393.3" x2="327.5" y2="394.3"/>
			</g>
			<g>
				<line class="st2" x1="327.5" y1="355.9" x2="326.7" y2="356.4"/>
				<line class="st4" x1="324.9" y1="357.6" x2="298.1" y2="375.2"/>
				<line class="st2" x1="297.3" y1="375.8" x2="296.4" y2="376.4"/>
			</g>
			<g>
				<line class="st2" x1="296.4" y1="376.4" x2="296.4" y2="375.4"/>
				<line class="st3" x1="296.4" y1="373.4" x2="296.4" y2="336.3"/>
				<line class="st2" x1="296.4" y1="335.4" x2="296.4" y2="334.4"/>
			</g>
			<g>
				<line class="st2" x1="327.5" y1="358.4" x2="326.6" y2="358.9"/>
				<line class="st5" x1="324.9" y1="359.9" x2="298.2" y2="375.4"/>
				<line class="st2" x1="297.3" y1="375.9" x2="296.4" y2="376.4"/>
			</g>
			<g>
				<line class="st2" x1="296.4" y1="376.4" x2="297.3" y2="376.9"/>
				<line class="st6" x1="299" y1="377.8" x2="325.8" y2="393.3"/>
				<line class="st2" x1="326.6" y1="393.8" x2="327.5" y2="394.3"/>
			</g>
			<g>
				<line class="st2" x1="265.4" y1="358.4" x2="266.2" y2="357.9"/>
				<line class="st4" x1="267.9" y1="356.7" x2="294.7" y2="339.1"/>
				<line class="st2" x1="295.6" y1="338.5" x2="296.4" y2="338"/>
			</g>
			<g>
				<line class="st2" x1="327.5" y1="358.4" x2="326.7" y2="357.9"/>
				<line class="st4" x1="324.9" y1="356.7" x2="298.1" y2="339.1"/>
				<line class="st2" x1="297.3" y1="338.5" x2="296.4" y2="338"/>
			</g>
			<g>
				<line class="st2" x1="327.5" y1="358.4" x2="326.6" y2="357.9"/>
				<line class="st6" x1="324.9" y1="356.9" x2="298.2" y2="341.5"/>
				<line class="st2" x1="297.3" y1="341" x2="296.4" y2="340.5"/>
			</g>
			<g>
				<line class="st2" x1="296.4" y1="340.5" x2="295.6" y2="341"/>
				<line class="st6" x1="293.8" y1="342" x2="267.1" y2="357.4"/>
				<line class="st2" x1="266.2" y1="357.9" x2="265.4" y2="358.4"/>
			</g>
			<g>
				<line class="st2" x1="265.4" y1="355.9" x2="266.2" y2="356.4"/>
				<line class="st4" x1="267.9" y1="357.6" x2="294.7" y2="375.2"/>
				<line class="st2" x1="295.6" y1="375.8" x2="296.4" y2="376.4"/>
			</g>
			<g>
				<line class="st2" x1="265.4" y1="355.9" x2="264.5" y2="356.4"/>
				<line class="st4" x1="262.8" y1="357.6" x2="236" y2="375.2"/>
				<line class="st2" x1="235.1" y1="375.8" x2="234.3" y2="376.4"/>
			</g>
			<g>
				<line class="st2" x1="265.4" y1="394.3" x2="265.4" y2="393.3"/>
				<line class="st7" x1="265.4" y1="391.4" x2="265.4" y2="357.9"/>
				<line class="st2" x1="265.4" y1="356.9" x2="265.4" y2="355.9"/>
			</g>
			<g>
				<line class="st2" x1="265.4" y1="358.4" x2="264.5" y2="358.9"/>
				<line class="st5" x1="262.8" y1="359.9" x2="236" y2="375.4"/>
				<line class="st2" x1="235.1" y1="375.9" x2="234.3" y2="376.4"/>
			</g>
			<g>
				<line class="st2" x1="265.4" y1="394.3" x2="266.2" y2="393.8"/>
				<line class="st6" x1="267.9" y1="392.8" x2="294.7" y2="377.4"/>
				<line class="st2" x1="295.6" y1="376.9" x2="296.4" y2="376.4"/>
			</g>
			<g>
				<line class="st2" x1="234.3" y1="376.4" x2="235.1" y2="376.9"/>
				<line class="st6" x1="236.9" y1="377.8" x2="263.6" y2="393.3"/>
				<line class="st2" x1="264.5" y1="393.8" x2="265.4" y2="394.3"/>
			</g>
			<g>
				<line class="st2" x1="327.5" y1="355.9" x2="328.3" y2="356.4"/>
				<line class="st4" x1="330.1" y1="357.6" x2="356.9" y2="375.2"/>
				<line class="st2" x1="357.8" y1="375.8" x2="358.6" y2="376.4"/>
			</g>
			<g>
				<line class="st2" x1="358.6" y1="376.4" x2="359.5" y2="375.9"/>
				<line class="st8" x1="360.5" y1="375.3" x2="362" y2="374.4"/>
				<line class="st2" x1="362.5" y1="374.1" x2="363.4" y2="373.6"/>
			</g>
			<g>
				<line class="st2" x1="327.5" y1="358.4" x2="328.4" y2="358.9"/>
				<line class="st5" x1="330.1" y1="359.9" x2="356.9" y2="375.4"/>
				<line class="st2" x1="357.7" y1="375.9" x2="358.6" y2="376.4"/>
			</g>
			<g>
				<line class="st2" x1="358.6" y1="373.8" x2="358.6" y2="374.8"/>
				<line class="st7" x1="358.6" y1="376.8" x2="358.6" y2="410.3"/>
				<line class="st2" x1="358.6" y1="411.2" x2="358.6" y2="412.2"/>
			</g>
			<g>
				<line class="st2" x1="327.5" y1="394.3" x2="328.3" y2="393.7"/>
				<line class="st4" x1="330.1" y1="392.6" x2="356.9" y2="375"/>
				<line class="st2" x1="357.8" y1="374.4" x2="358.6" y2="373.8"/>
			</g>
			<g>
				<line class="st2" x1="389.7" y1="394.3" x2="388.8" y2="393.7"/>
				<line class="st4" x1="387.1" y1="392.6" x2="360.3" y2="375"/>
				<line class="st2" x1="359.4" y1="374.4" x2="358.6" y2="373.8"/>
			</g>
			<g>
				<line class="st2" x1="389.7" y1="394.3" x2="388.8" y2="393.8"/>
				<line class="st6" x1="387.1" y1="392.8" x2="360.3" y2="377.4"/>
				<line class="st2" x1="359.5" y1="376.9" x2="358.6" y2="376.4"/>
			</g>
			<g>
				<line class="st2" x1="327.5" y1="394.3" x2="328.4" y2="394.8"/>
				<line class="st5" x1="330.1" y1="395.8" x2="356.9" y2="411.2"/>
				<line class="st2" x1="357.7" y1="411.7" x2="358.6" y2="412.2"/>
			</g>
			<g>
				<line class="st2" x1="358.6" y1="412.2" x2="359.5" y2="411.7"/>
				<line class="st5" x1="361.2" y1="410.7" x2="387.9" y2="395.3"/>
				<line class="st2" x1="388.8" y1="394.8" x2="389.7" y2="394.3"/>
			</g>
			<g>
				<line class="st2" x1="358.6" y1="376.4" x2="357.7" y2="376.9"/>
				<line class="st5" x1="356" y1="377.8" x2="329.2" y2="393.3"/>
				<line class="st2" x1="328.4" y1="393.8" x2="327.5" y2="394.3"/>
			</g>
			<g>
				<line class="st2" x1="389.7" y1="391.8" x2="390.5" y2="392.3"/>
				<line class="st9" x1="392.2" y1="393.5" x2="408.3" y2="404.1"/>
				<line class="st2" x1="409.2" y1="404.6" x2="410" y2="405.2"/>
			</g>
			<g>
				<line class="st2" x1="389.7" y1="391.8" x2="388.8" y2="392.3"/>
				<line class="st4" x1="387.1" y1="393.5" x2="360.3" y2="411.1"/>
				<line class="st2" x1="359.4" y1="411.7" x2="358.6" y2="412.2"/>
			</g>
			<g>
				<line class="st2" x1="409.3" y1="405.6" x2="408.4" y2="405.1"/>
				<line class="st10" x1="406.8" y1="404.2" x2="391.3" y2="395.3"/>
				<line class="st2" x1="390.5" y1="394.8" x2="389.7" y2="394.3"/>
			</g>
			<g>
				<line class="st2" x1="358.6" y1="412.2" x2="359.5" y2="412.7"/>
				<line class="st11" x1="361.1" y1="413.7" x2="376.5" y2="422.6"/>
				<line class="st2" x1="377.3" y1="423" x2="378.2" y2="423.5"/>
			</g>
			<g>
				<line class="st2" x1="296.4" y1="376.4" x2="295.6" y2="375.9"/>
				<line class="st5" x1="293.8" y1="374.9" x2="267.1" y2="359.4"/>
				<line class="st2" x1="266.2" y1="358.9" x2="265.4" y2="358.4"/>
			</g>
			<g>
				<line class="st2" x1="234.3" y1="376.4" x2="234.3" y2="375.4"/>
				<line class="st3" x1="234.3" y1="373.4" x2="234.3" y2="336.3"/>
				<line class="st2" x1="234.3" y1="335.4" x2="234.3" y2="334.4"/>
			</g>
			<g>
				<line class="st2" x1="358.6" y1="376.4" x2="357.7" y2="375.9"/>
				<line class="st5" x1="356" y1="374.9" x2="329.2" y2="359.4"/>
				<line class="st2" x1="328.4" y1="358.9" x2="327.5" y2="358.4"/>
			</g>
			<g>
				<line class="st2" x1="389.7" y1="388.2" x2="389.7" y2="389.2"/>
				<line class="st12" x1="389.7" y1="391.3" x2="389.7" y2="423.8"/>
				<line class="st2" x1="389.7" y1="424.9" x2="389.7" y2="425.9"/>
			</g>
			<g>
				<line class="st2" x1="381.9" y1="464.5" x2="382.7" y2="465"/>
				<line class="st4" x1="384.5" y1="466.1" x2="411.3" y2="483.8"/>
				<line class="st2" x1="412.1" y1="484.4" x2="413" y2="484.9"/>
			</g>
			<g>
				<line class="st2" x1="381.9" y1="464.5" x2="381.1" y2="465"/>
				<line class="st4" x1="379.3" y1="466.1" x2="352.5" y2="483.8"/>
				<line class="st2" x1="351.7" y1="484.4" x2="350.8" y2="484.9"/>
			</g>
			<g>
				<line class="st2" x1="381.9" y1="502.9" x2="381.9" y2="501.9"/>
				<line class="st7" x1="381.9" y1="499.9" x2="381.9" y2="466.4"/>
				<line class="st2" x1="381.9" y1="465.5" x2="381.9" y2="464.5"/>
			</g>
			<g>
				<line class="st2" x1="413" y1="484.9" x2="413" y2="483.9"/>
				<line class="st3" x1="413" y1="482" x2="413" y2="444.9"/>
				<line class="st2" x1="413" y1="443.9" x2="413" y2="442.9"/>
			</g>
			<g>
				<line class="st2" x1="381.9" y1="467" x2="381.9" y2="466"/>
				<line class="st2" x1="381.9" y1="465.5" x2="381.9" y2="464.5"/>
			</g>
			<g>
				<line class="st2" x1="350.8" y1="484.9" x2="350.8" y2="483.9"/>
				<line class="st3" x1="350.8" y1="482" x2="350.8" y2="444.9"/>
				<line class="st2" x1="350.8" y1="443.9" x2="350.8" y2="442.9"/>
			</g>
			<g>
				<line class="st2" x1="381.9" y1="467" x2="381.9" y2="466"/>
				<line class="st2" x1="381.9" y1="465.5" x2="381.9" y2="464.5"/>
			</g>
			<g>
				<line class="st2" x1="381.9" y1="467" x2="381" y2="467.5"/>
				<line class="st6" x1="379.3" y1="468.5" x2="352.6" y2="483.9"/>
				<line class="st2" x1="351.7" y1="484.4" x2="350.8" y2="484.9"/>
			</g>
			<g>
				<line class="st2" x1="381.9" y1="460.9" x2="381.9" y2="461.9"/>
				<line class="st3" x1="381.9" y1="463.8" x2="381.9" y2="500.9"/>
				<line class="st2" x1="381.9" y1="501.9" x2="381.9" y2="502.9"/>
			</g>
			<g>
				<line class="st2" x1="381.9" y1="502.9" x2="382.8" y2="502.4"/>
				<line class="st5" x1="384.5" y1="501.4" x2="411.3" y2="485.9"/>
				<line class="st2" x1="412.1" y1="485.4" x2="413" y2="484.9"/>
			</g>
			<g>
				<line class="st2" x1="413" y1="484.9" x2="412.1" y2="484.4"/>
				<line class="st6" x1="410.4" y1="483.4" x2="383.6" y2="468"/>
				<line class="st2" x1="382.8" y1="467.5" x2="381.9" y2="467"/>
			</g>
			<g>
				<line class="st2" x1="350.8" y1="484.9" x2="351.7" y2="485.4"/>
				<line class="st5" x1="353.4" y1="486.4" x2="380.2" y2="501.9"/>
				<line class="st2" x1="381" y1="502.4" x2="381.9" y2="502.9"/>
			</g>
			<g>
				<line class="st2" x1="420.8" y1="438.4" x2="420.8" y2="439.4"/>
				<line class="st13" x1="420.8" y1="442" x2="420.8" y2="445.8"/>
				<line class="st2" x1="420.8" y1="447.1" x2="420.8" y2="448.1"/>
			</g>
			<g>
				<line class="st2" x1="393.2" y1="427.9" x2="394" y2="427.3"/>
				<line class="st14" x1="394.9" y1="426.8" x2="396.2" y2="425.9"/>
				<line class="st2" x1="396.7" y1="425.6" x2="397.5" y2="425"/>
			</g>
			<g>
				<line class="st2" x1="420.8" y1="448.1" x2="420.8" y2="447.1"/>
				<line class="st13" x1="420.8" y1="444.6" x2="420.8" y2="440.7"/>
				<line class="st2" x1="420.8" y1="439.4" x2="420.8" y2="438.4"/>
			</g>
			<g>
				<line class="st2" x1="412.4" y1="443.3" x2="413.3" y2="443.8"/>
				<line class="st15" x1="415.5" y1="445.1" x2="418.8" y2="447"/>
				<line class="st2" x1="419.9" y1="447.6" x2="420.8" y2="448.1"/>
			</g>
			<g>
				<line class="st2" x1="429.1" y1="443.3" x2="428.3" y2="443.8"/>
				<line class="st16" x1="426.1" y1="445.1" x2="422.7" y2="447"/>
				<line class="st2" x1="421.6" y1="447.6" x2="420.8" y2="448.1"/>
			</g>
			<g>
				<line class="st2" x1="545.1" y1="484" x2="545.1" y2="483"/>
				<line class="st7" x1="545.1" y1="481.1" x2="545.1" y2="447.6"/>
				<line class="st2" x1="545.1" y1="446.6" x2="545.1" y2="445.6"/>
			</g>
			<g>
				<line class="st2" x1="545.1" y1="442" x2="545.1" y2="443"/>
				<line class="st3" x1="545.1" y1="444.9" x2="545.1" y2="482.1"/>
				<line class="st2" x1="545.1" y1="483" x2="545.1" y2="484"/>
			</g>
			<g>
				<line class="st2" x1="545.1" y1="484" x2="545.9" y2="483.5"/>
				<line class="st6" x1="547.7" y1="482.5" x2="574.4" y2="467.1"/>
				<line class="st2" x1="575.3" y1="466.6" x2="576.1" y2="466.1"/>
			</g>
			<g>
				<line class="st2" x1="514" y1="466.1" x2="514.9" y2="466.6"/>
				<line class="st6" x1="516.6" y1="467.6" x2="543.3" y2="483"/>
				<line class="st2" x1="544.2" y1="483.5" x2="545.1" y2="484"/>
			</g>
			<g>
				<line class="st2" x1="514" y1="427.7" x2="514.8" y2="428.2"/>
				<line class="st4" x1="516.6" y1="429.4" x2="543.4" y2="447"/>
				<line class="st2" x1="544.2" y1="447.6" x2="545.1" y2="448.1"/>
			</g>
			<g>
				<line class="st2" x1="514" y1="427.7" x2="513.2" y2="428.2"/>
				<line class="st4" x1="511.4" y1="429.4" x2="484.6" y2="447"/>
				<line class="st2" x1="483.7" y1="447.6" x2="482.9" y2="448.1"/>
			</g>
			<g>
				<line class="st2" x1="514" y1="466.1" x2="514" y2="465.1"/>
				<line class="st17" x1="514" y1="463.2" x2="514" y2="429.6"/>
				<line class="st2" x1="514" y1="428.7" x2="514" y2="427.7"/>
			</g>
			<g>
				<line class="st2" x1="482.9" y1="448.1" x2="482.9" y2="447.1"/>
				<line class="st13" x1="482.9" y1="444.6" x2="482.9" y2="440.7"/>
				<line class="st2" x1="482.9" y1="439.4" x2="482.9" y2="438.4"/>
			</g>
			<g>
				<line class="st2" x1="514" y1="430.2" x2="513.1" y2="430.7"/>
				<line class="st5" x1="511.4" y1="431.7" x2="484.6" y2="447.1"/>
				<line class="st2" x1="483.8" y1="447.6" x2="482.9" y2="448.1"/>
			</g>
			<g>
				<line class="st2" x1="514" y1="466.1" x2="514.9" y2="465.6"/>
				<line class="st5" x1="516.6" y1="464.6" x2="543.3" y2="449.1"/>
				<line class="st2" x1="544.2" y1="448.6" x2="545.1" y2="448.1"/>
			</g>
			<g>
				<line class="st2" x1="545.1" y1="448.1" x2="544.2" y2="447.6"/>
				<line class="st5" x1="542.5" y1="446.6" x2="515.7" y2="431.2"/>
				<line class="st2" x1="514.9" y1="430.7" x2="514" y2="430.2"/>
			</g>
			<g>
				<line class="st2" x1="482.9" y1="448.1" x2="483.8" y2="448.6"/>
				<line class="st5" x1="485.5" y1="449.6" x2="512.3" y2="465.1"/>
				<line class="st2" x1="513.1" y1="465.6" x2="514" y2="466.1"/>
			</g>
			<g>
				<line class="st2" x1="545.1" y1="445.6" x2="544.2" y2="446.2"/>
				<line class="st4" x1="542.5" y1="447.3" x2="515.7" y2="465"/>
				<line class="st2" x1="514.8" y1="465.5" x2="514" y2="466.1"/>
			</g>
			<g>
				<line class="st2" x1="576.1" y1="427.7" x2="576.1" y2="428.7"/>
				<line class="st17" x1="576.1" y1="430.6" x2="576.1" y2="464.1"/>
				<line class="st2" x1="576.1" y1="465.1" x2="576.1" y2="466.1"/>
			</g>
			<g>
				<line class="st2" x1="545.1" y1="448.1" x2="545.9" y2="448.6"/>
				<line class="st5" x1="547.7" y1="449.6" x2="574.4" y2="465.1"/>
				<line class="st2" x1="575.3" y1="465.6" x2="576.1" y2="466.1"/>
			</g>
			<g>
				<line class="st2" x1="576.1" y1="466.1" x2="577" y2="465.6"/>
				<line class="st5" x1="578.7" y1="464.6" x2="605.5" y2="449.1"/>
				<line class="st2" x1="606.4" y1="448.6" x2="607.2" y2="448.1"/>
			</g>
			<g>
				<line class="st2" x1="545.1" y1="445.6" x2="545.9" y2="446.2"/>
				<line class="st4" x1="547.6" y1="447.3" x2="574.4" y2="465"/>
				<line class="st2" x1="575.3" y1="465.5" x2="576.1" y2="466.1"/>
			</g>
			<g>
				<line class="st2" x1="607.2" y1="448.1" x2="606.4" y2="447.6"/>
				<line class="st4" x1="604.7" y1="446.4" x2="577.8" y2="428.8"/>
				<line class="st2" x1="577" y1="428.2" x2="576.1" y2="427.7"/>
			</g>
			<g>
				<line class="st2" x1="545.1" y1="448.1" x2="545.9" y2="447.6"/>
				<line class="st4" x1="547.6" y1="446.4" x2="574.4" y2="428.8"/>
				<line class="st2" x1="575.3" y1="428.2" x2="576.1" y2="427.7"/>
			</g>
			<g>
				<line class="st2" x1="607.2" y1="406.1" x2="607.2" y2="407.1"/>
				<line class="st3" x1="607.2" y1="409" x2="607.2" y2="446.2"/>
				<line class="st2" x1="607.2" y1="447.1" x2="607.2" y2="448.1"/>
			</g>
			<g>
				<line class="st2" x1="607.2" y1="448.1" x2="606.4" y2="447.6"/>
				<line class="st5" x1="604.6" y1="446.6" x2="577.9" y2="431.2"/>
				<line class="st2" x1="577" y1="430.7" x2="576.1" y2="430.2"/>
			</g>
			<g>
				<line class="st2" x1="576.1" y1="430.2" x2="575.3" y2="430.7"/>
				<line class="st5" x1="573.6" y1="431.7" x2="546.8" y2="447.1"/>
				<line class="st2" x1="545.9" y1="447.6" x2="545.1" y2="448.1"/>
			</g>
			<g>
				<line class="st2" x1="607.2" y1="409.7" x2="606.4" y2="410.3"/>
				<line class="st4" x1="604.7" y1="411.4" x2="577.8" y2="429.1"/>
				<line class="st2" x1="577" y1="429.6" x2="576.1" y2="430.2"/>
			</g>
			<g>
				<line class="st2" x1="607.2" y1="409.7" x2="608.1" y2="410.3"/>
				<line class="st4" x1="609.8" y1="411.4" x2="636.6" y2="429.1"/>
				<line class="st2" x1="637.5" y1="429.6" x2="638.3" y2="430.2"/>
			</g>
			<g>
				<line class="st2" x1="607.2" y1="448.1" x2="608.1" y2="447.6"/>
				<line class="st5" x1="609.8" y1="446.6" x2="636.6" y2="431.2"/>
				<line class="st2" x1="637.4" y1="430.7" x2="638.3" y2="430.2"/>
			</g>
			<g>
				<line class="st2" x1="607.2" y1="412.2" x2="606.4" y2="412.7"/>
				<line class="st6" x1="604.6" y1="413.7" x2="577.9" y2="429.2"/>
				<line class="st2" x1="577" y1="429.7" x2="576.1" y2="430.2"/>
			</g>
			<g>
				<line class="st2" x1="576.1" y1="430.2" x2="577" y2="430.7"/>
				<line class="st5" x1="578.7" y1="431.7" x2="605.5" y2="447.1"/>
				<line class="st2" x1="606.4" y1="447.6" x2="607.2" y2="448.1"/>
			</g>
			<g>
				<line class="st2" x1="638.3" y1="430.2" x2="637.4" y2="429.7"/>
				<line class="st6" x1="635.7" y1="428.7" x2="609" y2="413.2"/>
				<line class="st2" x1="608.1" y1="412.7" x2="607.2" y2="412.2"/>
			</g>
			<g>
				<line class="st2" x1="607.2" y1="412.2" x2="608.1" y2="412.7"/>
				<line class="st6" x1="609.8" y1="413.7" x2="636.6" y2="429.2"/>
				<line class="st2" x1="637.4" y1="429.7" x2="638.3" y2="430.2"/>
			</g>
			<g>
				<line class="st2" x1="638.3" y1="430.2" x2="638.3" y2="429.2"/>
				<line class="st3" x1="638.3" y1="427.3" x2="638.3" y2="390.1"/>
				<line class="st2" x1="638.3" y1="389.2" x2="638.3" y2="388.2"/>
			</g>
			<g>
				<line class="st2" x1="669.4" y1="373.8" x2="668.5" y2="374.4"/>
				<line class="st4" x1="666.8" y1="375.5" x2="640" y2="393.2"/>
				<line class="st2" x1="639.1" y1="393.7" x2="638.3" y2="394.3"/>
			</g>
			<g>
				<line class="st2" x1="669.4" y1="373.8" x2="670.2" y2="374.4"/>
				<line class="st4" x1="671.9" y1="375.5" x2="698.8" y2="393.2"/>
				<line class="st2" x1="699.6" y1="393.7" x2="700.5" y2="394.3"/>
			</g>
			<g>
				<line class="st2" x1="669.4" y1="412.2" x2="669.4" y2="411.2"/>
				<line class="st7" x1="669.4" y1="409.3" x2="669.4" y2="375.8"/>
				<line class="st2" x1="669.4" y1="374.8" x2="669.4" y2="373.8"/>
			</g>
			<g>
				<line class="st2" x1="700.5" y1="394.3" x2="700.5" y2="393.3"/>
				<line class="st3" x1="700.5" y1="391.4" x2="700.5" y2="354.3"/>
				<line class="st2" x1="700.5" y1="353.3" x2="700.5" y2="352.3"/>
			</g>
			<g>
				<line class="st2" x1="669.4" y1="412.2" x2="670.2" y2="411.7"/>
				<line class="st5" x1="672" y1="410.7" x2="698.7" y2="395.3"/>
				<line class="st2" x1="699.6" y1="394.8" x2="700.5" y2="394.3"/>
			</g>
			<g>
				<line class="st2" x1="669.4" y1="376.4" x2="668.5" y2="376.9"/>
				<line class="st5" x1="666.8" y1="377.8" x2="640" y2="393.3"/>
				<line class="st2" x1="639.2" y1="393.8" x2="638.3" y2="394.3"/>
			</g>
			<g>
				<line class="st2" x1="638.3" y1="394.3" x2="639.2" y2="394.8"/>
				<line class="st5" x1="640.9" y1="395.8" x2="667.7" y2="411.2"/>
				<line class="st2" x1="668.5" y1="411.7" x2="669.4" y2="412.2"/>
			</g>
			<g>
				<line class="st2" x1="700.5" y1="394.3" x2="699.6" y2="393.8"/>
				<line class="st6" x1="697.9" y1="392.8" x2="671.1" y2="377.4"/>
				<line class="st2" x1="670.2" y1="376.9" x2="669.4" y2="376.4"/>
			</g>
			<g>
				<line class="st2" x1="669.4" y1="412.2" x2="668.5" y2="411.7"/>
				<line class="st4" x1="666.8" y1="410.6" x2="640" y2="392.9"/>
				<line class="st2" x1="639.1" y1="392.3" x2="638.3" y2="391.8"/>
			</g>
			<g>
				<line class="st2" x1="607.2" y1="412.2" x2="608.1" y2="411.7"/>
				<line class="st4" x1="609.8" y1="410.6" x2="636.6" y2="392.9"/>
				<line class="st2" x1="637.5" y1="392.3" x2="638.3" y2="391.8"/>
			</g>
			<g>
				<line class="st2" x1="669.4" y1="412.2" x2="668.5" y2="411.7"/>
				<line class="st5" x1="666.8" y1="410.7" x2="640" y2="395.3"/>
				<line class="st2" x1="639.2" y1="394.8" x2="638.3" y2="394.3"/>
			</g>
			<g>
				<line class="st2" x1="638.3" y1="394.3" x2="637.4" y2="394.8"/>
				<line class="st5" x1="635.7" y1="395.8" x2="609" y2="411.2"/>
				<line class="st2" x1="608.1" y1="411.7" x2="607.2" y2="412.2"/>
			</g>
			<g>
				<line class="st2" x1="638.3" y1="430.2" x2="639.2" y2="429.7"/>
				<line class="st5" x1="640.9" y1="428.7" x2="667.7" y2="413.2"/>
				<line class="st2" x1="668.5" y1="412.7" x2="669.4" y2="412.2"/>
			</g>
			<g>
				<line class="st2" x1="669.4" y1="376.4" x2="670.2" y2="375.8"/>
				<line class="st4" x1="671.9" y1="374.7" x2="698.8" y2="357"/>
				<line class="st2" x1="699.6" y1="356.4" x2="700.5" y2="355.9"/>
			</g>
			<g>
				<line class="st2" x1="731.5" y1="376.4" x2="730.7" y2="375.8"/>
				<line class="st4" x1="729" y1="374.7" x2="702.2" y2="357"/>
				<line class="st2" x1="701.3" y1="356.4" x2="700.5" y2="355.9"/>
			</g>
			<g>
				<line class="st2" x1="731.5" y1="376.4" x2="731.5" y2="375.4"/>
				<line class="st3" x1="731.5" y1="373.4" x2="731.5" y2="336.3"/>
				<line class="st2" x1="731.5" y1="335.4" x2="731.5" y2="334.4"/>
			</g>
			<g>
				<line class="st2" x1="731.5" y1="376.4" x2="730.7" y2="375.9"/>
				<line class="st5" x1="728.9" y1="374.9" x2="702.2" y2="359.4"/>
				<line class="st2" x1="701.3" y1="358.9" x2="700.5" y2="358.4"/>
			</g>
			<g>
				<line class="st2" x1="669.4" y1="376.4" x2="670.2" y2="376.9"/>
				<line class="st6" x1="672" y1="377.8" x2="698.7" y2="393.3"/>
				<line class="st2" x1="699.6" y1="393.8" x2="700.5" y2="394.3"/>
			</g>
			<g>
				<line class="st2" x1="700.5" y1="394.3" x2="701.3" y2="393.8"/>
				<line class="st6" x1="703.1" y1="392.8" x2="729.8" y2="377.4"/>
				<line class="st2" x1="730.7" y1="376.9" x2="731.5" y2="376.4"/>
			</g>
			<g>
				<line class="st2" x1="700.5" y1="358.4" x2="699.6" y2="358.9"/>
				<line class="st5" x1="697.9" y1="359.9" x2="671.1" y2="375.4"/>
				<line class="st2" x1="670.2" y1="375.9" x2="669.4" y2="376.4"/>
			</g>
			<g>
				<line class="st2" x1="785.9" y1="414.2" x2="786.8" y2="414.8"/>
				<line class="st4" x1="788.5" y1="415.9" x2="815.3" y2="433.5"/>
				<line class="st2" x1="816.2" y1="434.1" x2="817" y2="434.7"/>
			</g>
			<g>
				<line class="st2" x1="785.9" y1="414.2" x2="785.1" y2="414.8"/>
				<line class="st4" x1="783.4" y1="415.9" x2="756.6" y2="433.5"/>
				<line class="st2" x1="755.7" y1="434.1" x2="754.9" y2="434.7"/>
			</g>
			<g>
				<line class="st2" x1="785.9" y1="452.6" x2="785.9" y2="451.6"/>
				<line class="st7" x1="785.9" y1="449.7" x2="785.9" y2="416.2"/>
				<line class="st2" x1="785.9" y1="415.2" x2="785.9" y2="414.2"/>
			</g>
			<g>
				<line class="st2" x1="817" y1="434.7" x2="817" y2="433.7"/>
				<line class="st3" x1="817" y1="431.8" x2="817" y2="394.6"/>
				<line class="st2" x1="817" y1="393.7" x2="817" y2="392.7"/>
			</g>
			<g>
				<line class="st2" x1="785.9" y1="416.7" x2="785.9" y2="415.7"/>
				<line class="st2" x1="785.9" y1="415.2" x2="785.9" y2="414.2"/>
			</g>
			<g>
				<line class="st2" x1="754.9" y1="434.7" x2="754.9" y2="433.7"/>
				<line class="st3" x1="754.9" y1="431.8" x2="754.9" y2="394.6"/>
				<line class="st2" x1="754.9" y1="393.7" x2="754.9" y2="392.7"/>
			</g>
			<g>
				<line class="st2" x1="785.9" y1="416.7" x2="785.9" y2="415.7"/>
				<line class="st2" x1="785.9" y1="415.2" x2="785.9" y2="414.2"/>
			</g>
			<g>
				<line class="st2" x1="785.9" y1="416.7" x2="785.1" y2="417.2"/>
				<line class="st5" x1="783.3" y1="418.2" x2="756.6" y2="433.7"/>
				<line class="st2" x1="755.7" y1="434.2" x2="754.9" y2="434.7"/>
			</g>
			<g>
				<line class="st2" x1="785.9" y1="410.6" x2="785.9" y2="411.6"/>
				<line class="st3" x1="785.9" y1="413.5" x2="785.9" y2="450.7"/>
				<line class="st2" x1="785.9" y1="451.6" x2="785.9" y2="452.6"/>
			</g>
			<g>
				<line class="st2" x1="785.9" y1="452.6" x2="786.8" y2="452.1"/>
				<line class="st5" x1="788.5" y1="451.1" x2="815.3" y2="435.7"/>
				<line class="st2" x1="816.1" y1="435.2" x2="817" y2="434.7"/>
			</g>
			<g>
				<line class="st2" x1="817" y1="434.7" x2="816.1" y2="434.2"/>
				<line class="st6" x1="814.4" y1="433.2" x2="787.7" y2="417.7"/>
				<line class="st2" x1="786.8" y1="417.2" x2="785.9" y2="416.7"/>
			</g>
			<g>
				<line class="st2" x1="754.9" y1="434.7" x2="755.7" y2="435.2"/>
				<line class="st5" x1="757.4" y1="436.2" x2="784.2" y2="451.6"/>
				<line class="st2" x1="785.1" y1="452.1" x2="785.9" y2="452.6"/>
			</g>
			<g>
				<line class="st2" x1="482.9" y1="301" x2="482.1" y2="300.4"/>
				<line class="st18" x1="481.1" y1="299.8" x2="479.7" y2="298.9"/>
				<line class="st2" x1="479.2" y1="298.6" x2="478.4" y2="298"/>
			</g>
			<g>
				<line class="st2" x1="420.8" y1="291.3" x2="420.8" y2="290.3"/>
				<line class="st19" x1="420.8" y1="288.3" x2="420.8" y2="261"/>
				<line class="st2" x1="420.8" y1="260" x2="420.8" y2="259"/>
			</g>
			<g>
				<line class="st2" x1="482.9" y1="259" x2="482.9" y2="260"/>
				<line class="st19" x1="482.9" y1="262" x2="482.9" y2="289.3"/>
				<line class="st2" x1="482.9" y1="290.3" x2="482.9" y2="291.3"/>
			</g>
			<g>
				<line class="st2" x1="482.9" y1="301" x2="482" y2="300.5"/>
				<line class="st8" x1="481" y1="299.9" x2="479.5" y2="299"/>
				<line class="st2" x1="479" y1="298.7" x2="478.1" y2="298.2"/>
			</g>
			<g>
				<line class="st2" x1="460.2" y1="314.1" x2="461.1" y2="313.6"/>
				<line class="st20" x1="462.7" y1="312.7" x2="481.2" y2="302"/>
				<line class="st2" x1="482" y1="301.5" x2="482.9" y2="301"/>
			</g>
			<g>
				<line class="st2" x1="451.8" y1="348.7" x2="451.8" y2="349.7"/>
				<line class="st21" x1="451.8" y1="351.1" x2="451.8" y2="353.1"/>
				<line class="st2" x1="451.8" y1="353.8" x2="451.8" y2="354.8"/>
			</g>
			<g>
				<line class="st2" x1="482.9" y1="336.9" x2="482.1" y2="336.3"/>
				<line class="st22" x1="481" y1="335.6" x2="479.4" y2="334.5"/>
				<line class="st2" x1="478.8" y1="334.2" x2="478" y2="333.6"/>
			</g>
			<g>
				<line class="st2" x1="451.8" y1="354.8" x2="451.8" y2="353.8"/>
				<line class="st21" x1="451.8" y1="352.5" x2="451.8" y2="350.4"/>
				<line class="st2" x1="451.8" y1="349.7" x2="451.8" y2="348.7"/>
			</g>
			<g>
				<line class="st2" x1="446.5" y1="351.8" x2="447.4" y2="352.3"/>
				<line class="st21" x1="448.6" y1="353" x2="450.4" y2="354"/>
				<line class="st2" x1="451" y1="354.3" x2="451.8" y2="354.8"/>
			</g>
			<g>
				<line class="st2" x1="482.9" y1="294.9" x2="482.9" y2="295.9"/>
				<line class="st19" x1="482.9" y1="297.9" x2="482.9" y2="325.2"/>
				<line class="st2" x1="482.9" y1="326.2" x2="482.9" y2="327.2"/>
			</g>
			<g>
				<line class="st2" x1="482.9" y1="330.8" x2="482.9" y2="331.8"/>
				<line class="st23" x1="482.9" y1="333.1" x2="482.9" y2="335.2"/>
				<line class="st2" x1="482.9" y1="335.9" x2="482.9" y2="336.9"/>
			</g>
			<g>
				<line class="st2" x1="482.9" y1="336.9" x2="482" y2="336.4"/>
				<line class="st24" x1="480.9" y1="335.7" x2="479.1" y2="334.7"/>
				<line class="st2" x1="478.5" y1="334.3" x2="477.6" y2="333.8"/>
			</g>
			<g>
				<line class="st2" x1="451.8" y1="354.8" x2="452.7" y2="354.3"/>
				<line class="st6" x1="454.4" y1="353.3" x2="481.2" y2="337.9"/>
				<line class="st2" x1="482" y1="337.4" x2="482.9" y2="336.9"/>
			</g>
			<g>
				<line class="st2" x1="514" y1="180" x2="513.2" y2="180.6"/>
				<line class="st4" x1="511.4" y1="181.7" x2="484.6" y2="199.4"/>
				<line class="st2" x1="483.7" y1="200" x2="482.9" y2="200.5"/>
			</g>
			<g>
				<line class="st2" x1="514" y1="180" x2="514.8" y2="180.6"/>
				<line class="st4" x1="516.6" y1="181.7" x2="543.4" y2="199.4"/>
				<line class="st2" x1="544.2" y1="200" x2="545.1" y2="200.5"/>
			</g>
			<g>
				<line class="st2" x1="482.9" y1="200.5" x2="482.9" y2="199.5"/>
				<line class="st3" x1="482.9" y1="197.6" x2="482.9" y2="160.5"/>
				<line class="st2" x1="482.9" y1="159.5" x2="482.9" y2="158.5"/>
			</g>
			<g>
				<line class="st2" x1="514" y1="218.4" x2="514" y2="217.4"/>
				<line class="st7" x1="514" y1="215.5" x2="514" y2="182"/>
				<line class="st2" x1="514" y1="181" x2="514" y2="180"/>
			</g>
			<g>
				<line class="st2" x1="514" y1="218.4" x2="514.9" y2="217.9"/>
				<line class="st6" x1="516.6" y1="217" x2="543.3" y2="201.5"/>
				<line class="st2" x1="544.2" y1="201" x2="545.1" y2="200.5"/>
			</g>
			<g>
				<line class="st2" x1="514" y1="182.6" x2="513.1" y2="183.1"/>
				<line class="st5" x1="511.4" y1="184.1" x2="484.6" y2="199.5"/>
				<line class="st2" x1="483.8" y1="200" x2="482.9" y2="200.5"/>
			</g>
			<g>
				<line class="st2" x1="482.9" y1="200.5" x2="483.8" y2="201"/>
				<line class="st5" x1="485.5" y1="202" x2="512.3" y2="217.5"/>
				<line class="st2" x1="513.1" y1="217.9" x2="514" y2="218.4"/>
			</g>
			<g>
				<line class="st2" x1="545.1" y1="200.5" x2="544.2" y2="200"/>
				<line class="st5" x1="542.5" y1="199" x2="515.7" y2="183.6"/>
				<line class="st2" x1="514.9" y1="183.1" x2="514" y2="182.6"/>
			</g>
			<g>
				<line class="st2" x1="545.1" y1="198" x2="544.2" y2="198.5"/>
				<line class="st4" x1="542.5" y1="199.7" x2="515.7" y2="217.3"/>
				<line class="st2" x1="514.8" y1="217.9" x2="514" y2="218.4"/>
			</g>
			<g>
				<line class="st2" x1="545.1" y1="198" x2="545.9" y2="198.5"/>
				<line class="st4" x1="547.6" y1="199.7" x2="574.4" y2="217.3"/>
				<line class="st2" x1="575.3" y1="217.9" x2="576.1" y2="218.4"/>
			</g>
			<g>
				<line class="st2" x1="545.1" y1="236.4" x2="545.1" y2="235.4"/>
				<line class="st17" x1="545.1" y1="233.5" x2="545.1" y2="200"/>
				<line class="st2" x1="545.1" y1="199" x2="545.1" y2="198"/>
			</g>
			<g>
				<line class="st2" x1="576.1" y1="218.4" x2="576.1" y2="217.4"/>
				<line class="st3" x1="576.1" y1="215.5" x2="576.1" y2="178.4"/>
				<line class="st2" x1="576.1" y1="177.5" x2="576.1" y2="176.5"/>
			</g>
			<g>
				<line class="st2" x1="545.1" y1="236.4" x2="545.9" y2="235.9"/>
				<line class="st5" x1="547.7" y1="234.9" x2="574.4" y2="219.4"/>
				<line class="st2" x1="575.3" y1="218.9" x2="576.1" y2="218.4"/>
			</g>
			<g>
				<line class="st2" x1="514" y1="218.4" x2="514.9" y2="218.9"/>
				<line class="st5" x1="516.6" y1="219.9" x2="543.3" y2="235.4"/>
				<line class="st2" x1="544.2" y1="235.9" x2="545.1" y2="236.4"/>
			</g>
			<g>
				<line class="st2" x1="576.1" y1="218.4" x2="575.3" y2="217.9"/>
				<line class="st6" x1="573.6" y1="217" x2="546.8" y2="201.5"/>
				<line class="st2" x1="545.9" y1="201" x2="545.1" y2="200.5"/>
			</g>
			<g>
				<line class="st2" x1="482.9" y1="162.1" x2="482.1" y2="162.7"/>
				<line class="st4" x1="480.3" y1="163.8" x2="453.5" y2="181.4"/>
				<line class="st2" x1="452.7" y1="182" x2="451.8" y2="182.6"/>
			</g>
			<g>
				<line class="st2" x1="482.9" y1="162.1" x2="483.7" y2="162.7"/>
				<line class="st4" x1="485.5" y1="163.8" x2="512.3" y2="181.4"/>
				<line class="st2" x1="513.2" y1="182" x2="514" y2="182.6"/>
			</g>
			<g>
				<line class="st2" x1="451.8" y1="182.6" x2="451.8" y2="181.6"/>
				<line class="st3" x1="451.8" y1="179.7" x2="451.8" y2="142.5"/>
				<line class="st2" x1="451.8" y1="141.6" x2="451.8" y2="140.6"/>
			</g>
			<g>
				<line class="st2" x1="482.9" y1="164.6" x2="482" y2="165.1"/>
				<line class="st5" x1="480.3" y1="166.1" x2="453.6" y2="181.6"/>
				<line class="st2" x1="452.7" y1="182.1" x2="451.8" y2="182.6"/>
			</g>
			<g>
				<line class="st2" x1="451.8" y1="182.6" x2="452.7" y2="183.1"/>
				<line class="st5" x1="454.4" y1="184.1" x2="481.2" y2="199.5"/>
				<line class="st2" x1="482" y1="200" x2="482.9" y2="200.5"/>
			</g>
			<g>
				<line class="st2" x1="514" y1="182.6" x2="513.1" y2="182.1"/>
				<line class="st5" x1="511.4" y1="181.1" x2="484.6" y2="165.6"/>
				<line class="st2" x1="483.8" y1="165.1" x2="482.9" y2="164.6"/>
			</g>
			<g>
				<line class="st2" x1="677.2" y1="154" x2="676.3" y2="154.6"/>
				<line class="st4" x1="674.6" y1="155.7" x2="647.8" y2="173.4"/>
				<line class="st2" x1="646.9" y1="173.9" x2="646.1" y2="174.5"/>
			</g>
			<g>
				<line class="st2" x1="677.2" y1="154" x2="678" y2="154.6"/>
				<line class="st4" x1="679.7" y1="155.7" x2="706.5" y2="173.4"/>
				<line class="st2" x1="707.4" y1="173.9" x2="708.2" y2="174.5"/>
			</g>
			<g>
				<line class="st2" x1="646.1" y1="174.5" x2="646.1" y2="173.5"/>
				<line class="st21" x1="646.1" y1="172.1" x2="646.1" y2="170.1"/>
				<line class="st2" x1="646.1" y1="169.4" x2="646.1" y2="168.4"/>
			</g>
			<g>
				<line class="st2" x1="677.2" y1="192.4" x2="677.2" y2="191.4"/>
				<line class="st7" x1="677.2" y1="189.5" x2="677.2" y2="156"/>
				<line class="st2" x1="677.2" y1="155" x2="677.2" y2="154"/>
			</g>
			<g>
				<line class="st2" x1="708.2" y1="174.5" x2="708.2" y2="173.5"/>
				<line class="st3" x1="708.2" y1="171.6" x2="708.2" y2="134.5"/>
				<line class="st2" x1="708.2" y1="133.5" x2="708.2" y2="132.5"/>
			</g>
			<g>
				<line class="st2" x1="677.2" y1="192.4" x2="677.2" y2="191.4"/>
				<line class="st3" x1="677.2" y1="189.5" x2="677.2" y2="152.4"/>
				<line class="st2" x1="677.2" y1="151.4" x2="677.2" y2="150.4"/>
			</g>
			<g>
				<line class="st2" x1="677.2" y1="192.4" x2="678" y2="191.9"/>
				<line class="st5" x1="679.7" y1="190.9" x2="706.5" y2="175.5"/>
				<line class="st2" x1="707.4" y1="175" x2="708.2" y2="174.5"/>
			</g>
			<g>
				<line class="st2" x1="677.2" y1="156.5" x2="676.3" y2="157"/>
				<line class="st6" x1="674.6" y1="158" x2="647.8" y2="173.5"/>
				<line class="st2" x1="646.9" y1="174" x2="646.1" y2="174.5"/>
			</g>
			<g>
				<line class="st2" x1="646.1" y1="174.5" x2="646.9" y2="175"/>
				<line class="st5" x1="648.7" y1="176" x2="675.4" y2="191.4"/>
				<line class="st2" x1="676.3" y1="191.9" x2="677.2" y2="192.4"/>
			</g>
			<g>
				<line class="st2" x1="708.2" y1="174.5" x2="707.4" y2="174"/>
				<line class="st5" x1="705.6" y1="173" x2="678.9" y2="157.5"/>
				<line class="st2" x1="678" y1="157" x2="677.2" y2="156.5"/>
			</g>
			<g>
				<line class="st2" x1="646.1" y1="137.9" x2="646.1" y2="136.9"/>
				<line class="st25" x1="646.1" y1="135.8" x2="646.1" y2="134.1"/>
				<line class="st2" x1="646.1" y1="133.5" x2="646.1" y2="132.5"/>
			</g>
			<g>
				<line class="st2" x1="607.2" y1="223.1" x2="607.2" y2="222.1"/>
				<line class="st26" x1="607.2" y1="220.1" x2="607.2" y2="196.4"/>
				<line class="st2" x1="607.2" y1="195.4" x2="607.2" y2="194.4"/>
			</g>
			<g>
				<line class="st2" x1="669.4" y1="272.3" x2="669.4" y2="271.3"/>
				<line class="st23" x1="669.4" y1="269.9" x2="669.4" y2="267.9"/>
				<line class="st2" x1="669.4" y1="267.2" x2="669.4" y2="266.2"/>
			</g>
			<g>
				<line class="st2" x1="669.4" y1="272.3" x2="670.2" y2="272.8"/>
				<line class="st26" x1="672" y1="273.8" x2="692.5" y2="285.6"/>
				<line class="st2" x1="693.4" y1="286.1" x2="694.2" y2="286.6"/>
			</g>
			<g>
				<line class="st2" x1="674.2" y1="269.5" x2="673.3" y2="270"/>
				<line class="st8" x1="672.3" y1="270.6" x2="670.8" y2="271.5"/>
				<line class="st2" x1="670.2" y1="271.8" x2="669.4" y2="272.3"/>
			</g>
			<g>
				<line class="st2" x1="669.4" y1="272.3" x2="669.4" y2="271.3"/>
				<line class="st23" x1="669.4" y1="269.9" x2="669.4" y2="267.9"/>
				<line class="st2" x1="669.4" y1="267.2" x2="669.4" y2="266.2"/>
			</g>
			<g>
				<line class="st2" x1="669.4" y1="272.3" x2="669.4" y2="271.3"/>
				<line class="st23" x1="669.4" y1="269.9" x2="669.4" y2="267.9"/>
				<line class="st2" x1="669.4" y1="267.2" x2="669.4" y2="266.2"/>
			</g>
			<g>
				<line class="st2" x1="669.4" y1="272.3" x2="670.2" y2="271.8"/>
				<line class="st8" x1="671.3" y1="271.2" x2="672.8" y2="270.3"/>
				<line class="st2" x1="673.3" y1="270" x2="674.2" y2="269.5"/>
			</g>
			<g>
				<line class="st2" x1="661" y1="267.4" x2="661.9" y2="267.9"/>
				<line class="st27" x1="664.1" y1="269.2" x2="667.4" y2="271.1"/>
				<line class="st2" x1="668.5" y1="271.8" x2="669.4" y2="272.3"/>
			</g>
			<g>
				<line class="st2" x1="688" y1="295.9" x2="687.2" y2="296.4"/>
				<line class="st28" x1="685.7" y1="297.5" x2="671" y2="307.1"/>
				<line class="st2" x1="670.2" y1="307.6" x2="669.4" y2="308.2"/>
			</g>
			<g>
				<line class="st2" x1="669.4" y1="308.2" x2="669.4" y2="307.2"/>
				<line class="st3" x1="669.4" y1="305.3" x2="669.4" y2="268.1"/>
				<line class="st2" x1="669.4" y1="267.2" x2="669.4" y2="266.2"/>
			</g>
			<g>
				<line class="st2" x1="688" y1="297.4" x2="687.2" y2="297.9"/>
				<line class="st29" x1="685.3" y1="299" x2="671.2" y2="307.1"/>
				<line class="st2" x1="670.2" y1="307.7" x2="669.4" y2="308.2"/>
			</g>
			<g>
				<line class="st2" x1="669.4" y1="308.2" x2="670.2" y2="308.7"/>
				<line class="st16" x1="672.5" y1="309.9" x2="675.8" y2="311.9"/>
				<line class="st2" x1="676.9" y1="312.5" x2="677.8" y2="313"/>
			</g>
			<g>
				<line class="st2" x1="855.9" y1="294.9" x2="855.9" y2="293.9"/>
				<line class="st26" x1="855.9" y1="291.8" x2="855.9" y2="268.2"/>
				<line class="st2" x1="855.9" y1="267.2" x2="855.9" y2="266.2"/>
			</g>
			<g>
				<line class="st2" x1="762.6" y1="287.7" x2="762.6" y2="288.7"/>
				<line class="st17" x1="762.6" y1="290.6" x2="762.6" y2="324.2"/>
				<line class="st2" x1="762.6" y1="325.1" x2="762.6" y2="326.1"/>
			</g>
			<g>
				<line class="st2" x1="731.5" y1="308.2" x2="732.4" y2="308.7"/>
				<line class="st5" x1="734.1" y1="309.7" x2="760.9" y2="325.1"/>
				<line class="st2" x1="761.8" y1="325.6" x2="762.6" y2="326.1"/>
			</g>
			<g>
				<line class="st2" x1="762.6" y1="326.1" x2="763.5" y2="325.6"/>
				<line class="st5" x1="765.2" y1="324.6" x2="792" y2="309.2"/>
				<line class="st2" x1="792.8" y1="308.7" x2="793.7" y2="308.2"/>
			</g>
			<g>
				<line class="st2" x1="731.5" y1="305.7" x2="732.4" y2="306.2"/>
				<line class="st4" x1="734.1" y1="307.3" x2="760.9" y2="325"/>
				<line class="st2" x1="761.8" y1="325.6" x2="762.6" y2="326.1"/>
			</g>
			<g>
				<line class="st2" x1="731.5" y1="344.1" x2="731.5" y2="343.1"/>
				<line class="st7" x1="731.5" y1="341.1" x2="731.5" y2="307.6"/>
				<line class="st2" x1="731.5" y1="306.7" x2="731.5" y2="305.7"/>
			</g>
			<g>
				<line class="st2" x1="731.5" y1="344.1" x2="731.5" y2="343.1"/>
				<line class="st3" x1="731.5" y1="341.1" x2="731.5" y2="304"/>
				<line class="st2" x1="731.5" y1="303.1" x2="731.5" y2="302.1"/>
			</g>
			<g>
				<line class="st2" x1="731.5" y1="344.1" x2="732.4" y2="343.6"/>
				<line class="st6" x1="734.1" y1="342.6" x2="760.9" y2="327.1"/>
				<line class="st2" x1="761.8" y1="326.6" x2="762.6" y2="326.1"/>
			</g>
			<g>
				<line class="st2" x1="723.9" y1="339.6" x2="724.8" y2="340.1"/>
				<line class="st30" x1="726.7" y1="341.3" x2="729.7" y2="343"/>
				<line class="st2" x1="730.7" y1="343.6" x2="731.5" y2="344.1"/>
			</g>
			<g>
				<line class="st2" x1="793.7" y1="344.1" x2="794.5" y2="343.5"/>
				<line class="st4" x1="796.3" y1="342.4" x2="823.1" y2="324.7"/>
				<line class="st2" x1="823.9" y1="324.1" x2="824.8" y2="323.6"/>
			</g>
			<g>
				<line class="st2" x1="793.7" y1="302.1" x2="793.7" y2="303.1"/>
				<line class="st3" x1="793.7" y1="305" x2="793.7" y2="342.1"/>
				<line class="st2" x1="793.7" y1="343.1" x2="793.7" y2="344.1"/>
			</g>
			<g>
				<line class="st2" x1="793.7" y1="344.1" x2="794.6" y2="344.6"/>
				<line class="st10" x1="796.2" y1="345.5" x2="811.6" y2="354.4"/>
				<line class="st2" x1="812.4" y1="354.9" x2="813.3" y2="355.4"/>
			</g>
			<g>
				<line class="st2" x1="824.8" y1="326.1" x2="823.9" y2="326.6"/>
				<line class="st5" x1="822.2" y1="327.6" x2="795.4" y2="343.1"/>
				<line class="st2" x1="794.6" y1="343.6" x2="793.7" y2="344.1"/>
			</g>
			<g>
				<line class="st2" x1="762.6" y1="326.1" x2="763.5" y2="325.6"/>
				<line class="st4" x1="765.2" y1="324.4" x2="792" y2="306.8"/>
				<line class="st2" x1="792.9" y1="306.2" x2="793.7" y2="305.7"/>
			</g>
			<g>
				<line class="st2" x1="762.6" y1="326.1" x2="763.5" y2="326.6"/>
				<line class="st6" x1="765.2" y1="327.6" x2="792" y2="343.1"/>
				<line class="st2" x1="792.8" y1="343.6" x2="793.7" y2="344.1"/>
			</g>
			<g>
				<line class="st2" x1="793.7" y1="308.2" x2="792.8" y2="307.7"/>
				<line class="st6" x1="791.1" y1="306.7" x2="764.4" y2="291.2"/>
				<line class="st2" x1="763.5" y1="290.7" x2="762.6" y2="290.2"/>
			</g>
			<g>
				<line class="st2" x1="824.8" y1="323.6" x2="824.8" y2="324.6"/>
				<line class="st31" x1="824.8" y1="326.7" x2="824.8" y2="346.7"/>
				<line class="st2" x1="824.8" y1="347.7" x2="824.8" y2="348.7"/>
			</g>
			<g>
				<line class="st2" x1="845.1" y1="337" x2="844.3" y2="336.4"/>
				<line class="st9" x1="842.6" y1="335.3" x2="826.5" y2="324.7"/>
				<line class="st2" x1="825.6" y1="324.1" x2="824.8" y2="323.6"/>
			</g>
			<g>
				<line class="st2" x1="844.4" y1="337.4" x2="843.5" y2="336.9"/>
				<line class="st11" x1="841.9" y1="336" x2="826.5" y2="327.1"/>
				<line class="st2" x1="825.6" y1="326.6" x2="824.8" y2="326.1"/>
			</g>
			<g>
				<line class="st2" x1="793.7" y1="308.2" x2="794.6" y2="308.7"/>
				<line class="st5" x1="796.3" y1="309.7" x2="823.1" y2="325.1"/>
				<line class="st2" x1="823.9" y1="325.6" x2="824.8" y2="326.1"/>
			</g>
			<g>
				<line class="st2" x1="824.8" y1="326.1" x2="825.6" y2="325.6"/>
				<line class="st8" x1="826.7" y1="325" x2="828.2" y2="324.1"/>
				<line class="st2" x1="828.7" y1="323.8" x2="829.6" y2="323.3"/>
			</g>
			<g>
				<line class="st2" x1="798.5" y1="305.4" x2="797.6" y2="305.9"/>
				<line class="st8" x1="796.6" y1="306.5" x2="795.1" y2="307.4"/>
				<line class="st2" x1="794.6" y1="307.7" x2="793.7" y2="308.2"/>
			</g>
			<g>
				<line class="st2" x1="824.8" y1="326.1" x2="823.9" y2="325.6"/>
				<line class="st4" x1="822.2" y1="324.4" x2="795.4" y2="306.8"/>
				<line class="st2" x1="794.5" y1="306.2" x2="793.7" y2="305.7"/>
			</g>
			<g>
				<line class="st2" x1="731.5" y1="308.2" x2="732.4" y2="307.7"/>
				<line class="st6" x1="734.1" y1="306.7" x2="760.9" y2="291.2"/>
				<line class="st2" x1="761.8" y1="290.7" x2="762.6" y2="290.2"/>
			</g>
			<g>
				<line class="st2" x1="758.1" y1="287.3" x2="758.9" y2="287.8"/>
				<line class="st32" x1="759.9" y1="288.4" x2="761.3" y2="289.4"/>
				<line class="st2" x1="761.8" y1="289.7" x2="762.6" y2="290.2"/>
			</g>
			<g>
				<line class="st2" x1="763.5" y1="287.1" x2="764.3" y2="287.6"/>
				<line class="st33" x1="766.1" y1="288.6" x2="782.6" y2="298.2"/>
				<line class="st2" x1="783.5" y1="298.7" x2="784.4" y2="299.2"/>
			</g>
			<g>
				<line class="st2" x1="918" y1="415.8" x2="918" y2="414.8"/>
				<line class="st17" x1="918" y1="412.9" x2="918" y2="379.4"/>
				<line class="st2" x1="918" y1="378.4" x2="918" y2="377.4"/>
			</g>
			<g>
				<line class="st2" x1="918" y1="415.8" x2="918.9" y2="415.3"/>
				<line class="st5" x1="920.6" y1="414.3" x2="947.4" y2="398.9"/>
				<line class="st2" x1="948.2" y1="398.4" x2="949.1" y2="397.9"/>
			</g>
			<g>
				<line class="st2" x1="886.9" y1="397.9" x2="887.8" y2="398.4"/>
				<line class="st5" x1="889.5" y1="399.4" x2="916.3" y2="414.8"/>
				<line class="st2" x1="917.2" y1="415.3" x2="918" y2="415.8"/>
			</g>
			<g>
				<line class="st2" x1="949.1" y1="395.4" x2="949.9" y2="395.9"/>
				<line class="st4" x1="951.7" y1="397.1" x2="978.5" y2="414.7"/>
				<line class="st2" x1="979.3" y1="415.3" x2="980.2" y2="415.8"/>
			</g>
			<g>
				<line class="st2" x1="949.1" y1="395.4" x2="948.3" y2="395.9"/>
				<line class="st4" x1="946.5" y1="397.1" x2="919.7" y2="414.7"/>
				<line class="st2" x1="918.9" y1="415.3" x2="918" y2="415.8"/>
			</g>
			<g>
				<line class="st2" x1="949.1" y1="433.8" x2="949.1" y2="432.8"/>
				<line class="st7" x1="949.1" y1="430.9" x2="949.1" y2="397.3"/>
				<line class="st2" x1="949.1" y1="396.4" x2="949.1" y2="395.4"/>
			</g>
			<g>
				<line class="st2" x1="980.2" y1="415.8" x2="980.2" y2="414.8"/>
				<line class="st2" x1="980.2" y1="414.3" x2="980.2" y2="413.3"/>
			</g>
			<g>
				<line class="st2" x1="949.1" y1="433.8" x2="950" y2="433.3"/>
				<line class="st5" x1="951.7" y1="432.3" x2="978.4" y2="416.8"/>
				<line class="st2" x1="979.3" y1="416.3" x2="980.2" y2="415.8"/>
			</g>
			<g>
				<line class="st2" x1="980.2" y1="415.8" x2="979.3" y2="415.3"/>
				<line class="st5" x1="977.6" y1="414.3" x2="950.8" y2="398.9"/>
				<line class="st2" x1="950" y1="398.4" x2="949.1" y2="397.9"/>
			</g>
			<g>
				<line class="st2" x1="918" y1="415.8" x2="918.9" y2="416.3"/>
				<line class="st6" x1="920.6" y1="417.3" x2="947.4" y2="432.8"/>
				<line class="st2" x1="948.2" y1="433.3" x2="949.1" y2="433.8"/>
			</g>
			<g>
				<line class="st2" x1="980.2" y1="413.3" x2="979.3" y2="413.9"/>
				<line class="st4" x1="977.6" y1="415" x2="950.8" y2="432.7"/>
				<line class="st2" x1="949.9" y1="433.2" x2="949.1" y2="433.8"/>
			</g>
			<g>
				<line class="st2" x1="980.2" y1="413.3" x2="981" y2="413.9"/>
				<line class="st4" x1="982.7" y1="415" x2="1009.6" y2="432.7"/>
				<line class="st2" x1="1010.4" y1="433.2" x2="1011.3" y2="433.8"/>
			</g>
			<g>
				<line class="st2" x1="980.2" y1="415.8" x2="980.2" y2="414.8"/>
				<line class="st2" x1="980.2" y1="414.3" x2="980.2" y2="413.3"/>
			</g>
			<g>
				<line class="st2" x1="980.2" y1="451.7" x2="980.2" y2="450.7"/>
				<line class="st17" x1="980.2" y1="448.8" x2="980.2" y2="415.3"/>
				<line class="st2" x1="980.2" y1="414.3" x2="980.2" y2="413.3"/>
			</g>
			<g>
				<line class="st2" x1="1011.3" y1="433.8" x2="1011.3" y2="432.8"/>
				<line class="st3" x1="1011.3" y1="430.9" x2="1011.3" y2="393.7"/>
				<line class="st2" x1="1011.3" y1="392.8" x2="1011.3" y2="391.8"/>
			</g>
			<g>
				<line class="st2" x1="980.2" y1="451.7" x2="981" y2="451.2"/>
				<line class="st5" x1="982.8" y1="450.2" x2="1009.5" y2="434.8"/>
				<line class="st2" x1="1010.4" y1="434.3" x2="1011.3" y2="433.8"/>
			</g>
			<g>
				<line class="st2" x1="980.2" y1="413.3" x2="980.2" y2="414.3"/>
				<line class="st2" x1="980.2" y1="414.8" x2="980.2" y2="415.8"/>
			</g>
			<g>
				<line class="st2" x1="949.1" y1="433.8" x2="950" y2="434.3"/>
				<line class="st5" x1="951.7" y1="435.3" x2="978.4" y2="450.7"/>
				<line class="st2" x1="979.3" y1="451.2" x2="980.2" y2="451.7"/>
			</g>
			<g>
				<line class="st2" x1="1011.3" y1="433.8" x2="1010.4" y2="433.3"/>
				<line class="st6" x1="1008.7" y1="432.3" x2="981.9" y2="416.8"/>
				<line class="st2" x1="981" y1="416.3" x2="980.2" y2="415.8"/>
			</g>
			<g>
				<line class="st2" x1="918" y1="379.9" x2="918" y2="378.9"/>
				<line class="st2" x1="918" y1="378.4" x2="918" y2="377.4"/>
			</g>
			<g>
				<line class="st2" x1="918" y1="379.9" x2="917.2" y2="379.4"/>
				<line class="st13" x1="914.9" y1="378.2" x2="911.6" y2="376.2"/>
				<line class="st2" x1="910.5" y1="375.6" x2="909.6" y2="375.1"/>
			</g>
			<g>
				<line class="st2" x1="886.9" y1="397.9" x2="887.8" y2="397.4"/>
				<line class="st5" x1="889.5" y1="396.4" x2="916.3" y2="380.9"/>
				<line class="st2" x1="917.2" y1="380.4" x2="918" y2="379.9"/>
			</g>
			<g>
				<line class="st2" x1="918" y1="377.4" x2="917.2" y2="378"/>
				<line class="st4" x1="915.5" y1="379.1" x2="888.6" y2="396.8"/>
				<line class="st2" x1="887.8" y1="397.3" x2="886.9" y2="397.9"/>
			</g>
			<g>
				<line class="st2" x1="918" y1="377.4" x2="918.9" y2="378"/>
				<line class="st4" x1="920.6" y1="379.1" x2="947.4" y2="396.8"/>
				<line class="st2" x1="948.3" y1="397.3" x2="949.1" y2="397.9"/>
			</g>
			<g>
				<line class="st2" x1="918" y1="379.9" x2="918" y2="378.9"/>
				<line class="st2" x1="918" y1="378.4" x2="918" y2="377.4"/>
			</g>
			<g>
				<line class="st2" x1="918" y1="377.4" x2="918" y2="378.4"/>
				<line class="st2" x1="918" y1="378.9" x2="918" y2="379.9"/>
			</g>
			<g>
				<line class="st2" x1="949.1" y1="397.9" x2="948.2" y2="397.4"/>
				<line class="st5" x1="946.5" y1="396.4" x2="919.7" y2="380.9"/>
				<line class="st2" x1="918.9" y1="380.4" x2="918" y2="379.9"/>
			</g>
			<g>
				<line class="st2" x1="886.9" y1="388.2" x2="886.9" y2="389.2"/>
				<line class="st34" x1="886.9" y1="391.8" x2="886.9" y2="395.6"/>
				<line class="st2" x1="886.9" y1="396.9" x2="886.9" y2="397.9"/>
			</g>
			<g>
				<line class="st2" x1="886.9" y1="397.9" x2="886.9" y2="396.9"/>
				<line class="st34" x1="886.9" y1="394.3" x2="886.9" y2="390.5"/>
				<line class="st2" x1="886.9" y1="389.2" x2="886.9" y2="388.2"/>
			</g>
			<g>
				<line class="st2" x1="878.5" y1="393" x2="879.4" y2="393.5"/>
				<line class="st16" x1="881.6" y1="394.8" x2="885" y2="396.7"/>
				<line class="st2" x1="886.1" y1="397.4" x2="886.9" y2="397.9"/>
			</g>
			<g>
				<line class="st2" x1="886.9" y1="397.9" x2="886.9" y2="396.9"/>
				<line class="st34" x1="886.9" y1="394.3" x2="886.9" y2="390.5"/>
				<line class="st2" x1="886.9" y1="389.2" x2="886.9" y2="388.2"/>
			</g>
		</g>
	</g>
</g>
<g id="Platform_detail">
	<path class="st2" d="M321.3,345.1l31.1-17.9 M315.1,341.5l31.1-17.9 M308.9,338l31.1-17.9 M302.6,334.4l31.1-17.9 M296.4,323.6
		l6.2,3.6 M296.4,316.4l12.4,7.2 M296.4,309.2L315,320 M296.4,302.1l24.9,14.4 M395.9,381l28,16.1 M402.1,377.4l28,16.1
		 M408.3,373.8l28,16.1 M442.5,386.4l-28-16.1 M333.7,345.1l31.1,17.9 M339.9,341.5l31.1,17.9 M346.2,338l31.1,17.9 M352.4,334.4
		l31.1,17.9 M383.5,381l31.1-17.9 M408.3,359.5l-31.1,17.9 M371,373.8l31.1-17.9 M364.8,370.3l31.1-17.9 M476.7,259l-31.1-17.9
		 M470.5,262.6l-31.1-17.9 M464.3,266.2l-31.1-17.9 M458,269.8l-31-18 M476.7,294.9L445.6,277 M470.5,298.5l-31.1-17.9 M464.3,302.1
		l-31.1-17.9 M458,305.7l-31-18 M375.7,453.7l31.1-17.9 M369.5,450.1l31.1-17.9 M363.3,446.5l31.1-17.9 M357,442.9l31.1-17.9
		 M510.9,415.1l3.1-1.8 M504.7,411.5l28-16.1 M498.4,407.9l28-16.1 M492.2,404.3l28-16.1 M566.6,416.9l-21.5-12.4 M545.1,404.5
		l-21.5,12.4 M545.1,404.5v-7.2 M380.1,309.2l-21.5-12.4 M358.6,296.8l-21.5,12.4 M358.6,296.8v-7.2 M601,406.1l-31.1-17.9
		 M594.8,409.7l-31.1-17.9 M588.6,413.3l-31.1-17.9 M582.4,416.9l-6.2-3.6 M613.4,370.3l-31.1,17.9 M619.7,373.8l-31.1,17.9
		 M625.9,377.4l-31.1,17.9 M632.1,381L601,399 M675.6,334.4l-31.1,17.9 M681.8,338l-31.1,17.9 M688,341.5l-31,18 M694.2,345.1
		L663.1,363 M663.2,370.3l-31.1-17.9 M657,373.8l-31.1-17.9 M650.7,377.4l-31.1-17.9 M644.5,381l-31.1-17.9 M737.8,266.2l-31.1,17.9
		 M744,269.8l-31.1,17.9 M750.2,273.4l-31.1,17.9 M756.4,276.9l-31.1,17.9 M722,259l-21.5-12.4 M700.5,246.6L679,259 M700.5,246.6
		v-7.2 M737.8,230.3l-26.6,15.3 M744,233.9l-26.6,15.3 M750.2,237.5l-26.6,15.3 M756.4,241.1l-28.2,16.3 M781.3,262.6l-24.9-14.4
		 M775.1,266.2l-24.9-14.4 M768.8,269.8L744,255.4 M762.6,273.4L737.8,259 M725.3,230.3l-31.1-17.9 M719.1,233.9l-31.1-18
		 M712.9,237.5l-31.1-17.9 M706.7,241.1l-31.1-17.9 M675.6,194.4l-28,16.1 M681.8,198l-28,16.1 M688,201.6l-28,16.1 M694.2,205.2
		l-28,16.1 M663.2,194.4l-31.1-17.9 M657,198l-31.1-18 M650.7,201.6l-31.1-17.9 M644.5,205.2l-31.1-17.9 M824.8,273.4l6.2,3.6
		 M806.1,255.4l31.1,17.9 M812.3,251.8l31.1,17.9 M818.6,248.2l31.1,17.9 M862.1,330.8l31.1,17.9 M868.3,327.2l31.1,17.9
		 M874.5,323.6l31.1,17.9 M880.7,320l31.1,17.9 M924.2,338l-28,16.1 M930.4,341.5l-28,16.1 M936.7,345.1l-28,16.1 M799.9,294.9
		l31.1,17.9 M806.1,291.3l31.1,17.9 M812.3,287.7l31.1,17.9 M818.6,284.1l31.1,17.9 M862.1,302.1L831,320 M868.3,305.7l-31.1,17.9
		 M874.5,309.2l-31.1,17.9 M880.7,312.8l-31.1,17.9 M918,363.1l-3.1,1.8 M779.7,403.4l31.1-17.9 M773.5,399.9l31.1-17.9
		 M767.3,396.3l31.1-17.9 M761.1,392.7l31.1-17.9 M953.6,356.9l-4.5-2.6 M949.1,354.3l-21.5,12.4 M949.1,354.3v-7.2 M815.2,276.9
		l-21.5-12.4 M793.7,264.5l-21.5,12.4 M793.7,264.5v-7.2 M767.1,209.7l-4.5-2.6 M762.6,207.1l-21.5,12.4 M762.6,207.1v-7.2
		 M753,201.6l-21.5-12.4 M731.5,189.2L710,201.6 M731.5,189.2V182 M535.5,151.3L514,138.9 M514,138.9l-21.5,12.4 M514,138.9v-7.2
		 M551.3,158.5l-31.1,17.9 M557.5,162.1L526.4,180 M563.7,165.7l-31.1,17.9 M569.9,169.3l-31.1,17.9 M683.4,114.6l-31.1,17.9
		 M689.6,118.1L658.5,136 M695.8,121.7l-31.1,17.9 M702,125.3l-31.1,17.9"/>
</g>
<g id="Layer_11">
</g>
<g id="Plants">
	<line class="st35" x1="536.7" y1="418.3" x2="532.5" y2="388.9"/>
	<line class="st35" x1="543.2" y1="418.3" x2="541.9" y2="383.4"/>
	<line class="st35" x1="550.2" y1="420.7" x2="554.3" y2="392.3"/>
	<line class="st35" x1="558.8" y1="420" x2="561.9" y2="404.3"/>
	<line class="st35" x1="534.1" y1="400" x2="537.3" y2="396.1"/>
	<line class="st35" x1="542.5" y1="398.8" x2="546.8" y2="391.6"/>
	<line class="st35" x1="552.7" y1="403.3" x2="548.1" y2="399.7"/>
	<line class="st35" x1="559.7" y1="416.2" x2="557.4" y2="412.6"/>
	<circle class="st35" cx="532.1" cy="386.2" r="3"/>
	<circle class="st35" cx="541.9" cy="379" r="4.5"/>
	<circle class="st35" cx="554.5" cy="390.5" r="1.9"/>
	<circle class="st35" cx="562.5" cy="401.6" r="3"/>
	<line class="st35" x1="532.1" y1="420" x2="529.5" y2="408.8"/>
	<line class="st35" x1="531.2" y1="416" x2="532.6" y2="413.3"/>
	<line class="st35" x1="534.6" y1="420" x2="535.1" y2="421.2"/>
	<line class="st35" x1="540.2" y1="422.3" x2="539.4" y2="420.6"/>
	<line class="st35" x1="543" y1="420.6" x2="543.4" y2="423.8"/>
	<line class="st35" x1="548.2" y1="423.8" x2="545.1" y2="423.8"/>
	<line class="st35" x1="546.6" y1="420" x2="544.6" y2="420.6"/>
	<line class="st35" x1="554.4" y1="423" x2="551.3" y2="423.8"/>
	<line class="st35" x1="553.4" y1="417.8" x2="552.2" y2="420"/>
	<line class="st35" x1="548.2" y1="413.3" x2="547.5" y2="416"/>
	<line class="st35" x1="546.3" y1="410.7" x2="545.1" y2="411.5"/>
	<line class="st35" x1="540.6" y1="416" x2="539.8" y2="414.2"/>
	<line class="st35" x1="538.9" y1="411.1" x2="539.8" y2="409.7"/>
	<line class="st35" x1="547.8" y1="407.9" x2="549.9" y2="407.9"/>
	<line class="st35" x1="554.4" y1="414.4" x2="555.8" y2="416"/>
	<line class="st35" x1="562.5" y1="416.5" x2="562.5" y2="417.8"/>
	<line class="st35" x1="542.5" y1="425.7" x2="544.6" y2="427.1"/>
	<line class="st35" x1="349.5" y1="310.2" x2="345.3" y2="280.8"/>
	<line class="st35" x1="356.1" y1="310.2" x2="354.7" y2="275.2"/>
	<line class="st35" x1="363" y1="312.6" x2="367.1" y2="284.2"/>
	<line class="st35" x1="371.6" y1="311.8" x2="374.7" y2="296.2"/>
	<line class="st35" x1="346.9" y1="291.9" x2="350.1" y2="288"/>
	<line class="st35" x1="355.3" y1="290.7" x2="359.6" y2="283.5"/>
	<line class="st35" x1="365.5" y1="295.1" x2="360.9" y2="291.6"/>
	<line class="st35" x1="372.5" y1="308.1" x2="370.2" y2="304.5"/>
	<circle class="st35" cx="345" cy="278.1" r="3"/>
	<circle class="st35" cx="354.7" cy="270.9" r="4.5"/>
	<circle class="st35" cx="367.4" cy="282.4" r="1.9"/>
	<circle class="st35" cx="375.3" cy="293.4" r="3"/>
	<line class="st35" x1="345" y1="311.8" x2="342.3" y2="300.7"/>
	<line class="st35" x1="344" y1="307.9" x2="345.4" y2="305.2"/>
	<line class="st35" x1="347.4" y1="311.8" x2="347.9" y2="313.1"/>
	<line class="st35" x1="353.1" y1="314.2" x2="352.2" y2="312.5"/>
	<line class="st35" x1="355.8" y1="312.5" x2="356.2" y2="315.6"/>
	<line class="st35" x1="361" y1="315.6" x2="357.9" y2="315.6"/>
	<line class="st35" x1="359.4" y1="311.8" x2="357.4" y2="312.5"/>
	<line class="st35" x1="367.2" y1="314.9" x2="364.1" y2="315.6"/>
	<line class="st35" x1="366.2" y1="309.7" x2="365.1" y2="311.8"/>
	<line class="st35" x1="361" y1="305.2" x2="360.3" y2="307.9"/>
	<line class="st35" x1="359.2" y1="302.6" x2="357.9" y2="303.4"/>
	<line class="st35" x1="353.4" y1="307.9" x2="352.6" y2="306.1"/>
	<line class="st35" x1="351.7" y1="303" x2="352.6" y2="301.6"/>
	<line class="st35" x1="360.7" y1="299.8" x2="362.7" y2="299.8"/>
	<line class="st35" x1="367.2" y1="306.3" x2="368.6" y2="307.9"/>
	<line class="st35" x1="375.3" y1="308.4" x2="375.3" y2="309.7"/>
	<line class="st35" x1="355.4" y1="317.6" x2="357.4" y2="319"/>
	<line class="st35" x1="723" y1="203.5" x2="718.8" y2="174.1"/>
	<line class="st35" x1="729.6" y1="203.5" x2="728.2" y2="168.6"/>
	<line class="st35" x1="736.5" y1="206" x2="740.6" y2="177.5"/>
	<line class="st35" x1="745.1" y1="205.2" x2="748.2" y2="189.5"/>
	<line class="st35" x1="720.4" y1="185.3" x2="723.6" y2="181.3"/>
	<line class="st35" x1="728.8" y1="184" x2="733.1" y2="176.8"/>
	<line class="st35" x1="739" y1="188.5" x2="734.4" y2="184.9"/>
	<line class="st35" x1="746" y1="201.4" x2="743.7" y2="197.8"/>
	<circle class="st35" cx="718.5" cy="171.4" r="3"/>
	<circle class="st35" cx="728.2" cy="164.3" r="4.5"/>
	<circle class="st35" cx="740.9" cy="175.8" r="1.9"/>
	<circle class="st35" cx="748.8" cy="186.8" r="3"/>
	<line class="st35" x1="718.5" y1="205.2" x2="715.8" y2="194"/>
	<line class="st35" x1="717.5" y1="201.2" x2="719" y2="198.5"/>
	<line class="st35" x1="720.9" y1="205.2" x2="721.4" y2="206.4"/>
	<line class="st35" x1="726.6" y1="207.5" x2="725.7" y2="205.8"/>
	<line class="st35" x1="729.3" y1="205.8" x2="729.7" y2="209"/>
	<line class="st35" x1="734.5" y1="209" x2="731.4" y2="209"/>
	<line class="st35" x1="732.9" y1="205.2" x2="730.9" y2="205.8"/>
	<line class="st35" x1="740.7" y1="208.2" x2="737.6" y2="209"/>
	<line class="st35" x1="739.7" y1="203" x2="738.6" y2="205.2"/>
	<line class="st35" x1="734.5" y1="198.5" x2="733.8" y2="201.2"/>
	<line class="st35" x1="732.7" y1="195.9" x2="731.4" y2="196.7"/>
	<line class="st35" x1="726.9" y1="201.2" x2="726.1" y2="199.4"/>
	<line class="st35" x1="725.2" y1="196.3" x2="726.1" y2="194.9"/>
	<line class="st35" x1="734.2" y1="193.1" x2="736.2" y2="193.1"/>
	<line class="st35" x1="740.7" y1="199.6" x2="742.1" y2="201.2"/>
	<line class="st35" x1="748.8" y1="201.7" x2="748.8" y2="203"/>
	<line class="st35" x1="728.9" y1="210.9" x2="730.9" y2="212.3"/>
	<line class="st35" x1="784.6" y1="278.4" x2="780.5" y2="249"/>
	<line class="st35" x1="791.2" y1="278.4" x2="789.8" y2="243.5"/>
	<line class="st35" x1="798.2" y1="280.8" x2="802.2" y2="252.4"/>
	<line class="st35" x1="806.7" y1="280.1" x2="809.9" y2="264.4"/>
	<line class="st35" x1="782" y1="260.1" x2="785.3" y2="256.2"/>
	<line class="st35" x1="790.4" y1="258.9" x2="794.7" y2="251.7"/>
	<line class="st35" x1="800.7" y1="263.4" x2="796" y2="259.8"/>
	<line class="st35" x1="807.6" y1="276.3" x2="805.3" y2="272.7"/>
	<circle class="st35" cx="780.1" cy="246.3" r="3"/>
	<circle class="st35" cx="789.8" cy="239.2" r="4.5"/>
	<circle class="st35" cx="802.5" cy="250.6" r="1.9"/>
	<circle class="st35" cx="810.4" cy="261.7" r="3"/>
	<line class="st35" x1="780.1" y1="280.1" x2="777.5" y2="268.9"/>
	<line class="st35" x1="779.2" y1="276.1" x2="780.6" y2="273.4"/>
	<line class="st35" x1="782.6" y1="280.1" x2="783.1" y2="281.3"/>
	<line class="st35" x1="788.2" y1="282.4" x2="787.3" y2="280.7"/>
	<line class="st35" x1="791" y1="280.7" x2="791.3" y2="283.9"/>
	<line class="st35" x1="796.1" y1="283.9" x2="793" y2="283.9"/>
	<line class="st35" x1="794.6" y1="280.1" x2="792.6" y2="280.7"/>
	<line class="st35" x1="802.3" y1="283.1" x2="799.2" y2="283.9"/>
	<line class="st35" x1="801.3" y1="277.9" x2="800.2" y2="280.1"/>
	<line class="st35" x1="796.1" y1="273.4" x2="795.5" y2="276.1"/>
	<line class="st35" x1="794.3" y1="270.8" x2="793" y2="271.6"/>
	<line class="st35" x1="788.6" y1="276.1" x2="787.8" y2="274.3"/>
	<line class="st35" x1="786.8" y1="271.2" x2="787.8" y2="269.8"/>
	<line class="st35" x1="795.8" y1="268" x2="797.8" y2="268"/>
	<line class="st35" x1="802.3" y1="274.5" x2="803.8" y2="276.1"/>
	<line class="st35" x1="810.4" y1="276.6" x2="810.4" y2="277.9"/>
	<line class="st35" x1="790.5" y1="285.8" x2="792.6" y2="287.2"/>
	<line class="st35" x1="505.9" y1="151.8" x2="501.8" y2="122.4"/>
	<line class="st35" x1="512.5" y1="151.8" x2="511.1" y2="116.8"/>
	<line class="st35" x1="519.5" y1="154.2" x2="523.5" y2="125.8"/>
	<line class="st35" x1="528" y1="153.4" x2="531.2" y2="137.8"/>
	<line class="st35" x1="503.3" y1="133.5" x2="506.6" y2="129.5"/>
	<line class="st35" x1="511.7" y1="132.2" x2="516" y2="125.1"/>
	<line class="st35" x1="522" y1="136.7" x2="517.3" y2="133.1"/>
	<line class="st35" x1="528.9" y1="149.6" x2="526.6" y2="146"/>
	<circle class="st35" cx="501.4" cy="119.7" r="3"/>
	
		<ellipse transform="matrix(0.1602 -0.9871 0.9871 0.1602 318.1834 598.9799)" class="st35" cx="511.1" cy="112.5" rx="4.5" ry="4.5"/>
	<circle class="st35" cx="523.8" cy="124" r="1.9"/>
	<circle class="st35" cx="531.7" cy="135" r="3"/>
	<line class="st35" x1="501.4" y1="153.4" x2="498.8" y2="142.3"/>
	<line class="st35" x1="500.5" y1="149.4" x2="501.9" y2="146.8"/>
	<line class="st35" x1="503.8" y1="153.4" x2="504.4" y2="154.7"/>
	<line class="st35" x1="509.5" y1="155.7" x2="508.6" y2="154"/>
	<line class="st35" x1="512.2" y1="154" x2="512.6" y2="157.2"/>
	<line class="st35" x1="517.4" y1="157.2" x2="514.3" y2="157.2"/>
	<line class="st35" x1="515.9" y1="153.4" x2="513.9" y2="154"/>
	<line class="st35" x1="523.6" y1="156.5" x2="520.5" y2="157.2"/>
	<line class="st35" x1="522.6" y1="151.2" x2="521.5" y2="153.4"/>
	<line class="st35" x1="517.4" y1="146.8" x2="516.7" y2="149.5"/>
	<line class="st35" x1="515.6" y1="144.1" x2="514.3" y2="145"/>
	<line class="st35" x1="509.9" y1="149.5" x2="509.1" y2="147.7"/>
	<line class="st35" x1="508.1" y1="144.6" x2="509.1" y2="143.2"/>
	<line class="st35" x1="517.1" y1="141.4" x2="519.1" y2="141.4"/>
	<line class="st35" x1="523.6" y1="147.8" x2="525.1" y2="149.5"/>
	<line class="st35" x1="531.7" y1="149.9" x2="531.7" y2="151.2"/>
	<line class="st35" x1="511.8" y1="159.2" x2="513.9" y2="160.6"/>
	<line class="st35" x1="941" y1="367.2" x2="936.9" y2="337.8"/>
	<line class="st35" x1="947.6" y1="367.2" x2="946.2" y2="332.2"/>
	<line class="st35" x1="956.6" y1="355.1" x2="958.6" y2="341.2"/>
	<line class="st35" x1="938.4" y1="348.9" x2="941.7" y2="345"/>
	<line class="st35" x1="946.8" y1="347.6" x2="951.1" y2="340.5"/>
	<line class="st35" x1="957.1" y1="352.1" x2="952.4" y2="348.5"/>
	<circle class="st35" cx="936.5" cy="335.1" r="3"/>
	<circle class="st35" cx="946.2" cy="327.9" r="4.5"/>
	<circle class="st35" cx="958.9" cy="339.4" r="1.9"/>
	<line class="st35" x1="936.5" y1="368.8" x2="933.9" y2="357.7"/>
	<line class="st35" x1="935.6" y1="364.9" x2="937" y2="362.2"/>
	<line class="st35" x1="938.9" y1="368.8" x2="939.5" y2="370.1"/>
	<line class="st35" x1="944.6" y1="371.1" x2="943.7" y2="369.4"/>
	<line class="st35" x1="947.4" y1="369.4" x2="947.7" y2="372.6"/>
	<line class="st35" x1="945" y1="364.9" x2="944.2" y2="363.1"/>
	<line class="st35" x1="943.2" y1="360" x2="944.2" y2="358.6"/>
	<line class="st35" x1="948.9" y1="356.8" x2="951" y2="356.8"/>
	<line class="st35" x1="945.7" y1="374.6" x2="947.8" y2="376"/>
	<line class="st35" x1="772.6" y1="218.1" x2="776.3" y2="191.6"/>
	<line class="st35" x1="766" y1="210.4" x2="767" y2="186"/>
	<line class="st35" x1="758.6" y1="223.4" x2="754.6" y2="195"/>
	<line class="st35" x1="750.1" y1="222.6" x2="746.9" y2="207"/>
	<line class="st35" x1="774.8" y1="202.7" x2="771.5" y2="198.8"/>
	<line class="st35" x1="766.4" y1="201.5" x2="762.1" y2="194.3"/>
	<circle class="st35" cx="776.7" cy="188.9" r="3"/>
	<circle class="st35" cx="767" cy="181.7" r="4.5"/>
	<circle class="st35" cx="754.3" cy="193.2" r="1.9"/>
	<circle class="st35" cx="746.4" cy="204.2" r="3"/>
	<line class="st35" x1="746.1" y1="218.9" x2="746.7" y2="220.4"/>
	<line class="st35" x1="753.3" y1="220" x2="754.3" y2="207.4"/>
	<line class="st35" x1="753.9" y1="212.6" x2="752.4" y2="210.6"/>
	<line class="st35" x1="753.8" y1="223.2" x2="754.9" y2="224.1"/>
	<line class="st35" x1="756.1" y1="217.7" x2="756.6" y2="219.5"/>
	<line class="st35" x1="760.1" y1="211" x2="759.6" y2="212.3"/>
	<line class="st35" x1="760.8" y1="215.4" x2="758.8" y2="215.2"/>
	<line class="st35" x1="760.5" y1="218.1" x2="760.6" y2="220.2"/>
	<line class="st35" x1="761" y1="223.6" x2="761.2" y2="224.9"/>
	<line class="st35" x1="757.8" y1="224.9" x2="759.2" y2="226.7"/>
	<line class="st35" x1="762.1" y1="228" x2="759.8" y2="228.5"/>
	<line class="st35" x1="763.4" y1="208.4" x2="762.2" y2="210.4"/>
</g>
<g id="People" class="st36">
</g>
<g id="Border_x5F_Diploma">
	<path class="st37" d="M482.9,327.2l-62.2,35.9 M420.8,363.1l-62.2-35.9 M420.8,291.3l31.1,17.9 M358.6,327.2l31.1-17.9
		 M389.7,309.2l31.1-17.9 M451.8,309.2l3.1,1.8 M454.9,311l2.5,1.5 M457.5,312.5l25.4,14.7"/>
	<g id="Layer_14">
		<polygon class="st37" points="358.6,327.2 420.8,291.3 482.9,327.2 420.8,363.1 		"/>
	</g>
</g>
<g id="Border_x5F_BSc_1">
	<path class="st37" d="M514,416.9l-62.2,35.9 M451.8,452.8l-62.2-35.9 M486,400.8L451.8,381 M389.7,416.9l22.6-13.1 M412.3,403.9
		l2.3-1.3 M414.5,402.5l3.1-1.8 M510.9,415.1l3.1,1.8 M417.6,400.8l6.2-3.6 M504.7,411.5l6.2,3.6 M423.9,397.2l6.2-3.6 M498.4,407.9
		l6.2,3.6 M430.1,393.6l6.2-3.6 M486,400.8l6.2,3.6 M492.2,404.3l6.2,3.6 M436.3,390l6.2-3.6 M442.5,386.4l6.2-3.6 M448.7,382.8
		l3.1-1.8"/>
	<polygon class="st37" points="389.7,416.9 451.8,381 514,416.9 451.8,452.8 	"/>
</g>
<g id="Border_x5F_BSc_2">
	<path class="st37" d="M514,345.1l62.2-35.9 M576.1,309.2l62.2,35.9 M638.3,345.1L576.1,381 M576.1,381L514,345.1"/>
	<polygon class="st37" points="514,345.1 576.1,309.2 638.3,345.1 576.1,381 	"/>
</g>
<g id="Border_x5F_BSc_3_Conservation">
	<path class="st37" d="M669.4,151.3l-62.2,35.9 M607.2,187.2L545,151.3 M545.1,151.3l62.2-35.9 M607.2,115.5l62.2,35.9"/>
	<polygon class="st37" points="545.1,151.3 607.2,115.5 669.4,151.3 607.2,187.2 	"/>
</g>
<g id="Border_x5F_BSc_3_Design">
	<path class="st37" d="M672.8,257.1L638.3,277 M638.3,276.9L576.1,241 M672.5,224.9l26.6,15.3 M699,240.2l-26.3,15.2 M576.1,241.1
		l53.7-31 M629.8,210.1l2.3-1.3 M632.1,208.8l3.1-1.8 M635.2,207l3.1-1.8 M666.3,221.3l6.2,3.6 M672.8,257.1v-1.6 M660.1,217.7
		l6.2,3.6 M653.8,214.1l6.2,3.6 M647.6,210.6l6.2,3.6 M638.3,205.2l3.1,1.8 M641.4,207l6.2,3.6"/>
	<polygon class="st37" points="576.1,241.1 638.3,205.2 699,240.2 672.8,255.4 672.8,257.1 638.3,276.9 	"/>
</g>
<g id="Border_x5F_BSc_3_Urban">
	<path class="st37" d="M918,366.7l-62.2,35.9 M855.9,402.5l-62.2-35.9 M793.7,366.7l53.7-31 M847.4,335.7l2.3-1.3 M896.3,354.1
		l6.2,3.6 M902.5,357.7l6.2,3.6 M849.6,334.4l3.1-1.8 M852.8,332.6l3.1-1.8 M890,350.5l6.2,3.6 M908.7,361.3l6.2,3.6 M914.9,364.9
		l3.1,1.8 M855.9,330.8l3.1,1.8 M859,332.6l31.1,17.9"/>
	<polygon class="st37" points="793.7,366.7 855.9,330.8 918,366.7 855.9,402.5 	"/>
</g>
<g id="Border_x5F_BSc_3_Structures">
	<path class="st37" d="M918,259l62.2,35.9 M980.2,294.9L918,330.8 M918,330.8l-62.2-35.9 M855.9,294.9L918,259"/>
	<polygon class="st37" points="855.9,294.9 918,259 980.2,294.9 918,330.8 	"/>
</g>
</svg>
